<?xml version="1.0" encoding="utf-8"?>
<!-- Generator: Adobe Illustrator 25.3.1, SVG Export Plug-In . SVG Version: 6.00 Build 0)  -->
<svg version="1.1" id="Layer_1" xmlns="http://www.w3.org/2000/svg" xmlns:xlink="http://www.w3.org/1999/xlink" x="0px" y="0px"
	 viewBox="0 0 3000 3000" style="enable-background:new 0 0 3000 3000;" xml:space="preserve">
<style type="text/css">
	.st0{display:none;fill:#FFFFFF;}
	.st1{display:none;}
	.st2{display:inline;fill:#FFACC1;}
	.st3{display:inline;}
	.st4{fill:#DFCEBA;}
	.st5{display:inline;fill:#70F5E0;}
	.st6{display:inline;fill:#FFDCB3;}
	.st7{fill:#192D50;}
	.st8{fill:#FFFFFF;}
</style>
<g>
	<rect x="-3728" y="-416" class="st0" width="7126" height="7126"/>
	<g class="st1">
		<path class="st2" d="M-548.5,823.6c-12.4,2.5-24.7,4.9-37.1,4.9l0,0c0,0-2.5,0-2.5,2.5c-207.8,32.2-403.3,103.9-603.7,168.3
			c-19.8,7.4-39.6,12.4-59.4,19.8c188-81.7,371.1-165.8,554.2-254.9c165.8-79.2,19.8-314.2-141-242.5
			c-363.7,158.4-752.2,242.5-1138.2,319.2c-2.5,0-2.5,0-2.5,0c245-111.3,487.4-225.2,732.4-336.5c165.8-76.7,22.3-319.2-143.5-242.5
			c-596.3,272.2-1195.1,546.8-1791.4,821.5c-153.4,69.3-39.6,287,108.9,257.3c89.1-17.3,180.6-34.6,272.2-52
			c-185.6,69.3-366.2,150.9-534.5,262.3c-136.1,89.1-49.5,287,108.9,257.3c155.9-29.7,311.8-61.9,467.6-94
			c-111.3,44.5-220.2,89.1-331.6,136.1c-165.8,66.8-106.4,306.8,74.2,272.2c306.8-59.4,616.1-123.7,922.9-188
			c-69.3,22.3-138.6,44.5-205.4,66.8c-146,42.1-292,86.6-438,128.7c-165.8,49.5-106.4,294.4,52,277.1
			c-14.8,89.1,71.8,195.5,178.2,173.2c4.9-2.5,12.4-2.5,17.3-4.9c-81.7,86.6,24.7,252.4,153.4,227.6
			c200.4-39.6,400.8-74.2,603.7-103.9c-24.7,89.1,47,212.8,170.7,188c230.1-47,440.4-148.5,628.5-287c99-74.2,84.1-274.6-71.8-262.3
			c-131.1,9.9-262.3,22.3-390.9,37.1c61.9-29.7,126.2-61.9,188-91.5c128.7-64.3,64.3-237.5-52-257.3
			c81.7-37.1,163.3-74.2,247.4-111.3c56.9-24.7,76.7-76.7,69.3-128.7c136.1-61.9,272.2-126.2,405.8-193
			c148.5-74.2,42.1-292-108.9-257.3c-314.2,71.8-630.9,138.6-947.7,207.8c361.2-148.5,722.5-294.4,1083.7-442.9
			C-377.8,1046.3-375.3,801.4-548.5,823.6z"/>
		<g class="st3">
			<path d="M-1810.4,2815.4c-692.8,0-1254.5-561.7-1254.5-1254.5s561.7-1254.5,1254.5-1254.5S-555.9,868.2-555.9,1561
				S-1120.1,2815.4-1810.4,2815.4z M-1810.4,331.2c-678,0-1227.3,551.8-1227.3,1227.3s551.8,1227.3,1227.3,1227.3
				S-583.2,2234-583.2,1558.5S-1134.9,331.2-1810.4,331.2z"/>
		</g>
		<g class="st3">
			<g>
				<path d="M-2295.4,1620.4c4.9,9.9,7.4,19.8,7.4,32.2c0,12.4-2.5,24.7-4.9,37.1c-2.5,12.4-7.4,22.3-12.4,32.2
					c-9.9,19.8-22.3,32.2-37.1,39.6c-17.3,7.4-34.6,7.4-54.4,0c-7.4-2.5-14.8-7.4-19.8-12.4c-4.9-4.9-9.9-9.9-14.8-17.3
					c-4.9-7.4-7.4-12.4-9.9-17.3c-2.5-4.9-4.9-12.4-7.4-22.3s-2.5-17.3-4.9-22.3c-2.5-4.9-2.5-14.8-2.5-24.7c0-9.9,0-17.3,0-22.3
					s0-12.4,0-24.7s0-17.3,0-22.3c0-52,2.5-111.3,4.9-178.2c0-22.3,4.9-42.1,9.9-56.9c4.9-17.3,17.3-27.2,34.6-34.6
					c12.4-7.4,24.7-7.4,34.6-4.9c9.9,2.5,19.8,7.4,27.2,14.8c7.4,7.4,12.4,14.8,17.3,27.2c4.9,12.4,7.4,22.3,12.4,32.2
					c2.5,9.9,4.9,22.3,4.9,32.2c0,4.9-2.5,9.9-7.4,12.4c-4.9,2.5-9.9,2.5-14.8,2.5c-4.9-2.5-7.4-4.9-7.4-9.9
					c-4.9-27.2-9.9-44.5-14.8-54.4c-2.5-7.4-7.4-12.4-12.4-17.3c-4.9-4.9-9.9-7.4-17.3-7.4c-7.4,0-12.4,2.5-19.8,9.9
					c-4.9,4.9-9.9,12.4-12.4,22.3c-2.5,9.9-4.9,17.3-4.9,22.3c0,4.9,0,14.8,0,27.2c0,12.4,0,19.8,0,22.3
					c-2.5,64.3-2.5,106.4-2.5,126.2c0,4.9,0,14.8,0,24.7c0,9.9,0,22.3,0,32.2c0,9.9,0,17.3,2.5,24.7c2.5,34.6,9.9,59.4,22.3,74.2
					c14.8,14.8,27.2,19.8,37.1,17.3c12.4-4.9,22.3-14.8,29.7-29.7c14.8-32.2,17.3-54.4,9.9-69.3c-4.9-4.9-4.9-12.4,0-17.3
					c4.9-4.9,7.4-7.4,14.8-7.4C-2305.3,1612.9-2300.3,1615.4-2295.4,1620.4z"/>
				<path d="M-2216.2,1343.2c-4.9,0-9.9-2.5-12.4-7.4c-2.5-4.9-2.5-9.9,0-14.8l0,0c2.5-4.9,7.4-7.4,12.4-7.4
					c2.5,0,12.4,2.5,29.7,2.5c17.3,2.5,29.7,2.5,39.6,2.5c7.4,0,12.4,2.5,14.8,7.4c2.5,4.9,2.5,9.9,0,17.3
					c-2.5,4.9-7.4,9.9-14.8,9.9c-4.9,0-7.4,0-12.4,0c2.5,74.2,0,133.6,0,175.7c0,9.9,0,27.2-2.5,52c-2.5,24.7,0,42.1-2.5,54.4
					c0,4.9,0,9.9,0,17.3c0,7.4,0,12.4-2.5,17.3c0,4.9,0,9.9,0,17.3s0,12.4,0,17.3c0,4.9,0,12.4,2.5,17.3c4.9,0,9.9-2.5,14.8-2.5
					c7.4-2.5,12.4,0,17.3,2.5c4.9,2.5,4.9,9.9,4.9,17.3c-2.5,7.4-4.9,9.9-12.4,12.4c-14.8,4.9-37.1,4.9-66.8-2.5
					c-2.5,0-4.9-2.5-4.9-2.5c-2.5-2.5-4.9-2.5-4.9-4.9c-2.5-4.9-2.5-7.4,0-12.4c2.5-4.9,4.9-7.4,7.4-7.4s4.9-2.5,7.4-2.5h4.9
					c-2.5-12.4-2.5-39.6,0-79.2c0-12.4,0-32.2,2.5-56.9c2.5-24.7,2.5-44.5,2.5-56.9c0-17.3,2.5-34.6,2.5-56.9c0-22.3,0-44.5,0-64.3
					s0-39.6,2.5-56.9c-2.5,0-4.9,0-7.4,0c-2.5,0-4.9,0-4.9,0c-2.5,0-2.5,0-4.9-2.5c-2.5-2.5-2.5,0-4.9,0
					C-2213.7,1345.7-2216.2,1345.7-2216.2,1343.2L-2216.2,1343.2L-2216.2,1343.2z"/>
				<path d="M-1966.3,1657.5c4.9,19.8,7.4,37.1,12.4,52c4.9,14.8,9.9,29.7,14.8,44.5c2.5,7.4,0,14.8-7.4,19.8
					c-7.4,4.9-14.8,2.5-19.8-2.5c-4.9-4.9-7.4-7.4-9.9-9.9c-4.9-4.9-4.9-12.4-2.5-19.8c-4.9-17.3-12.4-42.1-19.8-74.2
					c-7.4-32.2-12.4-54.4-14.8-64.3c-2.5-9.9-4.9-22.3-9.9-39.6c-4.9-17.3-7.4-32.2-9.9-39.6c0,2.5,0,4.9,0,7.4c0,2.5,0,4.9,0,7.4
					c0,2.5,0,4.9,0,7.4c0,22.3,0,54.4,0,96.5c0,42.1,2.5,76.7,0,96.5c0,7.4-2.5,12.4-7.4,14.8c-4.9,2.5-12.4,2.5-17.3,0
					c-4.9-2.5-7.4-7.4-7.4-14.8c0-19.8,0-54.4,0-101.4c0-47,0-81.7,0-101.4c4.9-84.1,4.9-146,7.4-188c-2.5-2.5-4.9-7.4-4.9-12.4
					c0-4.9,2.5-9.9,7.4-12.4c12.4-7.4,27.2-12.4,42.1-9.9s27.2,7.4,39.6,14.8s22.3,19.8,27.2,32.2c4.9,12.4,9.9,27.2,7.4,42.1
					c-2.5,19.8-9.9,34.6-22.3,44.5c-12.4,9.9-29.7,17.3-52,22.3l2.5,7.4c0,2.5,2.5,4.9,2.5,9.9c2.5,4.9,2.5,7.4,2.5,9.9
					c2.5,7.4,4.9,19.8,9.9,34.6l22.3,76.7C-1973.7,1625.3-1971.2,1640.1-1966.3,1657.5z M-1981.1,1417.5c4.9-12.4,4.9-22.3,2.5-34.6
					c-2.5-12.4-9.9-19.8-19.8-27.2s-22.3-9.9-32.2-9.9c0,27.2,0,59.4-2.5,96.5c2.5,0,4.9,0,7.4-2.5c4.9,0,7.4-2.5,9.9-2.5
					c2.5,0,4.9,0,7.4-2.5c2.5,0,7.4-2.5,9.9-2.5c2.5-2.5,4.9-2.5,7.4-4.9c2.5-2.5,4.9-2.5,7.4-4.9
					C-1983.6,1422.4-1981.1,1419.9-1981.1,1417.5z"/>
				<path d="M-1716.4,1620.4c4.9,9.9,7.4,19.8,7.4,32.2c0,12.4-2.5,24.7-4.9,37.1c-2.5,12.4-7.4,22.3-12.4,32.2
					c-9.9,19.8-22.3,32.2-37.1,39.6c-17.3,7.4-34.6,7.4-54.4,0c-7.4-2.5-14.8-7.4-19.8-12.4c-4.9-4.9-12.4-9.9-14.8-17.3
					c-2.5-7.4-7.4-12.4-9.9-17.3c-2.5-4.9-4.9-12.4-7.4-22.3c-2.5-9.9-2.5-17.3-4.9-22.3c-2.5-4.9-2.5-14.8-2.5-24.7
					c0-9.9,0-17.3,0-22.3s0-12.4,0-24.7s0-17.3,0-22.3c0-52,0-111.3,2.5-178.2c0-22.3,4.9-42.1,9.9-56.9
					c4.9-17.3,17.3-27.2,34.6-34.6c12.4-7.4,24.7-7.4,34.6-4.9c9.9,2.5,19.8,7.4,27.2,14.8c7.4,7.4,12.4,14.8,17.3,27.2
					c4.9,9.9,9.9,22.3,12.4,32.2c2.5,9.9,4.9,22.3,4.9,32.2c0,4.9-2.5,9.9-7.4,12.4s-9.9,2.5-14.8,2.5c-4.9-2.5-7.4-4.9-7.4-9.9
					c-4.9-27.2-9.9-44.5-14.8-54.4c-2.5-7.4-7.4-12.4-12.4-17.3c-4.9-4.9-9.9-7.4-17.3-7.4s-12.4,2.5-19.8,9.9
					c-4.9,4.9-9.9,12.4-12.4,22.3c-2.5,9.9-4.9,17.3-4.9,22.3c0,4.9,0,14.8,0,27.2c0,12.4,0,19.8,0,22.3
					c-2.5,64.3-2.5,106.4-2.5,126.2c0,4.9,0,14.8,0,24.7c0,9.9,0,22.3,0,32.2c0,9.9,0,17.3,0,24.7c2.5,34.6,9.9,59.4,22.3,74.2
					c14.8,14.8,27.2,19.8,37.1,17.3c12.4-4.9,22.3-14.8,29.7-29.7c14.8-32.2,17.3-54.4,9.9-69.3c-2.5-4.9-2.5-12.4,0-17.3
					c2.5-4.9,7.4-7.4,14.8-7.4C-1726.3,1612.9-1721.3,1615.4-1716.4,1620.4z"/>
				<path d="M-1634.7,1758.9c-4.9,0-9.9-2.5-12.4-4.9c-2.5-2.5-4.9-7.4-4.9-12.4c0-59.4,0-128.7,4.9-210.3c0-14.8,2.5-34.6,2.5-61.9
					s2.5-52,2.5-74.2c0-22.3,2.5-42.1,2.5-61.9c0-2.5,0-4.9,0-4.9v-2.5c0-2.5,0-7.4,2.5-9.9c2.5-2.5,4.9-4.9,7.4-4.9
					c2.5,0,4.9,0,7.4,0c2.5,0,4.9,2.5,7.4,4.9c2.5,2.5,2.5,4.9,2.5,9.9c0,37.1,0,59.4,0,69.3c0,9.9,0,32.2-2.5,69.3
					c-2.5,37.1-2.5,59.4-2.5,69.3c-2.5,76.7-4.9,141-4.9,193c22.3,0,39.6,0,54.4-2.5c4.9,0,9.9,0,12.4,0s7.4,0,12.4,2.5
					c4.9,2.5,7.4,4.9,7.4,9.9c2.5,7.4,0,12.4-4.9,17.3c-4.9,4.9-12.4,4.9-17.3,2.5c-2.5,0-4.9,0-9.9,0c-2.5,0-7.4,0-9.9,2.5
					c-2.5,0-7.4,0-7.4,2.5C-1592.7,1758.9-1612.5,1758.9-1634.7,1758.9z"/>
				<path d="M-1444.2,1766.3c-7.4,0-12.4-2.5-17.3-2.5c-4.9-2.5-7.4-7.4-9.9-12.4c0-4.9-2.5-9.9-2.5-14.8c0-4.9,0-12.4,0-19.8
					s0-12.4,0-14.8v-71.8c0-64.3,0-116.3,2.5-158.4c2.5-54.4,2.5-96.5,0-128.7c0-2.5-2.5-4.9-2.5-7.4c0-2.5,0-4.9,0-9.9
					c0-4.9,2.5-7.4,4.9-9.9c2.5-2.5,7.4-4.9,12.4-4.9h2.5c4.9,0,17.3,0,32.2,0s24.7,0,32.2,0c19.8-2.5,29.7,4.9,32.2,17.3
					c0,4.9,0,9.9-4.9,12.4s-9.9,4.9-14.8,2.5h-2.5l0,0h-2.5c-2.5,0-2.5,0-2.5,0c-2.5,0-4.9,0-7.4,0s-4.9,0-7.4,0
					c-7.4,0-19.8,0-37.1-2.5c4.9,32.2,4.9,71.8,4.9,116.3c4.9,0,7.4,0,12.4,2.5s9.9,0,12.4,2.5c2.5,2.5,7.4,0,12.4,2.5
					c4.9,2.5,9.9,0,12.4,2.5c7.4,0,12.4,2.5,14.8,9.9c2.5,4.9,2.5,12.4,0,17.3c-2.5,4.9-7.4,7.4-14.8,7.4c0,0,0,0-2.5,0
					c-2.5,0-2.5,0-2.5,0l0,0c-17.3-2.5-32.2-4.9-49.5-7.4c-2.5,52-2.5,84.1-2.5,96.5c0,61.9,0,108.9,0,141c0,2.5,0,4.9,0,9.9h7.4
					c0,0,22.3,0,64.3,0c4.9,0,7.4,2.5,9.9,2.5c2.5,2.5,4.9,4.9,4.9,7.4s0,7.4,0,9.9c0,2.5-2.5,4.9-4.9,7.4s-4.9,2.5-9.9,2.5
					c-7.4,0-19.8,0-37.1,0C-1421.9,1771.3-1436.8,1766.3-1444.2,1766.3z"/>
				<path d="M-1216.6,1754c-14.8,2.5-29.7,0-44.5-7.4c-14.8-7.4-22.3-17.3-29.7-29.7c-4.9-12.4-7.4-29.7-7.4-47c0-2.5,0-4.9,0-9.9
					c0-4.9,0-7.4,0-9.9c0-2.5,0-4.9,0-9.9s-2.5-4.9-2.5-7.4c-4.9-4.9-4.9-9.9,0-17.3c4.9-7.4,7.4-7.4,14.8-7.4
					c7.4,0,9.9,2.5,14.8,7.4c4.9,9.9,7.4,24.7,7.4,47c0,22.3,2.5,37.1,7.4,44.5c4.9,7.4,12.4,9.9,19.8,12.4c7.4,2.5,14.8,0,22.3-4.9
					c7.4-7.4,12.4-17.3,14.8-29.7c4.9-29.7,4.9-59.4-4.9-91.5c-7.4-32.2-19.8-61.9-34.6-89.1c-2.5-4.9-7.4-9.9-9.9-17.3
					s-7.4-14.8-12.4-19.8c-2.5-4.9-7.4-12.4-9.9-17.3c-4.9-7.4-7.4-12.4-9.9-19.8c-2.5-7.4-4.9-14.8-4.9-19.8
					c-4.9-34.6,0-64.3,17.3-84.1c7.4-12.4,19.8-17.3,32.2-17.3s24.7,2.5,34.6,12.4c4.9,4.9,9.9,9.9,12.4,17.3s4.9,12.4,7.4,17.3
					c2.5,4.9,2.5,12.4,4.9,19.8c2.5,7.4,2.5,14.8,4.9,19.8c2.5,4.9,0,9.9-2.5,12.4c-4.9,2.5-7.4,4.9-12.4,2.5
					c-4.9,0-7.4-4.9-9.9-9.9c-2.5-4.9-4.9-9.9-4.9-19.8c-2.5-9.9-2.5-14.8-4.9-19.8c-2.5-7.4-7.4-12.4-14.8-19.8
					c-7.4-4.9-12.4-4.9-19.8,0c-7.4,7.4-12.4,17.3-12.4,29.7c-2.5,12.4,0,22.3,0,34.6c0,12.4,4.9,22.3,12.4,29.7
					c4.9,7.4,9.9,19.8,17.3,32.2c7.4,12.4,14.8,24.7,19.8,34.6s12.4,22.3,14.8,32.2c9.9,27.2,17.3,56.9,22.3,91.5
					c2.5,9.9,2.5,22.3,2.5,37.1c0,14.8-2.5,27.2-4.9,42.1c-2.5,14.8-7.4,24.7-17.3,34.6C-1194.3,1746.5-1204.2,1751.5-1216.6,1754z"
					/>
			</g>
			<g>
				<path d="M-2052.9,1892.5c2.5,4.9,4.9,9.9,4.9,14.8c0,9.9-4.9,19.8-12.4,24.7c-7.4,4.9-19.8,9.9-34.6,9.9h-49.5l22.3-111.3h47
					c9.9,0,19.8,2.5,24.7,4.9c4.9,4.9,9.9,9.9,9.9,17.3s-2.5,14.8-7.4,19.8c-4.9,4.9-9.9,9.9-17.3,9.9
					C-2062.8,1887.6-2057.8,1890.1-2052.9,1892.5z M-2065.3,1929.6c7.4-4.9,9.9-12.4,9.9-19.8c0-7.4-2.5-12.4-7.4-14.8
					c-4.9-2.5-12.4-4.9-22.3-4.9h-42.1l-9.9,47h42.1C-2082.6,1934.6-2072.7,1932.1-2065.3,1929.6z M-2124.6,1882.6h37.1
					c9.9,0,19.8-2.5,24.7-7.4c7.4-4.9,9.9-12.4,9.9-19.8c0-4.9-2.5-9.9-7.4-12.4c-4.9-2.5-9.9-4.9-19.8-4.9h-37.1L-2124.6,1882.6z"
					/>
				<path d="M-1916.8,1860.4l-17.3,84.1h-7.4l2.5-17.3c-4.9,4.9-9.9,9.9-14.8,12.4s-12.4,4.9-19.8,4.9c-9.9,0-19.8-2.5-27.2-9.9
					c-7.4-7.4-9.9-14.8-9.9-24.7c0-9.9,2.5-17.3,4.9-24.7c4.9-7.4,9.9-14.8,17.3-17.3c7.4-2.5,14.8-7.4,24.7-7.4s14.8,2.5,22.3,4.9
					c7.4,2.5,9.9,9.9,12.4,14.8l4.9-19.8H-1916.8L-1916.8,1860.4z M-1951.4,1929.6c4.9-2.5,9.9-9.9,14.8-14.8
					c2.5-7.4,4.9-14.8,4.9-22.3c0-9.9-2.5-14.8-7.4-19.8c-4.9-4.9-12.4-7.4-22.3-7.4c-7.4,0-14.8,2.5-19.8,4.9
					c-4.9,2.5-9.9,9.9-14.8,14.8c-2.5,7.4-4.9,14.8-4.9,22.3c0,9.9,2.5,14.8,7.4,19.8c4.9,4.9,12.4,7.4,22.3,7.4
					C-1963.8,1937.1-1956.4,1934.6-1951.4,1929.6z"/>
				<path d="M-1803,1865.3c4.9,4.9,7.4,9.9,7.4,19.8c0,2.5,0,4.9,0,9.9l-9.9,47h-7.4l9.9-47c0-2.5,0-4.9,0-7.4
					c0-7.4-2.5-12.4-4.9-14.8c-2.5-2.5-9.9-4.9-17.3-4.9c-9.9,0-17.3,2.5-24.7,7.4c-7.4,4.9-9.9,12.4-12.4,22.3l-9.9,44.5h-7.4
					l17.3-84.1h7.4l-2.5,14.8c4.9-4.9,9.9-9.9,14.8-12.4c4.9-2.5,12.4-4.9,19.8-4.9C-1815.4,1857.9-1807.9,1860.4-1803,1865.3z"/>
				<path d="M-1674.3,1865.3c4.9,4.9,7.4,9.9,7.4,19.8c0,2.5,0,4.9,0,9.9l-9.9,47h-7.4l9.9-47c0-2.5,0-4.9,0-7.4
					c0-7.4-2.5-12.4-4.9-14.8c-2.5-2.5-9.9-4.9-17.3-4.9c-9.9,0-17.3,2.5-24.7,7.4c-7.4,4.9-9.9,12.4-12.4,22.3l-9.9,44.5h-7.4
					l17.3-84.1h7.4l-2.5,14.8c4.9-4.9,9.9-9.9,14.8-12.4c4.9-2.5,12.4-4.9,19.8-4.9C-1686.7,1857.9-1679.3,1860.4-1674.3,1865.3z"/>
				<path d="M-1617.4,1902.4c0,2.5,0,4.9,0,4.9c0,9.9,2.5,14.8,7.4,19.8c4.9,4.9,12.4,7.4,22.3,7.4c4.9,0,12.4,0,14.8-2.5
					c4.9-2.5,9.9-4.9,12.4-7.4l2.5,4.9c-2.5,4.9-7.4,7.4-14.8,9.9c-4.9,2.5-12.4,2.5-19.8,2.5c-12.4,0-22.3-2.5-27.2-9.9
					s-9.9-14.8-9.9-24.7s2.5-17.3,4.9-24.7c2.5-7.4,9.9-12.4,17.3-17.3c7.4-4.9,14.8-7.4,22.3-7.4c9.9,0,19.8,2.5,24.7,9.9
					c7.4,4.9,9.9,14.8,9.9,24.7c0,2.5,0,4.9,0,9.9L-1617.4,1902.4L-1617.4,1902.4z M-1602.6,1875.2c-7.4,4.9-9.9,12.4-12.4,22.3
					h64.3c0,0,0-2.5,0-4.9c0-7.4-2.5-14.8-7.4-19.8c-4.9-4.9-12.4-7.4-19.8-7.4C-1587.7,1865.3-1597.6,1867.8-1602.6,1875.2z"/>
				<path d="M-1473.9,1862.8c4.9-2.5,12.4-4.9,19.8-4.9l-2.5,7.4h-2.5c-9.9,0-17.3,2.5-22.3,7.4c-4.9,4.9-9.9,14.8-12.4,24.7
					l-7.4,42.1h-7.4l17.3-84.1h7.4l-2.5,17.3C-1483.8,1870.3-1478.9,1865.3-1473.9,1862.8z"/>
			</g>
			<path d="M-1751,1123c0,17.3-14.8,32.2-32.2,32.2c-17.3,0-32.2-14.8-32.2-32.2c0-17.3,14.8-32.2,32.2-32.2
				C-1765.9,1093.3-1751,1105.7-1751,1123z"/>
			<path d="M-1751,2083c0,17.3-14.8,32.2-32.2,32.2c-17.3,0-32.2-14.8-32.2-32.2s14.8-32.2,32.2-32.2
				C-1765.9,2050.9-1751,2065.7-1751,2083z"/>
		</g>
	</g>
	<g>
		<path class="st4" d="M2826.4,1048.8c-309.3,14.8-618.6,29.7-925.4,47c27.2-19.8,52-44.5,71.8-76.7c24.7-39.6,24.7-86.6,7.4-126.2
			c9.9-2.5,22.3-4.9,32.2-7.4c153.4-32.2,121.2-287-37.1-277.1c-66.8,4.9-131.1,7.4-197.9,12.4c2.5-2.5,7.4-7.4,9.9-9.9
			c86.6-91.5,22.3-235.1-99-240c-66.8-2.5-133.6-2.5-200.4-2.5c-19.8-4.9-39.6-7.4-64.3-2.5c-7.4,0-12.4,2.5-19.8,2.5
			c-289.5,4.9-579,34.6-866,86.6c-118.8,22.3-126.2,175.7-54.4,242.5c-56.9,12.4-113.8,24.7-170.7,37.1
			c-79.2,17.3-108.9,94-96.5,160.8c-150.9,27.2-116.3,292,42.1,277.1c101.4-9.9,202.9-17.3,304.3-27.2c-94,19.8-188,37.1-282.1,56.9
			c-143.5,29.7-126.2,254.9,7.4,274.6c-56.9,12.4-113.8,24.7-170.7,37.1c-153.4,34.6-121.2,282.1,37.1,277.1
			c101.4-2.5,200.4-7.4,301.9-9.9c-29.7,7.4-56.9,12.4-86.6,19.8c-150.9,39.6-123.7,284.5,37.1,277.1
			c180.6-9.9,363.7-17.3,546.8-24.7c-173.2,37.1-346.4,76.7-517.1,126.2c-128.7,34.6-141,242.5,0,272.2
			c89.1,19.8,180.6,27.2,272.2,32.2c-47,84.1-12.4,207.8,116.3,205.4c66.8,0,133.6-2.5,200.4-2.5c0,0,0,0-2.5,2.5
			c-42.1,59.4-12.4,160.8,49.5,193c44.5,22.3,81.7,27.2,128.7,17.3c12.4-2.5,24.7-7.4,34.6-12.4c264.8-34.6,522.1-94,776.9-178.1
			c76.7-24.7,111.3-101.4,96.5-168.3c22.3-2.5,44.5-4.9,69.3-9.9c126.2-17.3,240-34.6,334-123.7c89.1-84.1,22.3-242.5-99-240
			c-123.7,2.5-247.4,4.9-371.1,7.4c240-32.2,480-79.2,707.7-170.7c138.6-56.9,133.6-279.6-37.1-277.1
			c-165.8,2.5-331.6,4.9-497.3,9.9c128.7-49.5,121.2-210.3,14.8-259.8c7.4,0,12.4-2.5,19.8-2.5c207.8-34.6,465.2-44.5,645.8-160.8
			C3009.5,1239.3,2972.4,1041.4,2826.4,1048.8z"/>
		<g>
			<path d="M1401.2,2815.4c-692.8,0-1254.5-561.7-1254.5-1254.5S708.4,306.5,1401.2,306.5S2655.7,868.2,2655.7,1561
				C2655.7,2251.3,2094,2815.4,1401.2,2815.4z M1401.2,331.2C723.3,331.2,174,883,174,1558.5s551.8,1227.3,1227.3,1227.3
				S2628.5,2234,2628.5,1558.5S2079.2,331.2,1401.2,331.2z"/>
		</g>
		<g class="st1">
			<g class="st3">
				<path d="M896.5,1620.4c4.9,9.9,7.4,19.8,7.4,32.2c0,12.4-2.5,24.7-4.9,37.1c-2.5,12.4-7.4,22.3-12.4,32.2
					c-9.9,19.8-22.3,32.2-37.1,39.6c-17.3,7.4-34.6,7.4-54.4,0c-7.4-2.5-14.8-7.4-19.8-12.4c-4.9-4.9-9.9-9.9-14.8-17.3
					c-4.9-7.4-7.4-12.4-9.9-17.3c-2.5-4.9-4.9-12.4-7.4-22.3c-2.5-9.9-2.5-17.3-4.9-22.3c-2.5-4.9-2.5-14.8-2.5-24.7
					c0-9.9,0-17.3,0-22.3s0-12.4,0-24.7s0-17.3,0-22.3c0-52,2.5-111.3,4.9-178.2c0-22.3,4.9-42.1,9.9-56.9
					c4.9-17.3,17.3-27.2,34.6-34.6c12.4-7.4,24.7-7.4,34.6-4.9c9.9,2.5,19.8,7.4,27.2,14.8s12.4,14.8,19.8,27.2
					c4.9,9.9,7.4,22.3,9.9,32.2c2.5,9.9,4.9,22.3,4.9,32.2c0,4.9-2.5,9.9-7.4,12.4c-4.9,2.5-9.9,2.5-14.8,2.5
					c-4.9-2.5-7.4-4.9-7.4-9.9c-4.9-27.2-9.9-44.5-14.8-54.4c-2.5-7.4-7.4-12.4-12.4-17.3c-4.9-4.9-9.9-7.4-17.3-7.4
					s-12.4,2.5-17.3,9.9c-4.9,4.9-7.4,12.4-9.9,22.3c-2.5,9.9-4.9,17.3-4.9,22.3c0,4.9,0,14.8,0,27.2c0,12.4,0,19.8,0,22.3
					c-2.5,64.3-2.5,106.4-2.5,126.2c0,4.9,0,14.8,0,24.7c0,9.9,0,22.3,0,32.2c0,9.9,0,17.3,2.5,24.7c2.5,34.6,9.9,59.4,22.3,74.2
					c14.8,14.8,27.2,19.8,37.1,17.3c12.4-4.9,22.3-14.8,29.7-29.7c14.8-32.2,17.3-54.4,9.9-69.3c-2.5-4.9-2.5-12.4,0-17.3
					c4.9-4.9,7.4-7.4,14.8-7.4C889.1,1612.9,894,1615.4,896.5,1620.4z"/>
				<path d="M975.7,1343.2c-4.9,0-9.9-2.5-12.4-7.4c-2.5-4.9-2.5-9.9,0-14.8l0,0c2.5-4.9,7.4-7.4,12.4-7.4c2.5,0,12.4,2.5,29.7,2.5
					c17.3,2.5,29.7,2.5,39.6,2.5c7.4,0,12.4,2.5,14.8,7.4c2.5,4.9,2.5,9.9,0,17.3c-2.5,4.9-7.4,9.9-14.8,9.9c-2.5,0-7.4,0-12.4,0
					c2.5,74.2,0,133.6-2.5,175.7c0,9.9,0,27.2-2.5,52c-2.5,24.7,0,42.1-2.5,54.4c0,4.9,0,9.9,0,17.3c0,7.4,0,12.4-2.5,17.3
					c0,4.9,0,9.9,0,17.3s0,12.4,0,17.3c0,4.9,0,12.4,2.5,17.3c4.9,0,9.9-2.5,14.8-2.5c7.4-2.5,12.4,0,14.8,2.5
					c2.5,2.5,4.9,9.9,4.9,17.3c-2.5,7.4-4.9,9.9-12.4,12.4c-14.8,4.9-37.1,4.9-66.8-2.5c-2.5,0-4.9-2.5-4.9-2.5
					c-2.5-2.5-2.5-2.5-4.9-4.9c-2.5-4.9-2.5-7.4,0-12.4c2.5-4.9,4.9-7.4,9.9-7.4c2.5,0,4.9-2.5,7.4-2.5h4.9
					c-2.5-12.4-2.5-39.6,0-79.2c0-12.4,0-32.2,2.5-56.9c2.5-24.7,2.5-44.5,2.5-56.9c0-17.3,2.5-34.6,2.5-56.9c0-22.3,0-44.5,0-64.3
					s0-39.6,2.5-56.9c-2.5,0-2.5,0-7.4,0c-2.5,0-4.9,0-4.9,0c-2.5,0-2.5,0-4.9-2.5c-2.5,0-2.5,0-4.9,0
					C980.6,1345.7,978.1,1345.7,975.7,1343.2L975.7,1343.2L975.7,1343.2z"/>
				<path d="M1225.6,1657.5c4.9,19.8,7.4,37.1,12.4,52c4.9,14.8,9.9,29.7,14.8,44.5c2.5,7.4,0,14.8-7.4,19.8
					c-7.4,4.9-14.8,2.5-19.8-2.5c-4.9-4.9-7.4-7.4-9.9-9.9c-4.9-4.9-4.9-12.4-2.5-19.8c-4.9-17.3-12.4-42.1-19.8-74.2
					c-7.4-32.2-12.4-54.4-14.8-64.3c-2.5-9.9-4.9-22.3-9.9-39.6c-4.9-17.3-7.4-32.2-9.9-39.6c0,2.5,0,4.9,0,7.4c0,2.5,0,4.9,0,7.4
					c0,2.5,0,4.9,0,7.4c0,22.3,0,54.4,0,96.5c0,42.1,2.5,76.7,0,96.5c0,7.4-2.5,12.4-7.4,14.8c-4.9,2.5-12.4,2.5-17.3,0
					c-4.9-2.5-7.4-7.4-7.4-14.8c0-19.8,0-54.4,0-101.4c0-47,0-81.7,0-101.4c2.5-84.1,4.9-146,7.4-188c-2.5-2.5-4.9-7.4-4.9-12.4
					c0-4.9,2.5-9.9,7.4-12.4c12.4-7.4,27.2-12.4,42.1-9.9c14.8,2.5,27.2,7.4,39.6,14.8c12.4,7.4,22.3,19.8,27.2,32.2
					c7.4,14.8,9.9,27.2,7.4,42.1c-2.5,19.8-9.9,34.6-22.3,44.5c-12.4,9.9-29.7,17.3-52,22.3l2.5,7.4c0,2.5,2.5,4.9,2.5,9.9
					c2.5,4.9,2.5,7.4,2.5,9.9c2.5,7.4,4.9,19.8,9.9,34.6l22.3,76.7C1218.1,1625.3,1223.1,1640.1,1225.6,1657.5z M1213.2,1417.5
					c4.9-12.4,4.9-22.3,2.5-34.6c-2.5-12.4-9.9-19.8-19.8-27.2c-9.9-7.4-22.3-9.9-32.2-9.9c0,27.2,0,59.4-2.5,96.5
					c2.5,0,4.9,0,7.4-2.5c4.9,0,7.4-2.5,9.9-2.5c2.5,0,4.9,0,7.4-2.5c2.5,0,7.4-2.5,9.9-2.5c2.5-2.5,4.9-2.5,7.4-4.9
					c2.5-2.5,4.9-2.5,7.4-4.9C1210.7,1422.4,1213.2,1419.9,1213.2,1417.5z"/>
				<path d="M1475.5,1620.4c4.9,9.9,7.4,19.8,7.4,32.2c0,12.4-2.5,24.7-4.9,37.1c-2.5,12.4-7.4,22.3-12.4,32.2
					c-9.9,19.8-22.3,32.2-37.1,39.6c-17.3,7.4-34.6,7.4-54.4,0c-7.4-2.5-14.8-7.4-19.8-12.4c-4.9-4.9-9.9-9.9-14.8-17.3
					c-4.9-7.4-7.4-12.4-9.9-17.3c-2.5-4.9-4.9-12.4-7.4-22.3s-2.5-17.3-4.9-22.3c-2.5-4.9-2.5-14.8-2.5-24.7c0-9.9,0-17.3,0-22.3
					s0-12.4,0-24.7s0-17.3,0-22.3c0-52,2.5-111.3,2.5-178.2c0-22.3,4.9-42.1,9.9-56.9c4.9-17.3,17.3-27.2,34.6-34.6
					c12.4-7.4,24.7-7.4,34.6-4.9c9.9,2.5,19.8,7.4,27.2,14.8c7.4,7.4,12.4,14.8,19.8,27.2c4.9,9.9,9.9,22.3,9.9,32.2
					c2.5,9.9,4.9,22.3,4.9,32.2c0,4.9-2.5,9.9-7.4,12.4c-4.9,2.5-9.9,2.5-14.8,2.5c-4.9-2.5-7.4-4.9-7.4-9.9
					c-4.9-27.2-9.9-44.5-14.8-54.4c-2.5-7.4-7.4-12.4-12.4-17.3c-4.9-4.9-9.9-7.4-17.3-7.4s-12.4,2.5-17.3,9.9
					c-4.9,4.9-9.9,12.4-9.9,22.3c-2.5,9.9-4.9,17.3-4.9,22.3c0,4.9,0,14.8,0,27.2c0,12.4,0,19.8,0,22.3
					c-2.5,64.3-2.5,106.4-2.5,126.2c0,4.9,0,14.8,0,24.7c0,9.9,0,22.3,0,32.2c0,9.9,0,17.3,2.5,24.7c2.5,34.6,9.9,59.4,22.3,74.2
					c14.8,14.8,27.2,19.8,37.1,17.3c12.4-4.9,22.3-14.8,29.7-29.7c14.8-32.2,17.3-54.4,9.9-69.3c-2.5-4.9-2.5-12.4,0-17.3
					c2.5-4.9,7.4-7.4,14.8-7.4C1468,1612.9,1473,1615.4,1475.5,1620.4z"/>
				<path d="M1557.1,1758.9c-4.9,0-9.9-2.5-12.4-4.9c-2.5-2.5-4.9-7.4-4.9-12.4c-2.5-59.4,0-128.7,4.9-210.3
					c0-14.8,2.5-34.6,2.5-61.9c2.5-27.2,2.5-52,2.5-74.2c2.5-22.3,2.5-42.1,2.5-61.9c0-2.5,0-4.9,0-4.9v-2.5c0-2.5,0-7.4,2.5-9.9
					c2.5-2.5,4.9-4.9,7.4-4.9c2.5,0,4.9,0,7.4,0c2.5,0,4.9,2.5,7.4,4.9c2.5,2.5,2.5,4.9,2.5,9.9c0,37.1,0,59.4,0,69.3
					c0,9.9,0,32.2-2.5,69.3c-2.5,37.1-2.5,59.4-2.5,69.3c-2.5,76.7-4.9,141-4.9,193c22.3,0,39.6,0,54.4-2.5c4.9,0,9.9,0,12.4,0
					c2.5,0,7.4,0,12.4,2.5c4.9,2.5,7.4,4.9,7.4,9.9c2.5,7.4,0,12.4-4.9,17.3c-4.9,4.9-12.4,4.9-17.3,2.5c-2.5,0-4.9,0-9.9,0
					c-2.5,0-7.4,0-9.9,2.5c-2.5,2.5-7.4,0-7.4,2.5C1599.2,1758.9,1581.9,1758.9,1557.1,1758.9z"/>
				<path d="M1747.6,1766.3c-7.4,0-12.4-2.5-17.3-2.5c-4.9-2.5-7.4-7.4-9.9-12.4c-2.5-4.9-2.5-9.9-2.5-14.8c0-4.9,0-12.4,0-19.8
					s0-12.4,0-14.8v-71.8c0-64.3,0-116.3,2.5-158.4c2.5-54.4,2.5-96.5,0-128.7c-2.5-2.5-2.5-4.9-2.5-7.4c0-2.5,0-4.9,0-9.9
					c0-4.9,2.5-7.4,4.9-9.9c2.5-2.5,7.4-4.9,9.9-4.9h2.5c4.9,0,17.3,0,32.2,0c14.8,0,24.7,0,32.2,0c19.8-2.5,29.7,4.9,32.2,17.3
					c0,4.9,0,9.9-4.9,12.4c-4.9,2.5-9.9,4.9-14.8,2.5h-2.5h-2.5h-2.5c-2.5,0-2.5,0-2.5,0c-2.5,0-4.9,0-7.4,0s-4.9,0-7.4,0
					c-7.4,0-19.8,0-37.1-2.5c2.5,32.2,4.9,71.8,2.5,116.3c4.9,0,9.9,0,14.8,2.5c4.9,2.5,9.9,0,14.8,2.5c4.9,2.5,9.9,0,14.8,2.5
					c4.9,2.5,9.9,0,14.8,2.5c7.4,0,12.4,2.5,14.8,9.9c2.5,4.9,2.5,12.4,0,17.3c-2.5,4.9-7.4,7.4-14.8,7.4h-2.5h-2.5l0,0
					c-17.3-2.5-32.2-4.9-49.5-7.4c-2.5,52-2.5,84.1-2.5,96.5c0,61.9,0,108.9,0,141c0,2.5,0,4.9,0,9.9h7.4c0,0,22.3,0,64.3,0
					c4.9,0,7.4,2.5,9.9,2.5c2.5,2.5,4.9,4.9,4.9,7.4s0,7.4,0,9.9c0,2.5-2.5,4.9-4.9,7.4c-2.5,2.5-4.9,2.5-9.9,2.5
					c-7.4,0-19.8,0-37.1,0C1767.4,1766.3,1755.1,1766.3,1747.6,1766.3z"/>
				<path d="M1975.3,1754c-14.8,2.5-29.7,0-44.5-7.4c-12.4-7.4-22.3-17.3-29.7-29.7c-4.9-12.4-7.4-29.7-7.4-47c0-2.5,0-4.9,0-9.9
					c0-2.5,0-7.4,0-9.9c0-2.5,0-4.9,0-9.9s-2.5-4.9-2.5-7.4c-2.5-4.9-2.5-9.9,0-17.3s7.4-7.4,14.8-7.4s9.9,2.5,14.8,7.4
					c4.9,9.9,7.4,24.7,7.4,47c0,22.3,2.5,37.1,7.4,44.5c4.9,7.4,12.4,9.9,19.8,12.4c7.4,2.5,14.8,0,22.3-4.9
					c7.4-7.4,12.4-17.3,14.8-29.7c4.9-29.7,2.5-59.4-2.5-91.5c-7.4-32.2-19.8-61.9-34.6-89.1c-2.5-4.9-7.4-9.9-9.9-17.3
					c-4.9-7.4-7.4-14.8-12.4-19.8c-2.5-4.9-7.4-12.4-9.9-17.3c-2.5-7.4-7.4-12.4-9.9-19.8c-2.5-7.4-4.9-14.8-4.9-19.8
					c-4.9-34.6,0-64.3,17.3-84.1c7.4-12.4,19.8-17.3,32.2-17.3c12.4,0,24.7,2.5,34.6,12.4c4.9,4.9,9.9,9.9,12.4,17.3
					s4.9,12.4,7.4,17.3c2.5,4.9,2.5,12.4,4.9,19.8c2.5,7.4,2.5,14.8,4.9,19.8c2.5,4.9,0,9.9-2.5,12.4s-7.4,4.9-12.4,2.5
					c-4.9-2.5-7.4-4.9-9.9-9.9c-2.5-4.9-4.9-9.9-4.9-19.8c-2.5-9.9-2.5-14.8-4.9-19.8c-2.5-7.4-7.4-12.4-14.8-19.8
					c-7.4-4.9-14.8-4.9-19.8,0c-7.4,7.4-12.4,17.3-12.4,29.7c-2.5,12.4-2.5,22.3,2.5,34.6c4.9,12.4,4.9,22.3,12.4,29.7
					c4.9,7.4,9.9,19.8,17.3,32.2c7.4,12.4,14.8,24.7,19.8,34.6c4.9,9.9,9.9,22.3,14.8,32.2c9.9,27.2,17.3,56.9,22.3,91.5
					c2.5,9.9,2.5,22.3,2.5,37.1c0,14.8-2.5,27.2-4.9,42.1c-2.5,14.8-7.4,24.7-17.3,34.6C2000,1746.5,1990.1,1751.5,1975.3,1754z"/>
			</g>
			<g class="st3">
				<path d="M1139,1892.5c2.5,4.9,4.9,9.9,4.9,14.8c0,9.9-4.9,19.8-12.4,24.7c-7.4,4.9-19.8,9.9-34.6,9.9h-49.5l22.3-111.3h47
					c9.9,0,19.8,2.5,24.7,4.9c4.9,4.9,9.9,9.9,9.9,17.3s-2.5,14.8-7.4,19.8c-4.9,4.9-9.9,9.9-17.3,9.9
					C1131.5,1887.6,1136.5,1890.1,1139,1892.5z M1126.6,1929.6c7.4-4.9,9.9-12.4,9.9-19.8c0-7.4-2.5-12.4-7.4-14.8
					c-4.9-2.5-12.4-4.9-22.3-4.9h-42.1l-9.9,47h42.1C1111.7,1934.6,1121.6,1932.1,1126.6,1929.6z M1067.2,1882.6h37.1
					c9.9,0,19.8-2.5,24.7-7.4c7.4-4.9,9.9-12.4,9.9-19.8c0-4.9-2.5-9.9-7.4-12.4c-4.9-2.5-9.9-4.9-19.8-4.9h-34.6L1067.2,1882.6z"/>
				<path d="M1275,1860.4l-17.3,84.1h-7.4l2.5-17.3c-4.9,4.9-9.9,9.9-14.8,12.4c-4.9,2.5-12.4,4.9-19.8,4.9
					c-9.9,0-19.8-2.5-27.2-9.9c-7.4-4.9-9.9-14.8-9.9-24.7c0-9.9,2.5-17.3,4.9-24.7c4.9-7.4,9.9-14.8,17.3-17.3
					c7.4-2.5,14.8-7.4,24.7-7.4s14.8,2.5,22.3,4.9c7.4,2.5,9.9,9.9,12.4,14.8l4.9-19.8H1275L1275,1860.4z M1242.9,1929.6
					c4.9-2.5,9.9-9.9,14.8-14.8c2.5-7.4,4.9-14.8,4.9-22.3c0-9.9-2.5-14.8-7.4-19.8c-4.9-4.9-12.4-7.4-22.3-7.4
					c-7.4,0-14.8,2.5-19.8,4.9c-4.9,2.5-9.9,9.9-14.8,14.8c-2.5,7.4-4.9,14.8-4.9,22.3c0,9.9,2.5,14.8,7.4,19.8
					c4.9,4.9,12.4,7.4,22.3,7.4C1228,1937.1,1235.5,1934.6,1242.9,1929.6z"/>
				<path d="M1391.3,1865.3c4.9,4.9,7.4,9.9,7.4,19.8c0,2.5,0,4.9,0,9.9l-9.9,47h-7.4l9.9-47c0-2.5,0-4.9,0-7.4
					c0-7.4-2.5-12.4-4.9-14.8c-2.5-2.5-9.9-4.9-17.3-4.9c-9.9,0-17.3,2.5-24.7,7.4c-7.4,4.9-9.9,12.4-12.4,22.3l-9.9,44.5h-7.4
					l17.3-84.1h7.4l-2.5,14.8c4.9-4.9,9.9-9.9,14.8-12.4c4.9-2.5,12.4-4.9,19.8-4.9C1379,1857.9,1386.4,1860.4,1391.3,1865.3z"/>
				<path d="M1520,1865.3c4.9,4.9,7.4,9.9,7.4,19.8c0,2.5,0,4.9,0,9.9l-9.9,47h-7.4l9.9-47c0-2.5,0-4.9,0-7.4
					c0-7.4-2.5-12.4-4.9-14.8c-2.5-2.5-9.9-4.9-17.3-4.9c-9.9,0-17.3,2.5-24.7,7.4c-7.4,4.9-9.9,12.4-12.4,22.3l-9.9,44.5h-7.4
					l17.3-84.1h7.4l-2.5,14.8c4.9-4.9,9.9-9.9,14.8-12.4c4.9-2.5,12.4-4.9,19.8-4.9C1507.6,1857.9,1515.1,1860.4,1520,1865.3z"/>
				<path d="M1576.9,1902.4c0,2.5,0,4.9,0,4.9c0,9.9,2.5,14.8,7.4,19.8c4.9,4.9,12.4,7.4,22.3,7.4c4.9,0,9.9,0,14.8-2.5
					c4.9-2.5,9.9-4.9,12.4-7.4l2.5,4.9c-2.5,4.9-7.4,7.4-14.8,9.9c-4.9,2.5-12.4,2.5-19.8,2.5c-12.4,0-22.3-2.5-27.2-9.9
					c-7.4-4.9-9.9-14.8-9.9-24.7s2.5-17.3,4.9-24.7c2.5-7.4,9.9-12.4,17.3-17.3c7.4-4.9,14.8-7.4,22.3-7.4c9.9,0,19.8,2.5,24.7,9.9
					c7.4,4.9,9.9,14.8,9.9,24.7c0,2.5,0,4.9,0,9.9L1576.9,1902.4L1576.9,1902.4z M1589.3,1875.2c-7.4,4.9-9.9,12.4-12.4,22.3h64.3
					c0,0,0-2.5,0-4.9c0-7.4-2.5-14.8-7.4-19.8c-4.9-4.9-12.4-7.4-19.8-7.4C1604.1,1865.3,1596.7,1867.8,1589.3,1875.2z"/>
				<path d="M1720.4,1862.8c4.9-2.5,12.4-4.9,22.3-4.9l-2.5,7.4h-2.5c-9.9,0-17.3,2.5-22.3,7.4c-4.9,4.9-9.9,14.8-12.4,24.7
					l-9.9,42.1h-7.4l17.3-84.1h7.4l-2.5,17.3C1710.5,1870.3,1715.5,1865.3,1720.4,1862.8z"/>
			</g>
			<path class="st3" d="M1443.3,1123c0,17.3-14.8,32.2-32.2,32.2s-32.2-14.8-32.2-32.2c0-17.3,14.8-32.2,32.2-32.2
				C1428.5,1093.3,1443.3,1105.7,1443.3,1123z"/>
			<path class="st3" d="M1443.3,2083c0,17.3-14.8,32.2-32.2,32.2s-32.2-14.8-32.2-32.2s14.8-32.2,32.2-32.2
				C1428.5,2050.9,1443.3,2065.7,1443.3,2083z"/>
		</g>
	</g>
	<g class="st1">
		<path class="st5" d="M-689.6,4208.5c-61.9-66.8-193-61.9-242.5,44.5c19.8-89.1,42.1-178.1,64.3-269.7
			c34.6-146-123.7-215.3-217.7-146c-52-17.3-113.8-9.9-155.9,32.2c-19.8-14.8-42.1-24.7-64.3-29.7c24.7-116.3,44.5-235.1,54.4-351.4
			c12.4-138.6-202.9-195.5-262.3-71.8c-17.3,34.6-34.6,71.8-52,106.4c-54.4,2.5-106.4,32.2-131.1,96.5
			c-34.6,94-69.3,188-103.9,282.1c9.9-49.5,19.8-101.4,29.7-150.9c14.8-76.7-19.8-131.1-69.3-155.9c4.9-22.3,12.4-44.5,17.3-66.8
			c7.4-29.7,4.9-59.4-7.4-86.6c-29.7-108.9-188-163.3-257.3-39.6c-14.8,27.2-29.7,56.9-47,84.1c4.9-126.2-207.8-202.9-267.2-69.3
			c-9.9,22.3-19.8,44.5-29.7,66.8c-44.5-2.5-86.6,19.8-113.8,71.8c-173.2,336.5-301.9,690.3-381,1059c-7.4,39.6,2.5,76.7,22.3,106.4
			c-54.4,155.9-108.9,314.2-158.4,472.6c-47,150.9,180.6,249.9,257.3,108.9c44.5-79.2,86.6-158.4,128.7-237.5
			c0,22.3,2.5,42.1,4.9,64.3c4.9,39.6,32.2,69.3,64.3,84.1c-44.5,143.5-89.1,289.5-131.1,433c-37.1,131.1,103.9,205.4,197.9,160.8
			c9.9,136.1,222.7,173.2,277.1,22.3c12.4-29.7,22.3-61.9,34.6-91.5c29.7,22.3,69.3,32.2,108.9,27.2c0,2.5-2.5,7.4-2.5,9.9
			c-29.7,101.4,47,168.3,126.2,170.7c32.2,123.7,217.7,150.9,269.7,4.9c47-133.6,94-267.2,143.5-398.4c12.4,7.4,27.2,14.8,39.6,17.3
			c-27.2,113.8-54.4,227.6-81.7,341.5c-44.5,180.6,205.4,237.5,272.2,74.2c32.2-76.7,61.9-150.9,94-227.6
			c22.3,136.1,232.6,183.1,272.2,22.3c34.6-133.6,69.3-264.8,103.9-398.4c9.9,22.3,24.7,42.1,47,59.4c81.7,66.8,202.9,47,235.1-61.9
			c99-336.5,131.1-687.9,91.5-1036.7C-508.9,4262.9-607.9,4178.8-689.6,4208.5z"/>
		<g class="st3">
			<path d="M-1810.4,5918.2c-692.8,0-1254.5-561.7-1254.5-1254.5s561.7-1254.5,1254.5-1254.5s1254.5,561.7,1254.5,1254.5
				C-555.9,5354.1-1120.1,5918.2-1810.4,5918.2z M-1810.4,3434c-678,0-1227.3,551.8-1227.3,1227.3s551.8,1227.3,1227.3,1227.3
				s1227.3-551.8,1227.3-1227.3S-1134.9,3434-1810.4,3434z"/>
		</g>
		<g class="st3">
			<g>
				<path d="M-2295.4,4725.6c4.9,9.9,7.4,19.8,7.4,32.2s-2.5,24.7-4.9,37.1c-2.5,12.4-7.4,22.3-12.4,32.2
					c-9.9,19.8-22.3,32.2-37.1,39.6c-17.3,7.4-34.6,7.4-54.4,0c-7.4-2.5-14.8-7.4-19.8-12.4c-4.9-4.9-9.9-9.9-14.8-17.3
					c-4.9-7.4-7.4-12.4-9.9-17.3s-4.9-12.4-7.4-22.3s-2.5-17.3-4.9-22.3c-2.5-4.9-2.5-14.8-2.5-24.7s0-17.3,0-22.3
					c0-4.9,0-12.4,0-24.7s0-17.3,0-22.3c0-52,2.5-111.3,4.9-178.2c0-22.3,4.9-42.1,9.9-56.9c4.9-17.3,17.3-27.2,34.6-34.6
					c12.4-7.4,24.7-7.4,34.6-4.9s19.8,7.4,27.2,14.8c7.4,7.4,12.4,14.8,17.3,27.2c4.9,12.4,7.4,22.3,12.4,32.2
					c2.5,9.9,4.9,22.3,4.9,32.2c0,4.9-2.5,9.9-7.4,12.4c-4.9,2.5-9.9,2.5-14.8,2.5c-4.9-2.5-7.4-4.9-7.4-9.9
					c-4.9-27.2-9.9-44.5-14.8-54.4c-2.5-7.4-7.4-12.4-12.4-17.3c-4.9-4.9-9.9-7.4-17.3-7.4c-7.4,0-12.4,2.5-19.8,9.9
					c-4.9,4.9-9.9,12.4-12.4,22.3c-2.5,9.9-4.9,17.3-4.9,22.3c0,4.9,0,14.8,0,27.2s0,19.8,0,22.3c-2.5,64.3-2.5,106.4-2.5,126.2
					c0,4.9,0,14.8,0,24.7c0,9.9,0,22.3,0,32.2s0,17.3,2.5,24.7c2.5,37.1,9.9,59.4,22.3,74.2c14.8,14.8,27.2,19.8,37.1,17.3
					c12.4-4.9,22.3-14.8,29.7-29.7c14.8-32.2,17.3-54.4,9.9-69.3c-4.9-4.9-4.9-12.4,0-17.3c4.9-4.9,7.4-7.4,14.8-7.4
					C-2305.3,4715.7-2300.3,4720.7-2295.4,4725.6z"/>
				<path d="M-2216.2,4448.5c-4.9,0-9.9-2.5-12.4-7.4c-2.5-4.9-2.5-9.9,0-14.8l0,0c2.5-4.9,7.4-7.4,12.4-7.4
					c2.5,0,12.4,2.5,29.7,2.5s29.7,2.5,39.6,2.5c7.4,0,12.4,2.5,14.8,7.4c2.5,4.9,2.5,9.9,0,17.3c-2.5,7.4-7.4,9.9-14.8,9.9
					c-4.9,0-7.4,0-12.4,0c2.5,74.2,0,133.6,0,175.7c0,9.9,0,27.2-2.5,52c-2.5,24.7,0,42.1-2.5,54.4c0,4.9,0,9.9,0,17.3
					c0,7.4,0,12.4-2.5,17.3c0,4.9,0,9.9,0,17.3s0,12.4,0,17.3s0,12.4,2.5,17.3c4.9,0,9.9-2.5,14.8-2.5c7.4-2.5,12.4,0,17.3,2.5
					c4.9,2.5,4.9,9.9,4.9,17.3c0,7.4-4.9,9.9-12.4,12.4c-14.8,4.9-37.1,4.9-66.8,0c-2.5,0-4.9-2.5-4.9-2.5c-2.5,0-4.9-2.5-4.9-4.9
					c-2.5-4.9-2.5-7.4,0-12.4c2.5-4.9,4.9-7.4,7.4-7.4s4.9,0,7.4,0h4.9c-2.5-12.4-2.5-39.6,0-79.2c0-12.4,0-32.2,2.5-56.9
					c2.5-24.7,2.5-44.5,2.5-56.9c0-17.3,2.5-34.6,2.5-56.9s0-44.5,0-64.3c0-22.3,0-39.6,2.5-56.9c-2.5,0-4.9,0-7.4,0
					c-2.5,0-4.9,0-4.9,0c-2.5,0-2.5,0-4.9-2.5c-2.5-2.5-2.5,0-4.9,0C-2213.7,4451-2216.2,4451-2216.2,4448.5L-2216.2,4448.5
					L-2216.2,4448.5z"/>
				<path d="M-1966.3,4762.7c4.9,19.8,7.4,37.1,12.4,52c4.9,14.8,9.9,29.7,14.8,44.5c2.5,7.4,0,14.8-7.4,19.8
					c-7.4,4.9-14.8,2.5-19.8-2.5c-4.9-4.9-7.4-7.4-9.9-9.9c-4.9-4.9-4.9-12.4-2.5-19.8c-4.9-17.3-12.4-42.1-19.8-74.2
					c-7.4-32.2-12.4-54.4-14.8-64.3c-2.5-9.9-4.9-22.3-9.9-39.6s-7.4-32.2-9.9-39.6c0,2.5,0,4.9,0,7.4c0,2.5,0,4.9,0,7.4
					s0,4.9,0,7.4c0,22.3,0,54.4,0,96.5c0,42.1,2.5,76.7,0,96.5c0,7.4-2.5,12.4-7.4,14.8s-12.4,2.5-17.3,0c-4.9-2.5-7.4-7.4-7.4-14.8
					c0-19.8,0-54.4,0-101.4c0-47,0-81.7,0-101.4c4.9-84.1,4.9-146,7.4-188c-2.5-2.5-4.9-7.4-4.9-12.4c0-4.9,2.5-9.9,7.4-12.4
					c12.4-7.4,27.2-12.4,42.1-9.9c14.8,2.5,27.2,7.4,39.6,14.8c12.4,7.4,22.3,19.8,27.2,32.2c4.9,12.4,9.9,27.2,7.4,42.1
					c-2.5,19.8-9.9,34.6-22.3,44.5c-12.4,9.9-29.7,17.3-52,22.3l2.5,7.4c0,2.5,2.5,4.9,2.5,9.9c0,4.9,2.5,7.4,2.5,9.9
					c2.5,7.4,4.9,19.8,9.9,34.6l22.3,76.7C-1973.7,4728.1-1971.2,4742.9-1966.3,4762.7z M-1981.1,4522.7c4.9-12.4,4.9-22.3,2.5-34.6
					c-2.5-12.4-9.9-19.8-19.8-27.2c-9.9-7.4-22.3-9.9-32.2-9.9c0,27.2,0,59.4-2.5,96.5c2.5,0,4.9,0,7.4-2.5c2.5-2.5,7.4-2.5,9.9-2.5
					c2.5,0,4.9,0,7.4-2.5c2.5,0,7.4-2.5,9.9-2.5c2.5,0,4.9-2.5,7.4-4.9c2.5-2.5,4.9-2.5,7.4-4.9
					C-1983.6,4527.7-1981.1,4525.2-1981.1,4522.7z"/>
				<path d="M-1716.4,4725.6c4.9,9.9,7.4,19.8,7.4,32.2s-2.5,24.7-4.9,37.1c-2.5,12.4-7.4,22.3-12.4,32.2
					c-9.9,19.8-22.3,32.2-37.1,39.6c-17.3,7.4-34.6,7.4-54.4,0c-7.4-2.5-14.8-7.4-19.8-12.4c-4.9-4.9-12.4-9.9-14.8-17.3
					c-2.5-7.4-7.4-12.4-9.9-17.3c-2.5-4.9-4.9-12.4-7.4-22.3c-2.5-9.9-2.5-17.3-4.9-22.3c-2.5-4.9-2.5-14.8-2.5-24.7s0-17.3,0-22.3
					c0-4.9,0-12.4,0-24.7s0-17.3,0-22.3c0-52,0-111.3,2.5-178.2c0-22.3,4.9-42.1,9.9-56.9c4.9-17.3,17.3-27.2,34.6-34.6
					c12.4-7.4,24.7-7.4,34.6-4.9s19.8,7.4,27.2,14.8c7.4,7.4,12.4,14.8,17.3,27.2s9.9,22.3,12.4,32.2c2.5,9.9,4.9,22.3,4.9,32.2
					c0,4.9-2.5,9.9-7.4,12.4c-4.9,2.5-9.9,2.5-14.8,2.5c-4.9-2.5-7.4-4.9-7.4-9.9c-4.9-27.2-9.9-44.5-14.8-54.4
					c-2.5-7.4-7.4-12.4-12.4-17.3c-4.9-4.9-9.9-7.4-17.3-7.4s-12.4,2.5-19.8,9.9c-4.9,4.9-9.9,12.4-12.4,22.3
					c-2.5,9.9-4.9,17.3-4.9,22.3c0,4.9,0,14.8,0,27.2s0,19.8,0,22.3c-2.5,64.3-2.5,106.4-2.5,126.2c0,4.9,0,14.8,0,24.7
					c0,9.9,0,22.3,0,32.2s0,17.3,0,24.7c2.5,37.1,9.9,59.4,22.3,74.2c14.8,14.8,27.2,19.8,37.1,17.3c12.4-4.9,22.3-14.8,29.7-29.7
					c14.8-32.2,17.3-54.4,9.9-69.3c-2.5-4.9-2.5-12.4,0-17.3c2.5-4.9,7.4-7.4,14.8-7.4C-1726.3,4715.7-1721.3,4720.7-1716.4,4725.6z
					"/>
				<path d="M-1634.7,4864.2c-4.9,0-9.9-2.5-12.4-4.9c-2.5-2.5-4.9-7.4-4.9-12.4c0-59.4,0-128.7,4.9-210.3c0-14.8,2.5-34.6,2.5-61.9
					c0-27.2,2.5-52,2.5-74.2c0-22.3,2.5-42.1,2.5-61.9c0-2.5,0-4.9,0-4.9v-2.5c0-2.5,0-7.4,2.5-9.9c2.5-2.5,4.9-4.9,7.4-4.9
					s4.9,0,7.4,0c2.5,0,4.9,2.5,7.4,4.9s2.5,4.9,2.5,9.9c0,37.1,0,59.4,0,69.3s0,32.2-2.5,69.3c-2.5,37.1-2.5,59.4-2.5,69.3
					c-2.5,76.7-4.9,141-4.9,193c22.3,0,39.6,0,54.4,0c4.9,0,9.9,0,12.4,0s7.4,0,12.4,2.5c4.9,2.5,7.4,4.9,7.4,9.9
					c2.5,7.4,0,12.4-4.9,17.3s-12.4,4.9-17.3,2.5c-2.5,0-4.9,0-9.9,0c-2.5,0-7.4,0-9.9,0c-2.5,0-7.4,0-7.4,2.5
					C-1592.7,4864.2-1612.5,4864.2-1634.7,4864.2z"/>
				<path d="M-1444.2,4869.1c-7.4,0-12.4,0-17.3-2.5c-4.9-2.5-7.4-7.4-9.9-12.4c0-4.9-2.5-9.9-2.5-14.8s0-12.4,0-19.8
					c0-7.4,0-12.4,0-14.8v-74.2c0-64.3,0-116.3,2.5-158.4c2.5-54.4,2.5-96.5,0-128.7c0-2.5-2.5-4.9-2.5-7.4c0-2.5,0-4.9,0-9.9
					c0-4.9,2.5-7.4,4.9-9.9c2.5-2.5,7.4-4.9,12.4-4.9h2.5c4.9,0,17.3,0,32.2,0s24.7,0,32.2,0c19.8-2.5,29.7,4.9,32.2,17.3
					c0,4.9,0,9.9-4.9,12.4c-4.9,2.5-9.9,4.9-14.8,2.5h-2.5l0,0h-2.5c-2.5,0-2.5,0-2.5,0c-2.5,0-4.9,0-7.4,0s-4.9,0-7.4,0
					c-7.4,0-19.8,0-37.1-2.5c4.9,32.2,4.9,71.8,4.9,116.3c4.9,0,7.4,0,12.4,0s9.9,0,12.4,0c2.5,0,7.4,0,12.4,0s9.9,0,12.4,0
					c7.4,0,12.4,2.5,14.8,9.9c2.5,4.9,2.5,12.4,0,17.3c-2.5,4.9-7.4,7.4-14.8,7.4c0,0,0,0-2.5,0c-2.5,0-2.5,0-2.5,0l0,0
					c-17.3-2.5-32.2-4.9-49.5-7.4c-2.5,52-2.5,84.1-2.5,99c0,61.9,0,108.9,0,141c0,2.5,0,4.9,0,9.9h7.4c0,0,22.3,0,64.3,0
					c4.9,0,7.4,0,9.9,2.5c2.5,2.5,4.9,4.9,4.9,7.4c0,2.5,0,7.4,0,9.9s-2.5,4.9-4.9,7.4s-4.9,2.5-9.9,2.5c-7.4,0-19.8,0-37.1,0
					C-1424.4,4871.6-1436.8,4871.6-1444.2,4869.1z"/>
				<path d="M-1216.6,4859.2c-14.8,2.5-29.7,0-44.5-7.4c-14.8-7.4-22.3-17.3-29.7-29.7c-4.9-12.4-7.4-29.7-7.4-49.5
					c0-2.5,0-4.9,0-9.9c0-4.9,0-7.4,0-9.9c0-2.5,0-4.9,0-9.9c0-2.5-2.5-4.9-2.5-7.4c-4.9-4.9-4.9-12.4,0-17.3
					c4.9-4.9,7.4-7.4,14.8-7.4c4.9,0,9.9,2.5,14.8,7.4c4.9,9.9,7.4,24.7,7.4,47s2.5,37.1,7.4,44.5c4.9,7.4,12.4,9.9,19.8,12.4
					c7.4,2.5,14.8,0,22.3-4.9c7.4-7.4,12.4-17.3,14.8-29.7c4.9-29.7,4.9-59.4-4.9-91.5c-7.4-32.2-19.8-61.9-34.6-89.1
					c-2.5-4.9-7.4-9.9-9.9-17.3s-7.4-14.8-12.4-19.8c-4.9-4.9-7.4-12.4-9.9-17.3c-4.9-7.4-7.4-12.4-9.9-19.8
					c-2.5-7.4-4.9-14.8-4.9-19.8c-4.9-34.6,0-64.3,17.3-84.1c7.4-12.4,19.8-17.3,32.2-17.3s24.7,2.5,34.6,12.4
					c4.9,4.9,9.9,9.9,12.4,17.3c2.5,7.4,4.9,12.4,7.4,17.3c2.5,4.9,2.5,12.4,4.9,19.8c2.5,7.4,2.5,14.8,4.9,19.8
					c2.5,4.9,0,9.9-2.5,12.4c-4.9,2.5-7.4,4.9-12.4,2.5c-4.9,0-7.4-4.9-9.9-9.9c-2.5-4.9-4.9-12.4-4.9-19.8c0-7.4-2.5-14.8-4.9-19.8
					c-2.5-7.4-7.4-12.4-14.8-19.8c-7.4-4.9-12.4-4.9-19.8,0c-7.4,7.4-12.4,17.3-12.4,29.7c-2.5,12.4,0,22.3,0,34.6
					s4.9,22.3,12.4,29.7c4.9,7.4,9.9,19.8,17.3,32.2c7.4,12.4,14.8,24.7,19.8,37.1s12.4,22.3,14.8,32.2
					c9.9,27.2,17.3,56.9,22.3,91.5c2.5,9.9,2.5,22.3,2.5,37.1c0,14.8-2.5,27.2-4.9,42.1c-2.5,14.8-7.4,24.7-17.3,34.6
					C-1194.3,4851.8-1204.2,4856.7-1216.6,4859.2z"/>
			</g>
			<g>
				<path d="M-2052.9,4997.8c2.5,4.9,4.9,9.9,4.9,14.8c0,12.4-4.9,19.8-12.4,24.7c-7.4,4.9-19.8,9.9-34.6,9.9h-49.5l22.3-111.3h47
					c9.9,0,19.8,2.5,24.7,4.9c4.9,4.9,9.9,9.9,9.9,17.3c0,7.4-2.5,14.8-7.4,19.8c-4.9,4.9-9.9,9.9-17.3,12.4
					C-2062.8,4992.8-2057.8,4995.3-2052.9,4997.8z M-2065.3,5032.4c7.4-4.9,9.9-12.4,9.9-19.8c0-7.4-2.5-12.4-7.4-14.8
					c-4.9-2.5-12.4-4.9-22.3-4.9h-42.1l-9.9,47h42.1C-2082.6,5039.8-2072.7,5037.4-2065.3,5032.4z M-2124.6,4987.9h37.1
					c9.9,0,19.8-2.5,24.7-7.4c7.4-4.9,9.9-12.4,9.9-19.8c0-4.9-2.5-9.9-7.4-12.4c-4.9-2.5-9.9-4.9-19.8-4.9h-37.1L-2124.6,4987.9z"
					/>
				<path d="M-1916.8,4965.6l-17.3,84.1h-7.4l2.5-17.3c-4.9,4.9-9.9,9.9-14.8,12.4c-4.9,2.5-12.4,4.9-19.8,4.9
					c-9.9,0-19.8-2.5-27.2-9.9c-7.4-7.4-9.9-14.8-9.9-24.7s2.5-17.3,4.9-24.7c4.9-7.4,9.9-12.4,17.3-17.3c7.4-4.9,14.8-7.4,24.7-7.4
					s14.8,2.5,22.3,4.9c4.9,2.5,9.9,9.9,12.4,14.8l4.9-19.8L-1916.8,4965.6L-1916.8,4965.6z M-1951.4,5034.9
					c4.9-2.5,9.9-9.9,14.8-14.8c2.5-7.4,4.9-12.4,4.9-22.3c0-9.9-2.5-14.8-7.4-19.8c-4.9-4.9-12.4-7.4-22.3-7.4
					c-7.4,0-14.8,2.5-19.8,4.9s-9.9,9.9-14.8,14.8c-2.5,7.4-4.9,12.4-4.9,22.3c0,9.9,2.5,14.8,7.4,19.8c4.9,4.9,12.4,7.4,22.3,7.4
					C-1963.8,5039.8-1956.4,5039.8-1951.4,5034.9z"/>
				<path d="M-1803,4970.6c4.9,4.9,7.4,12.4,7.4,19.8c0,2.5,0,4.9,0,9.9l-9.9,47h-7.4l9.9-47c0-2.5,0-4.9,0-7.4
					c0-7.4-2.5-12.4-4.9-14.8c-4.9-2.5-9.9-4.9-17.3-4.9c-9.9,0-17.3,2.5-24.7,7.4c-7.4,4.9-9.9,12.4-12.4,22.3l-9.9,44.5h-7.4
					l17.3-84.1h7.4l-2.5,14.8c4.9-4.9,9.9-9.9,14.8-12.4s12.4-4.9,19.8-4.9C-1815.4,4963.1-1807.9,4965.6-1803,4970.6z"/>
				<path d="M-1674.3,4970.6c4.9,4.9,7.4,12.4,7.4,19.8c0,2.5,0,4.9,0,9.9l-9.9,47h-7.4l9.9-47c0-2.5,0-4.9,0-7.4
					c0-7.4-2.5-12.4-4.9-14.8c-4.9-2.5-9.9-4.9-17.3-4.9c-9.9,0-17.3,2.5-24.7,7.4c-7.4,4.9-9.9,12.4-12.4,22.3l-9.9,44.5h-7.4
					l17.3-84.1h7.4l-2.5,14.8c4.9-4.9,9.9-9.9,14.8-12.4c4.9-2.5,12.4-4.9,19.8-4.9C-1686.7,4963.1-1679.3,4965.6-1674.3,4970.6z"/>
				<path d="M-1617.4,5007.7c0,2.5,0,4.9,0,4.9c0,9.9,2.5,14.8,7.4,19.8c4.9,4.9,12.4,7.4,22.3,7.4c4.9,0,12.4,0,14.8-2.5
					c4.9-2.5,9.9-4.9,12.4-7.4l2.5,4.9c-2.5,4.9-7.4,7.4-14.8,9.9c-4.9,2.5-12.4,2.5-19.8,2.5c-12.4,0-22.3-2.5-27.2-9.9
					c-4.9-7.4-9.9-14.8-9.9-24.7s2.5-17.3,4.9-24.7c2.5-7.4,9.9-12.4,17.3-17.3c7.4-4.9,14.8-7.4,22.3-7.4c9.9,0,19.8,2.5,24.7,9.9
					c7.4,4.9,9.9,14.8,9.9,24.7c0,2.5,0,4.9,0,9.9H-1617.4L-1617.4,5007.7z M-1602.6,4978c-7.4,4.9-9.9,12.4-12.4,22.3h64.3
					c0,0,0-2.5,0-4.9c0-7.4-2.5-14.8-7.4-19.8c-4.9-4.9-12.4-7.4-19.8-7.4C-1587.7,4970.6-1597.6,4973-1602.6,4978z"/>
				<path d="M-1473.9,4968.1c4.9-2.5,12.4-4.9,19.8-4.9l-2.5,7.4h-2.5c-9.9,0-17.3,2.5-22.3,7.4c-4.9,4.9-9.9,14.8-12.4,24.7
					l-7.4,42.1h-7.4l17.3-84.1h7.4l-2.5,17.3C-1483.8,4975.5-1478.9,4970.6-1473.9,4968.1z"/>
			</g>
			<path d="M-1751,4228.3c0,17.3-14.8,32.2-32.2,32.2c-17.3,0-32.2-14.8-32.2-32.2c0-17.3,14.8-32.2,32.2-32.2
				C-1765.9,4196.1-1751,4211-1751,4228.3z"/>
			<path d="M-1751,5188.3c0,17.3-14.8,32.2-32.2,32.2c-17.3,0-32.2-14.8-32.2-32.2c0-17.3,14.8-32.2,32.2-32.2
				C-1765.9,5156.1-1751,5171-1751,5188.3z"/>
		</g>
	</g>
	<g class="st1">
		<path class="st6" d="M2695.3,4463.3c-71.8,32.2-141,66.8-210.3,99c17.3-29.7,32.2-59.4,42.1-94c27.2-86.6-52-175.7-136.1-180.6
			c0-4.9-2.5-7.4-2.5-12.4c128.7-71.8,254.9-150.9,353.8-262.3c108.9-121.2-27.2-292-170.7-220.2c-195.5,96.5-390.9,193-586.4,289.5
			c24.7-29.7,47-61.9,59.4-96.5c81.7-52,160.8-106.4,237.5-163.3c143.5-103.9,14.8-341.5-143.5-242.5
			c-99,61.9-200.4,121.2-301.9,178.2c32.2-81.7-44.5-185.6-133.6-190.5c14.8-59.4-14.8-133.6-66.8-163.3
			c-96.5-54.4-185.6-24.7-284.5,4.9c-133.6,39.6-264.8,84.1-393.4,133.6c-247.4,94-489.9,205.4-722.5,331.6
			c-108.9,59.4-81.7,178.1-2.5,232.6c-96.5,47-190.5,91.5-284.5,141c-94,49.5-79.2,173.2-17.3,232.6
			C-142.7,4587-19,4750.3,122,4681.1c94-44.5,185.6-91.5,277.1-136.1c4.9,22.3,14.8,44.5,29.7,61.9
			c-86.6,56.9-170.7,113.8-252.4,173.2c-146,103.9-17.3,339,143.5,242.5c94-56.9,188-113.8,282.1-170.7c-4.9,19.8-4.9,37.1-2.5,56.9
			c-74.2,54.4-148.5,111.3-220.2,168.3c-116.3,89.1-54.4,262.3,64.3,264.8c9.9,27.2,27.2,49.5,49.5,64.3c-2.5,0-2.5,2.5-2.5,2.5
			c-121.2,101.4,37.1,311.8,170.7,222.7c2.5,0,2.5-2.5,4.9-2.5c24.7,79.2,118.8,141,207.8,89.1c54.4-32.2,108.9-64.3,165.8-96.5
			c29.7,69.3,113.8,118.8,200.4,76.7c39.6-17.3,76.7-37.1,113.8-54.4c-101.4,111.3,14.8,299.4,168.3,220.2
			c37.1-19.8,74.2-39.6,111.3-61.9c39.6,29.7,94,39.6,148.5,14.8c212.8-99,398.4-245,549.3-425.6c54.4-64.3,47-138.6,7.4-185.6
			c12.4-22.3,22.3-44.5,32.2-69.3c7.4-17.3,9.9-37.1,4.9-54.4c180.6-111.3,353.8-237.5,492.4-403.3
			C2969.9,4559.8,2843.8,4394,2695.3,4463.3z"/>
		<g class="st3">
			<path d="M1401.2,5918.2c-692.8,0-1254.5-561.7-1254.5-1254.5s561.7-1254.5,1254.5-1254.5s1254.5,561.7,1254.5,1254.5
				C2655.7,5354.1,2094,5918.2,1401.2,5918.2z M1401.2,3434C723.3,3434,174,3985.8,174,4661.3s551.8,1227.3,1227.3,1227.3
				s1227.3-551.8,1227.3-1227.3S2079.2,3434,1401.2,3434z"/>
		</g>
		<g class="st3">
			<g>
				<path d="M896.5,4725.6c4.9,9.9,7.4,19.8,7.4,32.2s-2.5,24.7-4.9,37.1c-2.5,12.4-7.4,22.3-12.4,32.2
					c-9.9,19.8-22.3,32.2-37.1,39.6c-17.3,7.4-34.6,7.4-54.4,0c-7.4-2.5-14.8-7.4-19.8-12.4c-4.9-4.9-9.9-9.9-14.8-17.3
					c-4.9-7.4-7.4-12.4-9.9-17.3c-2.5-4.9-4.9-12.4-7.4-22.3c-2.5-9.9-2.5-17.3-4.9-22.3c-2.5-4.9-2.5-14.8-2.5-24.7s0-17.3,0-22.3
					c0-4.9,0-12.4,0-24.7s0-17.3,0-22.3c0-52,2.5-111.3,4.9-178.2c0-22.3,4.9-42.1,9.9-56.9c4.9-17.3,17.3-27.2,34.6-34.6
					c12.4-7.4,24.7-7.4,34.6-4.9c9.9,2.5,19.8,7.4,27.2,14.8c7.4,7.4,12.4,14.8,19.8,27.2c4.9,12.4,7.4,22.3,9.9,32.2
					c2.5,9.9,4.9,22.3,4.9,32.2c0,4.9-2.5,9.9-7.4,12.4c-4.9,2.5-9.9,2.5-14.8,2.5c-4.9-2.5-7.4-4.9-7.4-9.9
					c-4.9-27.2-9.9-44.5-14.8-54.4c-2.5-7.4-7.4-12.4-12.4-17.3c-4.9-4.9-9.9-7.4-17.3-7.4s-12.4,2.5-17.3,9.9
					c-4.9,4.9-7.4,12.4-9.9,22.3c-2.5,9.9-4.9,17.3-4.9,22.3c0,4.9,0,14.8,0,27.2s0,19.8,0,22.3c-2.5,64.3-2.5,106.4-2.5,126.2
					c0,4.9,0,14.8,0,24.7c0,9.9,0,22.3,0,32.2s0,17.3,2.5,24.7c2.5,37.1,9.9,59.4,22.3,74.2c14.8,14.8,27.2,19.8,37.1,17.3
					c12.4-4.9,22.3-14.8,29.7-29.7c14.8-32.2,17.3-54.4,9.9-69.3c-2.5-4.9-2.5-12.4,0-17.3c4.9-4.9,7.4-7.4,14.8-7.4
					C889.1,4715.7,894,4720.7,896.5,4725.6z"/>
				<path d="M975.7,4448.5c-4.9,0-9.9-2.5-12.4-7.4c-2.5-4.9-2.5-9.9,0-14.8l0,0c2.5-4.9,7.4-7.4,12.4-7.4c2.5,0,12.4,2.5,29.7,2.5
					s29.7,2.5,39.6,2.5c7.4,0,12.4,2.5,14.8,7.4c2.5,4.9,2.5,9.9,0,17.3c-2.5,7.4-7.4,9.9-14.8,9.9c-2.5,0-7.4,0-12.4,0
					c2.5,74.2,0,133.6-2.5,175.7c0,9.9,0,27.2-2.5,52c-2.5,24.7,0,42.1-2.5,54.4c0,4.9,0,9.9,0,17.3c0,7.4,0,12.4-2.5,17.3
					c0,4.9,0,9.9,0,17.3s0,12.4,0,17.3s0,12.4,2.5,17.3c4.9,0,9.9-2.5,14.8-2.5c7.4-2.5,12.4,0,14.8,2.5c2.5,2.5,4.9,9.9,4.9,17.3
					c0,7.4-4.9,9.9-12.4,12.4c-14.8,4.9-37.1,4.9-66.8,0c-2.5,0-4.9-2.5-4.9-2.5c-2.5,0-2.5-2.5-4.9-4.9c-2.5-4.9-2.5-7.4,0-12.4
					c2.5-4.9,4.9-7.4,9.9-7.4c2.5,0,4.9,0,7.4,0h4.9c-2.5-12.4-2.5-39.6,0-79.2c0-12.4,0-32.2,2.5-56.9c2.5-24.7,2.5-44.5,2.5-56.9
					c0-17.3,2.5-34.6,2.5-56.9s0-44.5,0-64.3c0-22.3,0-39.6,2.5-56.9c-2.5,0-2.5,0-7.4,0c-2.5,0-4.9,0-4.9,0c-2.5,0-2.5,0-4.9-2.5
					c-2.5,0-2.5,0-4.9,0C980.6,4451,978.1,4451,975.7,4448.5L975.7,4448.5L975.7,4448.5z"/>
				<path d="M1225.6,4762.7c4.9,19.8,7.4,37.1,12.4,52c4.9,14.8,9.9,29.7,14.8,44.5c2.5,7.4,0,14.8-7.4,19.8
					c-7.4,4.9-14.8,2.5-19.8-2.5c-4.9-4.9-7.4-7.4-9.9-9.9c-4.9-4.9-4.9-12.4-2.5-19.8c-4.9-17.3-12.4-42.1-19.8-74.2
					c-7.4-32.2-12.4-54.4-14.8-64.3c-2.5-9.9-4.9-22.3-9.9-39.6s-7.4-32.2-9.9-39.6c0,2.5,0,4.9,0,7.4c0,2.5,0,4.9,0,7.4
					s0,4.9,0,7.4c0,22.3,0,54.4,0,96.5c0,42.1,2.5,76.7,0,96.5c0,7.4-2.5,12.4-7.4,14.8s-12.4,2.5-17.3,0c-4.9-2.5-7.4-7.4-7.4-14.8
					c0-19.8,0-54.4,0-101.4c0-47,0-81.7,0-101.4c2.5-84.1,4.9-146,7.4-188c-2.5-2.5-4.9-7.4-4.9-12.4c0-4.9,2.5-9.9,7.4-12.4
					c12.4-7.4,27.2-12.4,42.1-9.9c14.8,2.5,27.2,7.4,39.6,14.8c12.4,7.4,22.3,19.8,27.2,32.2c7.4,14.8,9.9,27.2,7.4,42.1
					c-2.5,19.8-9.9,34.6-22.3,44.5s-29.7,17.3-52,22.3l2.5,7.4c0,2.5,2.5,4.9,2.5,9.9c2.5,4.9,2.5,7.4,2.5,9.9
					c2.5,7.4,4.9,19.8,9.9,34.6l22.3,76.7C1218.1,4728.1,1223.1,4742.9,1225.6,4762.7z M1213.2,4522.7c4.9-12.4,4.9-22.3,2.5-34.6
					c-2.5-12.4-9.9-19.8-19.8-27.2c-9.9-7.4-22.3-9.9-32.2-9.9c0,27.2,0,59.4-2.5,96.5c2.5,0,4.9,0,7.4-2.5c2.5-2.5,7.4-2.5,9.9-2.5
					c2.5,0,4.9,0,7.4-2.5c2.5,0,7.4-2.5,9.9-2.5c2.5,0,4.9-2.5,7.4-4.9s4.9-2.5,7.4-4.9C1210.7,4527.7,1213.2,4525.2,1213.2,4522.7z
					"/>
				<path d="M1475.5,4725.6c4.9,9.9,7.4,19.8,7.4,32.2s-2.5,24.7-4.9,37.1s-7.4,22.3-12.4,32.2c-9.9,19.8-22.3,32.2-37.1,39.6
					c-17.3,7.4-34.6,7.4-54.4,0c-7.4-2.5-14.8-7.4-19.8-12.4c-4.9-4.9-9.9-9.9-14.8-17.3c-4.9-7.4-7.4-12.4-9.9-17.3
					c-2.5-4.9-4.9-12.4-7.4-22.3s-2.5-17.3-4.9-22.3c-2.5-4.9-2.5-14.8-2.5-24.7s0-17.3,0-22.3c0-4.9,0-12.4,0-24.7s0-17.3,0-22.3
					c0-52,2.5-111.3,2.5-178.2c0-22.3,4.9-42.1,9.9-56.9c4.9-17.3,17.3-27.2,34.6-34.6c12.4-7.4,24.7-7.4,34.6-4.9
					c9.9,2.5,19.8,7.4,27.2,14.8c7.4,7.4,12.4,14.8,19.8,27.2c4.9,12.4,9.9,22.3,9.9,32.2c2.5,9.9,4.9,22.3,4.9,32.2
					c0,4.9-2.5,9.9-7.4,12.4c-4.9,2.5-9.9,2.5-14.8,2.5c-4.9-2.5-7.4-4.9-7.4-9.9c-4.9-27.2-9.9-44.5-14.8-54.4
					c-2.5-7.4-7.4-12.4-12.4-17.3c-4.9-4.9-9.9-7.4-17.3-7.4s-12.4,2.5-17.3,9.9c-4.9,4.9-9.9,12.4-9.9,22.3
					c-2.5,9.9-4.9,17.3-4.9,22.3c0,4.9,0,14.8,0,27.2s0,19.8,0,22.3c-2.5,64.3-2.5,106.4-2.5,126.2c0,4.9,0,14.8,0,24.7
					c0,9.9,0,22.3,0,32.2s0,17.3,2.5,24.7c2.5,37.1,9.9,59.4,22.3,74.2c14.8,14.8,27.2,19.8,37.1,17.3c12.4-4.9,22.3-14.8,29.7-29.7
					c14.8-32.2,17.3-54.4,9.9-69.3c-2.5-4.9-2.5-12.4,0-17.3c2.5-4.9,7.4-7.4,14.8-7.4C1468,4715.7,1473,4720.7,1475.5,4725.6z"/>
				<path d="M1557.1,4864.2c-4.9,0-9.9-2.5-12.4-4.9c-2.5-2.5-4.9-7.4-4.9-12.4c-2.5-59.4,0-128.7,4.9-210.3
					c0-14.8,2.5-34.6,2.5-61.9c2.5-27.2,2.5-52,2.5-74.2c2.5-22.3,2.5-42.1,2.5-61.9c0-2.5,0-4.9,0-4.9v-2.5c0-2.5,0-7.4,2.5-9.9
					s4.9-4.9,7.4-4.9c2.5,0,4.9,0,7.4,0c2.5,0,4.9,2.5,7.4,4.9c2.5,2.5,2.5,4.9,2.5,9.9c0,37.1,0,59.4,0,69.3s0,32.2-2.5,69.3
					c-2.5,37.1-2.5,59.4-2.5,69.3c-2.5,76.7-4.9,141-4.9,193c22.3,0,39.6,0,54.4,0c4.9,0,9.9,0,12.4,0c2.5,0,7.4,0,12.4,2.5
					c4.9,2.5,7.4,4.9,7.4,9.9c2.5,7.4,0,12.4-4.9,17.3s-12.4,4.9-17.3,2.5c-2.5,0-4.9,0-9.9,0c-2.5,0-7.4,0-9.9,0
					c-2.5,0-7.4,0-7.4,2.5C1599.2,4864.2,1581.9,4864.2,1557.1,4864.2z"/>
				<path d="M1747.6,4869.1c-7.4,0-12.4,0-17.3-2.5c-4.9-2.5-7.4-7.4-9.9-12.4c-2.5-4.9-2.5-9.9-2.5-14.8s0-12.4,0-19.8
					c0-7.4,0-12.4,0-14.8v-74.2c0-64.3,0-116.3,2.5-158.4c2.5-54.4,2.5-96.5,0-128.7c-2.5-2.5-2.5-4.9-2.5-7.4c0-2.5,0-4.9,0-9.9
					c0-4.9,2.5-7.4,4.9-9.9c2.5-2.5,7.4-4.9,9.9-4.9h2.5c4.9,0,17.3,0,32.2,0c14.8,0,24.7,0,32.2,0c19.8-2.5,29.7,4.9,32.2,17.3
					c0,4.9,0,9.9-4.9,12.4c-4.9,2.5-9.9,4.9-14.8,2.5h-2.5h-2.5h-2.5c-2.5,0-2.5,0-2.5,0c-2.5,0-4.9,0-7.4,0s-4.9,0-7.4,0
					c-7.4,0-19.8,0-37.1-2.5c2.5,32.2,4.9,71.8,2.5,116.3c4.9,0,9.9,0,14.8,0c4.9,0,9.9,0,14.8,0c4.9,0,9.9,0,14.8,0
					c4.9,0,9.9,0,14.8,0c7.4,0,12.4,2.5,14.8,9.9c2.5,4.9,2.5,12.4,0,17.3c-2.5,4.9-7.4,7.4-14.8,7.4h-2.5h-2.5l0,0
					c-17.3-2.5-32.2-4.9-49.5-7.4c-2.5,52-2.5,84.1-2.5,99c0,61.9,0,108.9,0,141c0,2.5,0,4.9,0,9.9h7.4c0,0,22.3,0,64.3,0
					c4.9,0,7.4,0,9.9,2.5c2.5,2.5,4.9,4.9,4.9,7.4c0,2.5,0,7.4,0,9.9s-2.5,4.9-4.9,7.4c-2.5,2.5-4.9,2.5-9.9,2.5
					c-7.4,0-19.8,0-37.1,0C1767.4,4871.6,1755.1,4871.6,1747.6,4869.1z"/>
				<path d="M1975.3,4859.2c-14.8,2.5-29.7,0-44.5-7.4c-12.4-7.4-22.3-17.3-29.7-29.7c-4.9-12.4-7.4-29.7-7.4-49.5
					c0-2.5,0-4.9,0-9.9c0-4.9,0-7.4,0-9.9c0-2.5,0-4.9,0-9.9c0-2.5-2.5-4.9-2.5-7.4c-2.5-4.9-2.5-12.4,0-17.3
					c2.5-4.9,7.4-7.4,14.8-7.4c4.9,0,9.9,2.5,14.8,7.4c4.9,9.9,7.4,24.7,7.4,47s2.5,37.1,7.4,44.5c4.9,7.4,12.4,9.9,19.8,12.4
					c7.4,2.5,14.8,0,22.3-4.9c7.4-7.4,12.4-17.3,14.8-29.7c4.9-29.7,2.5-59.4-2.5-91.5c-7.4-32.2-19.8-61.9-34.6-89.1
					c-2.5-4.9-7.4-9.9-9.9-17.3c-4.9-7.4-7.4-14.8-12.4-19.8c-4.9-4.9-7.4-12.4-9.9-17.3c-2.5-7.4-7.4-12.4-9.9-19.8
					c-2.5-7.4-4.9-14.8-4.9-19.8c-4.9-34.6,0-64.3,17.3-84.1c7.4-12.4,19.8-17.3,32.2-17.3c12.4,0,24.7,2.5,34.6,12.4
					c4.9,4.9,9.9,9.9,12.4,17.3s4.9,12.4,7.4,17.3s2.5,12.4,4.9,19.8c2.5,7.4,2.5,14.8,4.9,19.8c2.5,4.9,0,9.9-2.5,12.4
					c-2.5,2.5-7.4,4.9-12.4,2.5c-4.9-2.5-7.4-4.9-9.9-9.9c-2.5-4.9-4.9-12.4-4.9-19.8c-2.5-9.9-2.5-14.8-4.9-19.8
					c-2.5-7.4-7.4-12.4-14.8-19.8c-7.4-4.9-14.8-4.9-19.8,0c-7.4,7.4-12.4,17.3-12.4,29.7c-2.5,12.4-2.5,22.3,2.5,34.6
					c4.9,12.4,4.9,22.3,12.4,29.7c4.9,7.4,9.9,19.8,17.3,32.2c7.4,12.4,14.8,24.7,19.8,37.1c4.9,12.4,9.9,22.3,14.8,32.2
					c9.9,27.2,17.3,56.9,22.3,91.5c2.5,9.9,2.5,22.3,2.5,37.1c0,14.8-2.5,27.2-4.9,42.1c-2.5,14.8-7.4,24.7-17.3,34.6
					C2000,4851.8,1990.1,4856.7,1975.3,4859.2z"/>
			</g>
			<g>
				<path d="M1139,4997.8c2.5,4.9,4.9,9.9,4.9,14.8c0,12.4-4.9,19.8-12.4,24.7c-7.4,4.9-19.8,9.9-34.6,9.9h-49.5l22.3-111.3h47
					c9.9,0,19.8,2.5,24.7,4.9c4.9,4.9,9.9,9.9,9.9,17.3c0,7.4-2.5,14.8-7.4,19.8c-4.9,4.9-9.9,9.9-17.3,12.4
					C1131.5,4992.8,1136.5,4995.3,1139,4997.8z M1126.6,5032.4c7.4-4.9,9.9-12.4,9.9-19.8c0-7.4-2.5-12.4-7.4-14.8
					c-4.9-2.5-12.4-4.9-22.3-4.9h-42.1l-9.9,47h42.1C1111.7,5039.8,1121.6,5037.4,1126.6,5032.4z M1067.2,4987.9h37.1
					c9.9,0,19.8-2.5,24.7-7.4c7.4-4.9,9.9-12.4,9.9-19.8c0-4.9-2.5-9.9-7.4-12.4c-4.9-2.5-9.9-4.9-19.8-4.9h-34.6L1067.2,4987.9z"/>
				<path d="M1275,4965.6l-17.3,84.1h-7.4l2.5-17.3c-4.9,4.9-9.9,9.9-14.8,12.4c-4.9,2.5-12.4,4.9-19.8,4.9
					c-9.9,0-19.8-2.5-27.2-9.9c-7.4-4.9-9.9-14.8-9.9-24.7s2.5-17.3,4.9-24.7c4.9-7.4,9.9-12.4,17.3-17.3s14.8-7.4,24.7-7.4
					s14.8,2.5,22.3,4.9c4.9,2.5,9.9,9.9,12.4,14.8l4.9-19.8L1275,4965.6L1275,4965.6z M1242.9,5034.9c4.9-2.5,9.9-9.9,14.8-14.8
					c2.5-7.4,4.9-12.4,4.9-22.3c0-9.9-2.5-14.8-7.4-19.8c-4.9-4.9-12.4-7.4-22.3-7.4c-7.4,0-14.8,2.5-19.8,4.9
					c-4.9,2.5-9.9,9.9-14.8,14.8c-2.5,7.4-4.9,12.4-4.9,22.3c0,9.9,2.5,14.8,7.4,19.8c4.9,4.9,12.4,7.4,22.3,7.4
					C1228,5039.8,1235.5,5039.8,1242.9,5034.9z"/>
				<path d="M1391.3,4970.6c4.9,4.9,7.4,12.4,7.4,19.8c0,2.5,0,4.9,0,9.9l-9.9,47h-7.4l9.9-47c0-2.5,0-4.9,0-7.4
					c0-7.4-2.5-12.4-4.9-14.8c-4.9-2.5-9.9-4.9-17.3-4.9c-9.9,0-17.3,2.5-24.7,7.4c-7.4,4.9-9.9,12.4-12.4,22.3l-9.9,44.5h-7.4
					l17.3-84.1h7.4l-2.5,14.8c4.9-4.9,9.9-9.9,14.8-12.4c4.9-2.5,12.4-4.9,19.8-4.9C1379,4963.1,1386.4,4965.6,1391.3,4970.6z"/>
				<path d="M1520,4970.6c4.9,4.9,7.4,12.4,7.4,19.8c0,2.5,0,4.9,0,9.9l-9.9,47h-7.4l9.9-47c0-2.5,0-4.9,0-7.4
					c0-7.4-2.5-12.4-4.9-14.8c-4.9-2.5-9.9-4.9-17.3-4.9c-9.9,0-17.3,2.5-24.7,7.4c-7.4,4.9-9.9,12.4-12.4,22.3l-9.9,44.5h-7.4
					l17.3-84.1h7.4l-2.5,14.8c4.9-4.9,9.9-9.9,14.8-12.4c4.9-2.5,12.4-4.9,19.8-4.9C1507.6,4963.1,1515.1,4965.6,1520,4970.6z"/>
				<path d="M1576.9,5007.7c0,2.5,0,4.9,0,4.9c0,9.9,2.5,14.8,7.4,19.8c4.9,4.9,12.4,7.4,22.3,7.4c4.9,0,9.9,0,14.8-2.5
					c4.9-2.5,9.9-4.9,12.4-7.4l2.5,4.9c-2.5,4.9-7.4,7.4-14.8,9.9c-4.9,2.5-12.4,2.5-19.8,2.5c-12.4,0-22.3-2.5-27.2-9.9
					c-7.4-4.9-9.9-14.8-9.9-24.7s2.5-17.3,4.9-24.7c2.5-7.4,9.9-12.4,17.3-17.3s14.8-7.4,22.3-7.4c9.9,0,19.8,2.5,24.7,9.9
					c7.4,4.9,9.9,14.8,9.9,24.7c0,2.5,0,4.9,0,9.9H1576.9L1576.9,5007.7z M1589.3,4978c-7.4,4.9-9.9,12.4-12.4,22.3h64.3
					c0,0,0-2.5,0-4.9c0-7.4-2.5-14.8-7.4-19.8c-4.9-4.9-12.4-7.4-19.8-7.4C1604.1,4970.6,1596.7,4973,1589.3,4978z"/>
				<path d="M1720.4,4968.1c4.9-2.5,12.4-4.9,22.3-4.9l-2.5,7.4h-2.5c-9.9,0-17.3,2.5-22.3,7.4c-4.9,4.9-9.9,14.8-12.4,24.7
					l-9.9,42.1h-7.4l17.3-84.1h7.4l-2.5,17.3C1710.5,4975.5,1715.5,4970.6,1720.4,4968.1z"/>
			</g>
			<path d="M1443.3,4228.3c0,17.3-14.8,32.2-32.2,32.2s-32.2-14.8-32.2-32.2c0-17.3,14.8-32.2,32.2-32.2S1443.3,4211,1443.3,4228.3z
				"/>
			<path d="M1443.3,5188.3c0,17.3-14.8,32.2-32.2,32.2s-32.2-14.8-32.2-32.2c0-17.3,14.8-32.2,32.2-32.2S1443.3,5171,1443.3,5188.3z
				"/>
		</g>
	</g>
</g>
<g>
	<g>
		<path class="st7" d="M2237.6,2258.7c9.9,69.3-37.1,126.2-108.9,126.2H673.8c-69.3,0-118.8-56.9-108.9-126.2l148.5-1252
			c9.9-69.3,76.7-126.2,146-126.2h1083.7c69.3,0,136.1,56.9,146,126.2L2237.6,2258.7z"/>
	</g>
	<path class="st8" d="M1401.2,1939.5c-217.7,0-438-146-438-425.6c0-34.6,27.2-64.3,64.3-64.3c34.6,0,64.3,27.2,64.3,64.3
		c0,205.4,160.8,299.4,309.3,299.4s309.3-94,309.3-299.4c0-34.6,27.2-64.3,64.3-64.3c34.6,0,64.3,27.2,64.3,64.3
		C1839.2,1793.6,1619,1939.5,1401.2,1939.5z"/>
	<path class="st7" d="M1774.9,954.8c-34.6,0-64.3-27.2-64.3-64.3c0-205.4-160.8-299.4-309.3-299.4s-309.3,94-309.3,299.4
		c0,34.6-27.2,64.3-64.3,64.3c-34.6,0-64.3-27.2-64.3-64.3c0-279.6,220.2-425.6,438-425.6s438,146,438,425.6
		C1839.2,927.5,1812,954.8,1774.9,954.8z"/>
	<path class="st8" d="M1131.5,1271.5c0,56.9-47,103.9-103.9,103.9c-56.9,0-103.9-47-103.9-103.9c0-56.9,47-103.9,103.9-103.9
		C1084.5,1165.1,1131.5,1212.1,1131.5,1271.5z"/>
	<path class="st8" d="M1661,1365.5c-22.3,0-42.1-9.9-54.4-29.7c-19.8-29.7-9.9-69.3,19.8-86.6c4.9-4.9,150.9-94,287,2.5
		c27.2,19.8,34.6,59.4,14.8,89.1c-19.8,27.2-59.4,34.6-89.1,14.8c-64.3-47-143.5,2.5-143.5,2.5
		C1683.3,1363,1670.9,1365.5,1661,1365.5z"/>
</g>
</svg>
