<?xml version="1.0" encoding="utf-8"?>
<!-- Generator: Adobe Illustrator 25.3.1, SVG Export Plug-In . SVG Version: 6.00 Build 0)  -->
<svg version="1.1" xmlns="http://www.w3.org/2000/svg" xmlns:xlink="http://www.w3.org/1999/xlink" x="0px" y="0px"
	 viewBox="0 0 500 500" style="enable-background:new 0 0 500 500;" xml:space="preserve">
<style type="text/css">
	.st0{display:none;}
	.st1{display:inline;}
	.st2{fill:#EBEBEB;}
	.st3{fill:#E0E0E0;}
	.st4{fill:#FFFFFF;}
	.st5{fill:#F5F5F5;}
	.st6{display:inline;fill:#EBEBEB;}
	.st7{fill:#263238;}
	.st8{fill:#FFBE9D;}
	.st9{fill:#EB996E;}
	.st10{opacity:0.78;}
	.st11{fill:#455A64;}
	.st12{fill:#E8505B;}
	.st13{fill:#FAFAFA;}
	.st14{opacity:0.4;}
	.st15{opacity:0.6;}
	.st16{opacity:0.3;}
	.st17{fill:#92CA36;}
	.st18{fill:#91C936;}
	.st19{fill:#70AF2D;}
	.st20{fill:#92C936;}
	.st21{fill:#8BC434;}
	.st22{fill:#8FC735;}
	.st23{fill:#8AC334;}
	.st24{fill:#90C835;}
	.st25{fill:#93CA36;}
	.st26{fill:#95CC37;}
	.st27{fill:#94CB36;}
	.st28{fill:none;}
	.st29{fill:#7ABE31;}
	.st30{opacity:0.56;}
	.st31{fill:#C5DC3F;}
	.st32{fill:#5DA028;}
	.st33{fill:#960015;}
	.st34{fill:#E9A8BC;}
	.st35{fill:#B20000;}
	.st36{display:none;fill:#263238;}
	.st37{fill:#C51717;}
	.st38{font-family:'Montserrat-SemiBold';}
	.st39{font-size:25.1333px;}
	.st40{letter-spacing:1;}
	.st41{display:none;fill:#FAFAFA;}
	.st42{font-family:'MyriadPro-Regular';}
	.st43{font-size:12px;}
</style>
<g id="Background_Complete" class="st0">
	<g class="st1">
		<g>
			<g>
				<path class="st2" d="M106.1,275.1c0,0-9.1,2.4-1.4,22c7.6,19.6,13.3,29.5,13.3,29.5s1.3,4.5-2.5,4.8c-3.7,0.3-11.6-1.8-13.7,2.5
					c-2.1,4.5,0.8,9.2,7.2,13.7c6.4,4.5,20.1,14.9,21.4,15.9c1.2,0.9,2.3,3.1-0.2,3.7c-2.5,0.6-20.7,0.7-20.2,9.3
					c0.6,8.7,20.5,18.3,22.7,19.4c2.2,1.1,2.6,2.1,2.3,3.3c-0.3,1.2-6.4,0.7-11.6,0.9c-5.2,0.2-11.2,1.4-10.4,6.4
					c0.7,5,12,16.4,41.5,22.3l13.9,1.8l8.7-11c17.3-24.6,17.6-40.7,14.7-44.8c-2.9-4.1-8-0.8-11.9,2.6c-3.9,3.4-8,8-9,7.4
					c-1.1-0.7-1.4-1.7-0.6-4c0.8-2.3,8.6-23,3.1-29.7c-5.6-6.6-18.8,5.9-21,7.2c-2.2,1.3-2.9-1-2.7-2.5c0.2-1.5,3-18.5,4.5-26.2
					c1.5-7.7,0.4-13.1-4.2-14.9c-4.5-1.7-8.7,5.3-11.6,7.6c-2.9,2.3-5.1-1.8-5.1-1.8s-2.7-11.1-10.7-30.5
					c-8-19.5-16.4-14.8-16.4-14.8"/>
			</g>
		</g>
		<g>
			<g>
				<g>
					<path class="st3" d="M168.7,433.9c-5.8-14.3-15.7-39.9-24.3-61.9c-8.6-21.9-16.4-41.8-22.2-56.1c-2.9-7.2-5.2-13-6.8-17
						c-0.8-2-1.4-3.5-1.9-4.6c-0.2-0.5-0.4-0.9-0.5-1.2c-0.1-0.3-0.1-0.4-0.1-0.4s0.1,0.1,0.2,0.4c0.1,0.3,0.3,0.7,0.5,1.2
						c0.4,1.1,1.1,2.6,1.9,4.6c1.7,4,4,9.8,6.9,16.9c5.8,14.3,13.7,34.2,22.3,56.1c8.6,21.9,18.5,47.6,24.2,61.9"/>
				</g>
			</g>
		</g>
		<g>
			<g>
				<g>
					<path class="st3" d="M112.8,337.3c0,0,0.3,0.1,0.9,0.4c0.6,0.3,1.4,0.7,2.5,1.2c2.1,1,4.9,2.5,8.1,4.2c3.1,1.7,5.8,3.2,8,4.3
						c1,0.5,1.8,0.9,2.4,1.3c0.6,0.3,0.9,0.5,0.9,0.5c0,0-0.3-0.1-0.9-0.4c-0.6-0.3-1.4-0.7-2.5-1.2c-2.1-1-4.9-2.5-8-4.2
						c-3.1-1.6-5.9-3.1-8-4.3c-1-0.5-1.8-0.9-2.4-1.3C113.1,337.5,112.8,337.3,112.8,337.3z"/>
				</g>
			</g>
		</g>
		<g>
			<g>
				<g>
					<path class="st3" d="M136.5,348.4c-0.1-0.1,2.7-6.1,6.2-13.4c3.5-7.4,6.5-13.3,6.6-13.2c0.1,0.1-2.7,6.1-6.2,13.4
						C139.6,342.5,136.7,348.4,136.5,348.4z"/>
				</g>
			</g>
		</g>
		<g>
			<g>
				<g>
					<path class="st3" d="M148.3,382.7c0,0,0.2-0.3,0.7-0.8c0.5-0.6,1.1-1.3,1.9-2.1c1.6-1.8,3.7-4.2,6-7c2.3-2.8,4.3-5.4,5.7-7.3
						c0.7-0.9,1.2-1.6,1.7-2.2c0.4-0.5,0.6-0.8,0.7-0.8c0,0-0.2,0.3-0.5,0.9c-0.4,0.6-0.9,1.4-1.6,2.3c-1.4,1.9-3.3,4.6-5.6,7.4
						c-2.3,2.8-4.5,5.2-6.2,6.9c-0.8,0.9-1.5,1.5-2,2C148.6,382.4,148.3,382.7,148.3,382.7z"/>
				</g>
			</g>
		</g>
		<g>
			<g>
				<g>
					<path class="st3" d="M124.5,377.4c0,0,0.3,0,0.9,0.1c0.7,0.1,1.5,0.3,2.6,0.5c2.2,0.4,5.1,1,8.4,1.7c3.3,0.7,6.2,1.3,8.4,1.8
						c1,0.2,1.8,0.4,2.5,0.6c0.6,0.2,0.9,0.2,0.9,0.3c0,0-0.3,0-0.9-0.1c-0.7-0.1-1.5-0.3-2.6-0.5c-2.2-0.4-5.1-1-8.4-1.7
						c-3.3-0.7-6.2-1.3-8.4-1.8c-1-0.2-1.8-0.4-2.5-0.6C124.9,377.5,124.5,377.4,124.5,377.4z"/>
				</g>
			</g>
		</g>
		<g>
			<g>
				<g>
					<path class="st3" d="M131,409c0,0,0.4,0,1.2,0.2c0.9,0.2,2,0.3,3.3,0.6c2.8,0.5,6.6,1.2,10.8,2.1c4.2,0.8,8,1.6,10.7,2.2
						c1.3,0.3,2.4,0.5,3.2,0.7c0.8,0.2,1.2,0.3,1.2,0.3c0,0-0.4,0-1.2-0.2c-0.9-0.2-2-0.3-3.3-0.6c-2.8-0.5-6.6-1.2-10.8-2.1
						c-4.2-0.8-8-1.6-10.7-2.2c-1.3-0.3-2.4-0.5-3.2-0.7C131.5,409.1,131,409,131,409z"/>
				</g>
			</g>
		</g>
		<g>
			<g>
				<g>
					<path class="st3" d="M160.8,414.7c0,0,0.3-0.4,0.8-1c0.6-0.7,1.4-1.6,2.3-2.7c1.9-2.3,4.6-5.5,7.4-9.1c2.8-3.6,5.3-6.9,7.1-9.4
						c0.9-1.2,1.6-2.1,2.1-2.9c0.5-0.7,0.8-1,0.8-1c0,0-0.2,0.4-0.7,1.1c-0.5,0.7-1.1,1.7-2,3c-1.7,2.5-4.1,5.8-7,9.5
						c-2.8,3.6-5.5,6.8-7.5,9.1c-1,1.1-1.8,2-2.4,2.6C161.1,414.4,160.8,414.7,160.8,414.7z"/>
				</g>
			</g>
		</g>
	</g>
	<g class="st1">
		<g>
			<g>
				<g>
					<g>
						<path class="st2" d="M379.5,461.7l-69.4-114.9c-2.2-3.6-1-8.2,2.6-10.4l70.2-42.4c3.6-2.2,8.2-1,10.4,2.6l69.4,114.9
							c2.2,3.6,1,8.2-2.6,10.4l-70.2,42.4C386.3,466.4,381.7,465.3,379.5,461.7z"/>
					</g>
					<g>
						<path class="st4" d="M435.9,410.8c-4.9,2.9-11.2,1.4-14.2-3.5c-2.9-4.9-1.4-11.2,3.5-14.2c4.9-2.9,11.2-1.4,14.2,3.5
							C442.3,401.5,440.7,407.8,435.9,410.8z"/>
					</g>
					<g>
						<path class="st4" d="M437,423.4c-0.9,0-1.7-0.1-2.6-0.3c-2.8-0.7-5.2-2.4-6.7-4.9c-3.1-5.1-1.4-11.8,3.7-14.8
							c5.1-3.1,11.8-1.4,14.8,3.7c3.1,5.1,1.4,11.8-3.7,14.8C440.8,422.9,438.9,423.4,437,423.4z M436.9,402.8
							c-1.8,0-3.5,0.5-5.1,1.4c-2.2,1.4-3.8,3.5-4.5,6c-0.6,2.5-0.2,5.2,1.1,7.4c2.8,4.6,8.8,6.1,13.5,3.3l0,0
							c4.6-2.8,6.1-8.8,3.3-13.5c-1.4-2.2-3.5-3.8-6-4.5C438.5,402.9,437.7,402.8,436.9,402.8z"/>
					</g>
					<g>
						<path class="st4" d="M343,333.6l-7.1,4.3l-0.4-0.7l6.4-3.9l-1-1.7l0.6-0.4L343,333.6z"/>
						<path class="st4" d="M341,344.8l-0.6,0.4l-3-5l0.5-0.3l4.7,1.2c1.3,0.3,1.8,0.2,2.3-0.1c0.8-0.5,1-1.4,0.3-2.5
							c-0.5-0.8-1.1-1.3-2-1.5l0.1-0.8c1,0.2,1.9,0.8,2.5,1.9c0.9,1.4,0.7,2.8-0.5,3.5c-0.7,0.4-1.4,0.6-2.9,0.2l-3.8-1L341,344.8z"
							/>
						<path class="st4" d="M346.7,351.5l-0.9-1.4l-1.9,1.1l-0.4-0.7l1.9-1.1l-2.4-4l0.5-0.3l7,0.9l0.5,0.8l-6.8-0.9l1.9,3.1l1.6-1
							l0.4,0.7l-1.6,1l0.9,1.4L346.7,351.5z"/>
						<path class="st4" d="M353.3,362.4l-0.9-1.4l-1.9,1.1l-0.4-0.7l1.9-1.1l-2.4-4l0.5-0.3l7,0.9l0.5,0.8l-6.8-0.9l1.9,3.1l1.6-1
							l0.4,0.7l-1.6,1l0.9,1.4L353.3,362.4z"/>
						<path class="st4" d="M357.3,368.5c-1.2,0.7-2.7,0.5-3.7-1.3c-0.6-1-0.9-2.2-0.6-3.1l0.8,0c-0.2,0.7-0.1,1.8,0.5,2.7
							c0.7,1.2,1.7,1.5,2.6,1c0.9-0.6,1.1-1.5,0-3.3l-0.9-1.5l3.8-1.8l2.3,3.9l-0.6,0.4l-2-3.2l-2.4,1.1l0.6,0.9
							C358.9,366.4,358.5,367.7,357.3,368.5z"/>
						<path class="st4" d="M361.5,375.5c-1.3,0.8-2.8,0.3-3.6-1.1c-1.1-1.9-0.5-3.7,1.8-5.1c2.4-1.5,4.5-0.9,5.6,1
							c0.4,0.6,0.6,1.3,0.6,1.9l-0.8,0.1c0-0.5-0.2-1.1-0.5-1.6c-0.9-1.5-2.5-1.9-4.4-0.8c-0.2,0.1-0.4,0.2-0.6,0.4
							c1-0.1,1.9,0.5,2.5,1.4C363.1,373.2,362.8,374.7,361.5,375.5z M361.1,374.8c0.9-0.6,1.1-1.6,0.5-2.7c-0.7-1.1-1.8-1.4-2.7-0.9
							c-0.8,0.5-1.1,1.6-0.4,2.8C359.1,375,360.1,375.3,361.1,374.8z"/>
						<path class="st4" d="M367.3,385.2c-1.2,0.7-2.6,0.4-3.7-1.3c-0.6-1-0.9-2.2-0.6-3.1l0.8,0c-0.2,0.7,0,1.8,0.5,2.7
							c0.7,1.2,1.6,1.5,2.5,1c0.9-0.5,1-1.4,0.3-2.8l-0.3-0.5l0.5-0.3l3.7,0.5l-2.2-3.6l0.6-0.4l2.8,4.6l-0.5,0.3l-3.7-0.5
							C368.8,383.3,368.5,384.6,367.3,385.2z"/>
						<path class="st4" d="M371.7,392.3c-1.3,0.8-2.8,0.3-3.6-1.1c-1.1-1.9-0.5-3.7,1.8-5.1c2.4-1.5,4.5-0.9,5.6,1
							c0.4,0.6,0.6,1.3,0.6,1.9l-0.8,0.1c0-0.5-0.2-1.1-0.5-1.6c-0.9-1.5-2.5-1.9-4.4-0.8c-0.2,0.1-0.4,0.2-0.6,0.4
							c1-0.1,1.9,0.5,2.5,1.4C373.2,390,373,391.5,371.7,392.3z M371.2,391.6c0.9-0.6,1.1-1.6,0.5-2.7c-0.7-1.1-1.8-1.4-2.7-0.9
							c-0.8,0.5-1.1,1.6-0.4,2.8C369.3,391.8,370.3,392.2,371.2,391.6z"/>
						<path class="st4" d="M380.6,395.8l-0.5,0.3l-8.4,1l-0.5-0.8l8.2-1l-2.2-3.6l-1.3,0.8l-0.4-0.7l2-1.2L380.6,395.8z"/>
						<path class="st4" d="M386.8,406l-0.5,0.3l-8.4,1l-0.5-0.8l8.2-1l-2.2-3.6l-1.3,0.8l-0.4-0.7l2-1.2L386.8,406z"/>
						<path class="st4" d="M385.9,416c-1.3,0.8-2.7,0.2-3.7-1.5c-1-1.7-0.9-3.2,0.4-4c0.9-0.5,1.7-0.4,2.6,0.3
							c-0.2-0.9,0.1-1.6,0.9-2.1c1.2-0.7,2.5-0.1,3.4,1.4c0.9,1.5,0.8,2.9-0.4,3.6c-0.7,0.4-1.5,0.4-2.2-0.2
							C387,414.7,386.7,415.5,385.9,416z M385.4,415.3c0.9-0.5,1-1.6,0.2-2.9c-0.8-1.3-1.8-1.7-2.6-1.1c-0.9,0.5-1,1.6-0.2,2.9
							C383.5,415.4,384.5,415.8,385.4,415.3z M386.2,412.1c0.7,1.1,1.6,1.5,2.3,1c0.8-0.5,0.9-1.5,0.2-2.5c-0.6-1.1-1.5-1.5-2.3-1
							C385.6,410,385.5,411,386.2,412.1z"/>
						<path class="st4" d="M391.6,422c-2.4,1.5-4.5,0.9-5.6-1c-0.4-0.6-0.6-1.3-0.6-1.9l0.8-0.1c0,0.5,0.2,1.1,0.5,1.6
							c0.9,1.5,2.5,1.9,4.4,0.8c0.2-0.1,0.4-0.2,0.6-0.4c-1,0.1-1.9-0.5-2.5-1.4c-0.9-1.4-0.6-2.9,0.7-3.7c1.3-0.8,2.8-0.3,3.6,1.1
							C394.6,418.8,393.9,420.6,391.6,422z M392.5,420.1c0.8-0.5,1.1-1.6,0.4-2.8c-0.6-1-1.6-1.4-2.6-0.8c-0.9,0.6-1.1,1.6-0.5,2.7
							C390.5,420.3,391.6,420.6,392.5,420.1z"/>
						<path class="st4" d="M399.5,427l-7.1,4.3l-0.4-0.7l6.4-3.9l-1-1.7l0.6-0.4L399.5,427z"/>
						<path class="st4" d="M397.4,438.2l-0.6,0.4l-3-5l0.5-0.3l4.7,1.2c1.3,0.3,1.8,0.2,2.3-0.1c0.8-0.5,1-1.4,0.3-2.5
							c-0.5-0.8-1.1-1.3-2-1.5l0.1-0.8c1,0.2,1.9,0.8,2.5,1.9c0.9,1.4,0.7,2.8-0.5,3.5c-0.7,0.4-1.4,0.6-2.9,0.2l-3.8-1L397.4,438.2
							z"/>
						<path class="st4" d="M402.7,443.8c-1.2,0.7-2.6,0.4-3.7-1.3c-0.6-1-0.9-2.2-0.6-3.1l0.8,0c-0.2,0.7,0,1.8,0.5,2.7
							c0.7,1.2,1.6,1.5,2.5,1c0.9-0.5,1-1.4,0.3-2.8l-0.3-0.5l0.5-0.3l3.7,0.5l-2.2-3.6l0.6-0.4l2.8,4.6l-0.5,0.3l-3.7-0.5
							C404.2,441.8,403.8,443.1,402.7,443.8z"/>
					</g>
					<g>
						
							<rect x="376.3" y="389.7" transform="matrix(0.8559 -0.5172 0.5172 0.8559 -164.2541 256.4752)" class="st4" width="3.6" height="66.4"/>
					</g>
					<g>
						
							<rect x="378.5" y="423.5" transform="matrix(0.8559 -0.5172 0.5172 0.8559 -173.0151 260.1418)" class="st4" width="3.6" height="34.1"/>
					</g>
					<g>
						<path class="st3" d="M358.3,345.1l-9.3-15.4c-1.4-2.3-0.7-5.4,1.7-6.8l9.3-5.6c2.3-1.4,5.4-0.7,6.8,1.7l9.3,15.4
							c1.4,2.3,0.7,5.4-1.7,6.8l-9.3,5.6C362.8,348.2,359.8,347.5,358.3,345.1z"/>
					</g>
					<g>
						<path class="st2" d="M351.4,322.5l1.1-0.7l7.4,12.3c0.9,1.4,2.7,1.9,4.1,1c1.4-0.9,1.9-2.7,1-4.1l-7.4-12.3l1.1-0.7l7.4,12.3
							c1.2,2,0.6,4.7-1.5,6c-2,1.2-4.7,0.6-6-1.5L351.4,322.5z"/>
					</g>
					<g>
						
							<rect x="366.3" y="335" transform="matrix(0.8564 -0.5164 0.5164 0.8564 -122.8172 238.332)" class="st2" width="1.3" height="9.8"/>
					</g>
					<g>
						
							<rect x="360.7" y="337.9" transform="matrix(0.5171 0.8559 -0.8559 0.5171 483.3644 -174.7727)" class="st4" width="71.7" height="6.2"/>
					</g>
				</g>
			</g>
		</g>
	</g>
	<g class="st1">
		<g>
			<g>
				<path class="st5" d="M209.3,33.6c-0.8,10.8,0,30.9-3.9,41c-3.9,10.1-9.2,20.5-19,25c-12.1,5.6-26.4,3.2-39.3,6.5
					c-20.3,5.1-34.9,23.7-41.2,43.6c-6.3,19.9-5.6,41.3-4.8,62.2l103.4,14.4c0,0,0.5-42,9.6-53.5c9-11.5,51.9-21.8,66-53.2
					c12.7-28.3,16.6-73.1,16.6-73.1L209.3,33.6z"/>
			</g>
		</g>
		<g>
			<path class="st3" d="M234.6,62l-1.3-2.5c-0.2,0-0.4,0-0.6,0l-1.9-0.2l-0.3,2.2l-0.7-0.1l0.9-7.1l2.6,0.3c1.8,0.2,2.8,1.3,2.6,2.8
				c-0.1,1.1-0.8,1.8-1.9,2l1.4,2.6L234.6,62z M235.1,57.4c0.1-1.1-0.5-1.9-1.9-2l-1.9-0.2l-0.4,3.5l1.9,0.2
				C234.1,59,235,58.5,235.1,57.4z"/>
			<path class="st3" d="M242.1,62.3l-0.1,0.6l-5-0.6l0.9-7.1l4.8,0.6l-0.1,0.6l-4.1-0.5l-0.3,2.5l3.7,0.5l-0.1,0.6l-3.7-0.5
				l-0.3,2.6L242.1,62.3z"/>
			<path class="st3" d="M243.5,59.5c0.3-2.1,2-3.4,4.1-3.1c1,0.1,1.9,0.6,2.5,1.3l-0.5,0.4c-0.5-0.7-1.2-1-2-1.1
				c-1.7-0.2-3.1,0.9-3.3,2.6c-0.2,1.7,0.9,3.1,2.6,3.3c0.8,0.1,1.5-0.1,2.2-0.6l0.4,0.5c-0.7,0.6-1.7,0.8-2.7,0.7
				C244.7,63.3,243.3,61.6,243.5,59.5z"/>
			<path class="st3" d="M256.1,64l-0.1,0.6l-5-0.6l0.9-7.1l4.8,0.6l-0.1,0.6l-4.1-0.5l-0.3,2.5l3.7,0.5l-0.1,0.6l-3.7-0.5l-0.3,2.6
				L256.1,64z"/>
			<path class="st3" d="M258.6,57.8l0.7,0.1l-0.9,7.1l-0.7-0.1L258.6,57.8z"/>
			<path class="st3" d="M266.9,61.3c-0.2,1.5-1.4,2.3-3.2,2.1l-1.9-0.2l-0.3,2.2l-0.7-0.1l0.9-7.1l2.6,0.3
				C266.1,58.7,267.1,59.8,266.9,61.3z M266.1,61.2c0.1-1.1-0.5-1.9-1.9-2l-1.9-0.2l-0.4,3.5l1.9,0.2
				C265.2,62.9,266,62.3,266.1,61.2z"/>
			<path class="st3" d="M269.9,59.9l-2.5-0.3l0.1-0.6l5.7,0.7l-0.1,0.6l-2.5-0.3l-0.8,6.4l-0.7-0.1L269.9,59.9z"/>
		</g>
		<g>
			<g>
				<path class="st3" d="M258.7,79.3c0,0.1-9.4-1-21-2.6c-11.6-1.6-21-3-21-3.1c0-0.1,9.4,1,21,2.6
					C249.3,77.7,258.7,79.1,258.7,79.3z"/>
			</g>
		</g>
		<g>
			<g>
				<path class="st3" d="M257.5,87.7c0,0.1-9.4-1-21-2.6c-11.6-1.6-21-3-21-3.1c0-0.1,9.4,1,21,2.6
					C248.2,86.1,257.6,87.5,257.5,87.7z"/>
			</g>
		</g>
		<g>
			<g>
				<path class="st3" d="M253.7,96.3c0,0.1-9.4-1-21-2.6c-11.6-1.6-21-3-21-3.1c0-0.1,9.4,1,21,2.6
					C244.3,94.7,253.7,96.1,253.7,96.3z"/>
			</g>
		</g>
		<g>
			<g>
				<path class="st3" d="M246.7,104.9c0,0.1-9.4-1-21-2.6c-11.6-1.6-21-3-21-3.1c0-0.1,9.4,1,21,2.6
					C237.3,103.4,246.7,104.8,246.7,104.9z"/>
			</g>
		</g>
		<g>
			<g>
				<path class="st3" d="M235.5,113.6c0,0.1-9.4-1-21-2.6c-11.6-1.6-21-3-21-3.1c0-0.1,9.4,1,21,2.6
					C226.1,112,235.5,113.4,235.5,113.6z"/>
			</g>
		</g>
		<g>
			<g>
				<path class="st3" d="M277.5,82.1c0,0.1-2.3-0.1-5.2-0.6c-2.8-0.5-5.1-1-5.1-1.1c0-0.1,2.3,0.1,5.2,0.6
					C275.3,81.4,277.5,81.9,277.5,82.1z"/>
			</g>
		</g>
		<g>
			<g>
				<path class="st3" d="M277.1,89.6c0,0.1-2.3-0.1-5.2-0.6c-2.8-0.5-5.1-1-5.1-1.1c0-0.1,2.3,0.1,5.2,0.6
					C274.9,88.9,277.2,89.4,277.1,89.6z"/>
			</g>
		</g>
		<g>
			<g>
				<path class="st3" d="M274.6,100c0,0.1-2.3-0.1-5.2-0.6c-2.8-0.5-5.1-1-5.1-1.1c0-0.2,2.3,0.1,5.2,0.6
					C272.3,99.3,274.6,99.8,274.6,100z"/>
			</g>
		</g>
		<g>
			<g>
				<path class="st3" d="M270.9,108.7c0,0.1-2.3-0.1-5.2-0.6c-2.8-0.5-5.1-1-5.1-1.1c0-0.2,2.3,0.1,5.2,0.6
					C268.7,108.1,270.9,108.6,270.9,108.7z"/>
			</g>
		</g>
		<g>
			<g>
				<path class="st3" d="M263,117.1c0,0.1-2.3-0.1-5.2-0.6c-2.8-0.5-5.1-1-5.1-1.1c0-0.2,2.3,0.1,5.2,0.6
					C260.8,116.5,263,117,263,117.1z"/>
			</g>
		</g>
		<g>
			<g>
				<path class="st3" d="M226,124.1c0,0.1-14.2-1.7-31.6-4.2c-17.4-2.5-31.5-4.6-31.5-4.7c0-0.1,14.2,1.7,31.6,4.2
					C211.9,121.9,226,124,226,124.1z"/>
			</g>
		</g>
		<g>
			<g>
				<path class="st3" d="M218.7,133c0,0-0.2,0-0.7-0.1c-0.5-0.1-1.2-0.2-2-0.3c-1.8-0.3-4.3-0.6-7.3-1.1c-6.2-1-14.7-2.3-24.1-3.7
					c-9.4-1.5-17.9-2.9-24-3.9c-3-0.5-5.5-0.9-7.3-1.3c-0.9-0.2-1.5-0.3-2-0.4c-0.5-0.1-0.7-0.2-0.7-0.2c0,0,0.2,0,0.7,0.1
					c0.5,0.1,1.2,0.2,2,0.3c1.8,0.3,4.3,0.6,7.3,1.1c6.2,1,14.7,2.3,24.1,3.7c9.4,1.5,17.8,2.9,24,3.9c3,0.5,5.5,0.9,7.3,1.2
					c0.8,0.1,1.5,0.3,2,0.4C218.4,132.9,218.7,132.9,218.7,133z"/>
			</g>
		</g>
		<g>
			<g>
				<path class="st3" d="M205.5,141.1c0.1,0.1-0.9,0-2.6-0.2c-1.7-0.2-4.1-0.6-7.2-1c-6.1-0.9-14.4-2.1-23.6-3.6
					c-9.2-1.4-17.6-2.8-23.6-3.8c-3-0.5-5.4-0.9-7.1-1.2c-0.8-0.1-1.4-0.3-1.9-0.4c-0.4-0.1-0.7-0.1-0.7-0.2c0,0,0.2,0,0.7,0.1
					c0.5,0.1,1.1,0.2,2,0.3c1.8,0.3,4.2,0.6,7.2,1c6.1,0.9,14.4,2.2,23.6,3.6c9.2,1.5,17.5,2.8,23.6,3.7
					C201.2,140.4,204.2,140.8,205.5,141.1z"/>
			</g>
		</g>
		<g>
			<g>
				<path class="st3" d="M249.8,129c0,0.1-2.3-0.1-5.2-0.6c-2.8-0.5-5.1-1-5.1-1.1c0-0.2,2.3,0.1,5.2,0.6
					C247.5,128.3,249.8,128.8,249.8,129z"/>
			</g>
		</g>
		<g>
			<g>
				<path class="st3" d="M239.6,134.7c0,0.1-2.3-0.1-5.2-0.6c-2.8-0.5-5.1-1-5.1-1.1c0-0.2,2.3,0.1,5.2,0.6
					C237.3,134,239.6,134.5,239.6,134.7z"/>
			</g>
		</g>
		<g>
			<g>
				<path class="st3" d="M225.9,144.2c0,0.1-2.3-0.1-5.2-0.6c-2.8-0.5-5.1-1-5.1-1.1c0-0.2,2.3,0.1,5.2,0.6
					C223.6,143.6,225.9,144.1,225.9,144.2z"/>
			</g>
		</g>
		<g>
			<g>
				<path class="st3" d="M199.7,159.3c0,0.1-17.5-2.4-39-5.7c-21.5-3.3-39-6.1-39-6.3c0-0.1,17.5,2.4,39,5.7
					C182.2,156.3,199.7,159.2,199.7,159.3z"/>
			</g>
		</g>
		<g>
			<g>
				<path class="st3" d="M189.2,178.2c0,0.1-5.8-0.7-12.8-1.8c-7-1.1-12.7-2.2-12.7-2.3c0-0.1,5.8,0.7,12.8,1.8
					C183.5,177,189.2,178.1,189.2,178.2z"/>
			</g>
		</g>
	</g>
</g>
<g id="Background_Simple" class="st0">
	<path class="st6" d="M439.5,142.3c-12.2-30.5-32.8-58.6-61.9-74c-29-15.3-66.9-15.8-93.2,3.8c-40.2,29.9-46,96.8-92.7,114.9
		c-19.7,7.7-41.9,4.1-62.8,7.8c-47.9,8.4-83.2,58.5-78.7,106.9c4.6,48.4,40.8,93.6,87.7,106.6c107.2,29.7,190.9,10,250.6-44.3
		S469.5,217.2,439.5,142.3z"/>
</g>
<g id="Floor">
	<g>
		<g>
			<path class="st7" d="M465.4,463.8c0,0.1-96.5,0.3-215.4,0.3c-119,0-215.4-0.1-215.4-0.3s96.4-0.3,215.4-0.3
				C369,463.5,465.4,463.6,465.4,463.8z"/>
		</g>
	</g>
</g>
<g id="Character" class="st0">
	<g class="st1">
		<g>
			<g>
				<path class="st8" d="M141.5,124.5l0.1,4c0,0,1.6,31,1.5,35.7c-0.1,4.6-15.6,31.3-15.6,31.3l9.5,15.6l22.8-41l-5.5-44l-0.1-1.1"
					/>
			</g>
			<g>
				<g>
					<g>
						<path class="st8" d="M153.1,119.7c-0.1-0.3-3.1-11.3-3.1-11.3l-12,6.9c0,1,3.6,9.1,3.6,9.1l2.1,2.2c0,0,10.4-1.1,10.6-1.2
							C154.4,125.4,153.1,119.7,153.1,119.7z"/>
					</g>
					<g>
						<g>
							<g>
								<path class="st8" d="M150.4,109.2c0,0,0.1,0.1,0.1,0.2c0.5,1.2,1.8,6.7,1.2,7.1c-0.7,0.5-2.7,0.5-3-0.2
									c-0.3-0.7-1.5-7-1.5-7s-0.1-1,1.5-1.7C149.7,107.4,150.4,109.2,150.4,109.2z"/>
							</g>
							<g>
								<path class="st8" d="M146.6,108.1c0,0,0.1,0.1,0.1,0.2c0.5,1.2,1.8,6.7,1.2,7.1c-0.7,0.5-2.7,0.5-3-0.2
									c-0.3-0.7-1.5-7-1.5-7s-0.1-1,1.5-1.7C145.9,106.3,146.6,108.1,146.6,108.1z"/>
							</g>
							<g>
								<path class="st8" d="M143.1,108c0,0,0.1,0.1,0.1,0.2c0.5,1.2,1.8,6.7,1.2,7.1c-0.7,0.5-2.7,0.5-3-0.2c-0.3-0.7-1.5-7-1.5-7
									s-0.1-1,1.5-1.7C142.4,106.1,143.1,108,143.1,108z"/>
							</g>
							<g>
								<path class="st8" d="M139.7,107.9c0,0,0.1,0.1,0.1,0.2c0.5,1.2,1.8,6.7,1.2,7.1c-0.7,0.5-2.7,0.5-3-0.2
									c-0.3-0.7-1.5-7-1.5-7s-0.1-1,1.5-1.7C138.9,106,139.7,107.9,139.7,107.9z"/>
							</g>
							<g>
								<g>
									<path class="st9" d="M148.3,114.8c0.1,0-0.1-1.3-0.4-2.7c-0.3-1.5-0.7-2.7-0.8-2.6c-0.1,0,0.1,1.3,0.4,2.7
										C147.8,113.7,148.2,114.9,148.3,114.8z"/>
								</g>
							</g>
							<g>
								<g>
									<path class="st9" d="M145,115.7c0.1,0-0.2-1.8-0.7-3.9c-0.5-2.1-0.9-3.8-1-3.8c-0.1,0,0.2,1.8,0.7,3.9
										C144.5,114,144.9,115.7,145,115.7z"/>
								</g>
							</g>
							<g class="st10">
								<g>
									<path class="st9" d="M141.7,116.3c0.1,0-0.2-1.8-0.7-3.9c-0.5-2.1-0.9-3.8-1-3.8c-0.1,0,0.2,1.8,0.7,3.9
										C141.1,114.6,141.6,116.3,141.7,116.3z"/>
								</g>
							</g>
						</g>
						<g>
							<g>
								<path class="st8" d="M144.3,123.4l-3.6-2.9c-1.6-1.3-2.6-3.1-2.9-5.2l-0.2-1.6l10.9-2.2c0,0,0.1,4.1-3.1,4.1l3.9,2
									L144.3,123.4z"/>
							</g>
						</g>
					</g>
					<g>
						<g>
							<path class="st9" d="M148.8,118.5c-0.1,0-0.3-0.4-0.9-1.1c-0.6-0.6-1.8-1.3-3.3-1.3l-1.2,0l1.1-0.4c0.8-0.3,1.6-0.6,2.5-0.9
								l0,0c0.9-0.6,1.7-1.6,1.6-2.8c0-0.1,0-0.2-0.1-0.3l0.3,0.2c-3.1,0.8-5.8,1.4-7.9,1.7c-1,0.2-1.8,0.3-2.4,0.4
								c-0.6,0.1-0.9,0.1-0.9,0c0-0.1,1.2-0.3,3.2-0.8c2-0.4,4.8-1.1,7.8-1.9l0.2-0.1l0.1,0.2c0,0.1,0.1,0.2,0.1,0.4
								c0.1,0.7-0.1,1.4-0.5,2c-0.4,0.6-0.9,1-1.4,1.3l0,0l0,0c-0.9,0.3-1.8,0.6-2.6,0.9l-0.1-0.4c1.7,0.1,2.9,0.9,3.5,1.6
								C148.6,117.9,148.8,118.5,148.8,118.5z"/>
						</g>
					</g>
					<g>
						<g>
							<path class="st9" d="M148.1,113.4c0.1-0.1,0.3,0.5,0.8,1c0.3,0.2,0.7,0.4,1.1,0.2c0.4-0.2,0.5-0.8,0.5-1.4
								c-0.1-1.2-0.2-2.4-0.3-3.2c-0.1-0.8-0.2-1.3-0.2-1.3c0.1,0,0.3,0.4,0.5,1.3c0.2,0.8,0.3,2,0.5,3.2c0.1,0.7-0.1,1.5-0.8,1.8
								c-0.7,0.4-1.3,0-1.6-0.3c-0.3-0.3-0.4-0.7-0.5-0.9C148.1,113.5,148.1,113.4,148.1,113.4z"/>
						</g>
					</g>
				</g>
			</g>
		</g>
		<g>
			<g>
				<path class="st7" d="M110.7,149.7c2.7-0.2,5.1,1.5,7,3.4c1.8,1.9,3.3,4.2,5.2,6.1c1.4,1.4,3.1,2.6,4,4.4
					c1.4,2.9,0.2,6.5,1.9,9.2c1,1.5,2.7,2.4,3.7,3.8c1.3,1.8,1.2,4.3,0.9,6.5c-0.2,1.5-0.5,3.2-1.6,4.3c-0.8,0.9-2,1.4-3.1,1.7
					c-8.7,3-18.2,3.2-27,0.6"/>
			</g>
			<g>
				<g>
					<path class="st8" d="M92.4,167.5c-1-7.7,4.6-14.7,12.4-15.4c7.3-0.7,13.8,4.8,14.9,12c1,6.4,1.8,12.8,1.8,15.2
						c-0.1,7.1-4.2,9.8-5.9,10.6c-0.4,0.2-1.4,0.4-1.9,0.5l0,0c0,0,0,0,0,0.1l1.6,8.1c0.7,5.3-2.3,10-7.5,10.8
						c-5.3,0.8-9.5-3.3-10.3-8.6L92.4,167.5z"/>
				</g>
				<g>
					<g>
						<g>
							<g>
								<g>
									<g>
										<path class="st7" d="M118.5,168.3c-0.1,0.2-1-0.3-2.2-0.2c-1.2,0.2-2,0.9-2.1,0.8c-0.1-0.1,0-0.3,0.4-0.7
											c0.3-0.3,0.9-0.7,1.7-0.8c0.7-0.1,1.4,0.1,1.8,0.3C118.4,167.9,118.5,168.2,118.5,168.3z"/>
									</g>
								</g>
							</g>
						</g>
					</g>
				</g>
				<g>
					<g>
						<g>
							<g>
								<g>
									<g>
										<path class="st7" d="M107.8,170.6c-0.1,0.2-1-0.3-2.2-0.2c-1.2,0.2-2,0.9-2.1,0.8c-0.1-0.1,0-0.3,0.4-0.7
											c0.3-0.3,0.9-0.7,1.7-0.8c0.7-0.1,1.4,0.1,1.8,0.3C107.7,170.2,107.9,170.5,107.8,170.6z"/>
									</g>
								</g>
							</g>
						</g>
					</g>
				</g>
				<g>
					<g>
						<g>
							<g>
								<g>
									<path class="st7" d="M112,176.2c0-0.1,0.7-0.3,1.9-0.6c0.3-0.1,0.6-0.2,0.6-0.4c0-0.2-0.1-0.5-0.3-0.9
										c-0.4-0.7-0.8-1.4-1.2-2.2c-1.7-3.1-3-5.7-2.9-5.8c0.1-0.1,1.6,2.4,3.4,5.5c0.4,0.8,0.8,1.5,1.2,2.2
										c0.2,0.3,0.4,0.7,0.3,1.2c0,0.2-0.2,0.4-0.4,0.5c-0.2,0.1-0.4,0.1-0.5,0.1C112.7,176.2,112,176.3,112,176.2z"/>
								</g>
							</g>
						</g>
					</g>
				</g>
				<g>
					<g>
						<g>
							<g>
								<path class="st9" d="M113.7,190.4c0,0-4.6,1.1-10.8-1.6c0,0,2.7,5.8,11.2,3.8L113.7,190.4z"/>
							</g>
						</g>
					</g>
				</g>
				<g>
					<g>
						<g>
							<g>
								<path class="st9" d="M111.9,179.2c-0.5-0.5-1.3-0.7-2-0.5c-0.5,0.1-1,0.5-1.3,0.9c-0.3,0.5-0.2,1.1,0.1,1.4
									c0.4,0.4,1.1,0.4,1.6,0.2c0.5-0.2,1-0.7,1.4-1.1c0.1-0.1,0.2-0.2,0.3-0.4C112.1,179.5,112.1,179.3,111.9,179.2"/>
							</g>
						</g>
					</g>
				</g>
				<g>
					<g>
						<g>
							<g>
								<g>
									<path class="st7" d="M108.6,177.5c0.2,0,0.4,1.3,1.6,2c1.2,0.8,2.6,0.4,2.6,0.6c0,0.1-0.3,0.3-0.9,0.4
										c-0.6,0.1-1.4,0-2.2-0.4c-0.8-0.5-1.2-1.2-1.3-1.7C108.4,177.9,108.5,177.5,108.6,177.5z"/>
								</g>
							</g>
						</g>
					</g>
				</g>
				<g>
					<g>
						<g>
							<g>
								<path class="st7" d="M107,166.7c-0.1,0.3-1.3,0.4-2.7,0.7c-1.4,0.3-2.5,0.9-2.7,0.7c-0.1-0.1,0-0.5,0.5-0.8
									c0.4-0.4,1.1-0.8,1.9-1c0.8-0.2,1.6-0.2,2.2-0.1C106.8,166.3,107.1,166.5,107,166.7z"/>
							</g>
						</g>
					</g>
				</g>
				<g>
					<g>
						<g>
							<g>
								<path class="st7" d="M117.3,164.6c-0.2,0.3-1,0.1-2,0.3c-1,0.1-1.8,0.4-2,0.2c-0.1-0.1,0-0.4,0.3-0.7
									c0.3-0.3,0.9-0.6,1.6-0.7c0.7-0.1,1.3,0.1,1.7,0.3C117.2,164.2,117.3,164.4,117.3,164.6z"/>
							</g>
						</g>
					</g>
				</g>
			</g>
			<g>
				<path class="st7" d="M121.1,162.6c-1.5,2.2-6.1,0.9-8.9-0.7c-2.9,2-7,1.1-9.1-1.9c-1.6,2-4.9,1.4-6-0.9
					c-1.2-2.3-0.5-5.5,1.1-7.5c1.6-2,4-3,6.4-3.5c5.6-1,11.7,1.1,15,6.2C121.1,156.6,122,159.8,121.1,162.6"/>
			</g>
			<g>
				<path class="st7" d="M98.6,151.4c-5.2-1-10.3,4.2-10.8,8c-0.9,6.5,0,7.3-1.2,10.4c-0.8,2-3.4,4.1-4.5,6.2
					c-1.1,2.2-1.1,6-0.3,8.4c0.7,2,3.4,7.6,3.4,7.6s7.8-0.3,11.8-1.3c1-0.3,2.1-0.6,2.8-1.3c0.8-0.7-0.8-3.1-0.7-4.1
					c0.4-2.9,2.6-4.5,1.9-7.4c-0.8-3.8-3.8-4-3.7-7.8c0-2.1,3.1-5,3.4-7C100.9,161.1,102.1,154,98.6,151.4"/>
			</g>
			<g>
				<g>
					<path class="st11" d="M89.7,192.3c0,0-0.4-0.4-1-1.2c-0.7-0.8-1.6-2-2.3-3.7c-0.8-1.7-1.4-3.8-1.1-6.3c0.2-2.4,1.3-5,3.5-6.8
						c1.1-0.9,2.3-1.5,3.4-2.4c1.1-0.9,1.8-2.1,2.2-3.3c0.4-1.2,0.5-2.4,0.6-3.5c0.1-1.1,0.3-2.1,0.6-2.9c0.5-1.8,1.7-2.8,2.7-3.2
						c0.9-0.4,1.6-0.3,1.5-0.3c0,0-0.1-0.1-0.4-0.1c-0.3,0-0.7,0-1.2,0.2c-1,0.4-2.3,1.4-2.9,3.3c-0.3,0.9-0.5,1.9-0.7,3
						c-0.2,1.1-0.3,2.2-0.7,3.4c-0.4,1.2-1,2.2-2.1,3c-1,0.8-2.2,1.5-3.4,2.4c-2.3,1.9-3.4,4.6-3.6,7.1c-0.2,2.5,0.5,4.8,1.3,6.4
						c0.8,1.7,1.8,2.9,2.5,3.7c0.4,0.4,0.6,0.7,0.8,0.9C89.6,192.2,89.7,192.3,89.7,192.3z"/>
				</g>
			</g>
			<g>
				<g>
					<path class="st11" d="M127.9,188.9c0,0,0.1-0.1,0.2-0.3c0.1-0.2,0.3-0.5,0.4-0.9c0.3-0.8,0.7-2,0.7-3.5c0-1.5-0.4-3.4-1.5-5.1
						c-0.5-0.9-1.3-1.6-2-2.5c-0.7-0.8-1.3-1.7-1.6-2.8c-0.5-2.2,0.3-4.4,0.1-6.4c-0.1-2-0.6-3.8-1.4-5.1c-0.8-1.3-1.7-2.2-2.4-2.7
						c-0.4-0.2-0.6-0.4-0.8-0.5c-0.2-0.1-0.3-0.2-0.3-0.1c0,0,0.4,0.3,1,0.8c0.7,0.5,1.5,1.4,2.3,2.7c0.7,1.3,1.2,3,1.3,5
						c0,1-0.1,2-0.2,3.1c-0.1,1.1-0.2,2.2,0.1,3.4c0.3,1.2,1,2.2,1.7,3c0.7,0.8,1.4,1.6,2,2.4c1.1,1.6,1.5,3.4,1.5,4.9
						c0,1.5-0.3,2.7-0.5,3.5C128.1,188.5,127.8,188.9,127.9,188.9z"/>
				</g>
			</g>
			<g>
				<g>
					<path class="st11" d="M105.7,148.9c0,0.1,1.3-0.2,3.4,0.2c2,0.3,4.9,1.4,7,3.8c2.1,2.4,3,5.3,3.4,7.3c0.3,2.1,0.1,3.4,0.2,3.4
						c0,0,0.1-0.3,0.2-0.9c0.1-0.6,0.1-1.5,0-2.5c-0.3-2.1-1.2-5-3.3-7.6c-2.2-2.5-5.2-3.5-7.3-3.8c-1.1-0.1-1.9-0.1-2.5,0
						C106,148.8,105.7,148.9,105.7,148.9z"/>
				</g>
			</g>
			<g>
				<g>
					<path class="st11" d="M113.2,159.3c0,0,0.1-0.3,0.1-0.8c0-0.5,0-1.3-0.2-2.2c-0.4-1.8-1.7-4.3-4.2-5.7
						c-2.5-1.5-5.3-1.4-7.1-0.9c-0.9,0.3-1.6,0.6-2,0.9c-0.4,0.3-0.7,0.5-0.6,0.5c0,0.1,1-0.6,2.7-1c1.7-0.4,4.4-0.4,6.7,1
						c2.4,1.4,3.6,3.7,4.1,5.4C113.3,158.1,113.1,159.3,113.2,159.3z"/>
				</g>
			</g>
		</g>
		<g>
			<g>
				<g>
					<g>
						<path class="st12" d="M90.6,238.3c0,0,3.5,7.9,3.3,11.6c-0.2,3.7-3.8,15.8-3.8,15.8l42.3,4l0.2-9.8l-1.3-40.2l23.6-35.9
							L137,173.5L119.7,197l-4.4-1.7l-19,2.4v3.4l-0.5,0.1c0,0-6,1.1-11.8,4.6c-6.8,4.2-10.3,12.2-9.1,20.1c0.8,4.8,2.3,10.6,5.1,14
							C85.5,246.2,90.6,238.3,90.6,238.3z"/>
					</g>
				</g>
				<g>
					<path class="st13" d="M84.6,219.5c0,0-2.2-12.3-1.5-13.2c0.7-1.1,9.6-4.9,9.8-4.5l2,13.5L84.6,219.5z"/>
				</g>
				<g>
					<polygon class="st13" points="120.6,220.2 119.6,243.7 128.5,243.7 128.5,220.2 					"/>
				</g>
				<g>
					<g>
						<path class="st13" d="M105.9,231.9c0,0,0.2,0,0.5,0c0.4,0,0.9,0,1.5,0c1.4,0,3.4-0.1,5.8-0.1l0.2,0l0,0.2
							c0.1,5.7,0.1,14.1,0.1,23.6v0.3l-0.3,0c-0.2,0-0.3,0-0.5,0c-2.9,0-5.7,0-8.4,0l-0.3,0l0-0.3c0.3-6.8,0.6-12.7,0.8-17
							c0.1-2,0.2-3.7,0.3-4.9c0-0.5,0.1-0.9,0.1-1.3C105.9,232.1,105.9,231.9,105.9,231.9c0,0,0,0.2,0,0.5c0,0.4,0,0.8,0,1.3
							c0,1.2-0.1,2.9-0.1,4.9c-0.2,4.2-0.4,10.1-0.6,16.8l-0.3-0.3c2.6,0,5.5,0,8.4,0c0.2,0,0.4,0,0.5,0l-0.3,0.3
							c0-9.4,0-17.9,0.1-23.6l0.2,0.2c-2.4,0-4.3-0.1-5.7-0.1c-0.6,0-1.2,0-1.6,0C106.1,232,105.9,231.9,105.9,231.9z"/>
					</g>
				</g>
				<g>
					<polygon class="st13" points="140.2,205.6 130.8,199.7 139,187.6 148.7,193.2 					"/>
				</g>
				<g class="st14">
					<rect x="103.3" y="206.3" class="st4" width="27.5" height="8.9"/>
				</g>
				<g>
					<g>
						<path class="st7" d="M130.4,230.6c0,0,0-0.3,0-0.8c0.1-0.5,0.2-1.3,0.2-2.2c0.2-1.9,0.3-4.5,0-7.3c-0.3-2.9-0.8-5.4-1.3-7.2
							c-0.5-1.8-0.9-2.9-0.8-2.9c0,0,0.2,0.2,0.4,0.7c0.2,0.5,0.5,1.2,0.8,2.1c0.6,1.8,1.2,4.4,1.5,7.3c0.3,2.9,0.1,5.5-0.2,7.4
							c-0.1,0.9-0.3,1.7-0.4,2.2C130.5,230.3,130.4,230.6,130.4,230.6z"/>
					</g>
				</g>
			</g>
			<g>
				<g>
					<path class="st13" d="M143.7,177.4c0.1,0-0.6,0.8-1.6,2.1c-1,1.2-2.5,2.9-4.2,4.7c-0.6,0.7-1.2,1.3-1.8,1.9l-0.1,0.2l-0.2-0.1
						c-1.5-1-2.8-1.9-3.7-2.6c-0.9-0.7-1.4-1.1-1.4-1.1c0,0,0.6,0.3,1.6,0.9c1,0.6,2.3,1.4,3.8,2.4l-0.3,0c0.6-0.6,1.1-1.3,1.7-2
						c1.6-1.8,3.2-3.5,4.3-4.6C143,178,143.7,177.3,143.7,177.4z"/>
				</g>
			</g>
			<g>
				<g>
					<path class="st7" d="M153.5,185.9c0,0.1-1.1-0.4-2.8-1.3c-1.7-0.9-4-2.1-6.5-3.4c-2.5-1.4-4.8-2.6-6.5-3.6
						c-1.6-0.9-2.6-1.5-2.6-1.6c0-0.1,1.1,0.4,2.8,1.3c1.7,0.9,4,2.1,6.5,3.4c2.5,1.4,4.8,2.6,6.5,3.6
						C152.5,185.2,153.5,185.8,153.5,185.9z"/>
				</g>
			</g>
		</g>
		<g>
			<g>
				<g>
					<path class="st12" d="M58.4,431.1l-4.5,20.5l-8.3,15.2c-0.6,1.1-0.1,2.5,1,3l0,0c0.6,0.3,1.4,0.3,2-0.1
						c3.8-2.2,17.9-10.5,18.2-12c0.3-1.8,6.2-21.3,6.2-21.3L58.4,431.1z"/>
				</g>
				<g class="st15">
					<path class="st4" d="M46.6,469.8L67,456.3l-0.2,0.9c-0.2,0.7-0.6,1.4-1.2,1.9c-1.7,1.2-6.3,4.4-17,10.6
						C48,470,47.2,470.1,46.6,469.8L46.6,469.8z"/>
				</g>
				<g class="st15">
					<g>
						<path class="st4" d="M64.5,448.7c-0.6,0.2-1,1-0.8,1.6c0.2,0.6,0.9,1,1.5,0.8c0.6-0.2,1.1-1.1,0.8-1.7c-0.3-0.6-1.2-1-1.7-0.6
							"/>
					</g>
				</g>
				<g>
					<g>
						<path class="st7" d="M53.4,462c-0.1,0-0.3-1.2-1.4-2c-1-0.9-2.2-0.9-2.2-1c0-0.1,0.3-0.1,0.8-0.1c0.5,0,1.2,0.3,1.7,0.8
							c0.6,0.5,0.9,1.1,1.1,1.6C53.5,461.7,53.4,462,53.4,462z"/>
					</g>
				</g>
				<g>
					<g>
						<path class="st7" d="M51.3,464.4c-0.1,0.1-0.6-0.8-1.6-1.3c-1-0.6-1.9-0.6-1.9-0.7c0-0.1,1.1-0.3,2.2,0.3
							C51,463.3,51.4,464.3,51.3,464.4z"/>
					</g>
				</g>
				<g>
					<g>
						<path class="st7" d="M57,459.2c-0.1,0.1-0.9-1.2-2.3-2.2c-1.4-1-2.9-1.3-2.9-1.4c0-0.1,1.6,0,3.1,1.1
							C56.5,457.7,57.1,459.1,57,459.2z"/>
					</g>
				</g>
				<g>
					<g>
						<path class="st7" d="M58.9,453c-0.1,0.1-1.1-0.6-2.5-1.1c-1.4-0.4-2.7-0.3-2.7-0.5c0-0.1,1.3-0.4,2.8,0
							C58,452,58.9,453,58.9,453z"/>
					</g>
				</g>
				<g>
					<g>
						<path class="st7" d="M60.3,447.1c-0.1,0.1-1.1-0.9-2.6-1.2c-1.6-0.3-2.8,0.1-2.9,0c0-0.1,0.3-0.3,0.8-0.4
							c0.5-0.2,1.3-0.2,2.2-0.1c0.8,0.2,1.5,0.6,2,0.9C60.2,446.7,60.4,447,60.3,447.1z"/>
					</g>
				</g>
				<g>
					<g>
						<path class="st7" d="M58,444.8c0,0,0-0.3,0.2-0.8c0.2-0.5,0.5-1.2,1.1-1.9c0.3-0.3,0.7-0.8,1.3-0.9c0.3-0.1,0.7,0.1,0.9,0.4
							c0.2,0.3,0.2,0.7,0.1,1c-0.3,1.3-1.8,2.3-3.3,2.1c-1.5-0.2-2.6-1.4-2.9-2.6c-0.1-0.3-0.1-0.7,0.2-1c0.2-0.3,0.7-0.3,1-0.2
							c0.6,0.2,0.9,0.7,1.2,1c0.6,0.7,0.9,1.4,1,1.9c0.1,0.5,0.2,0.8,0.1,0.8c-0.1,0-0.3-1.1-1.4-2.5c-0.3-0.3-0.6-0.7-1-0.9
							c-0.2-0.1-0.4,0-0.5,0.1c-0.1,0.1-0.1,0.4-0.1,0.7c0.3,1,1.3,2.1,2.6,2.2c1.3,0.2,2.5-0.7,2.8-1.7c0.1-0.2,0.1-0.5,0-0.7
							c-0.1-0.2-0.3-0.3-0.5-0.2c-0.4,0.1-0.8,0.4-1.1,0.7C58.3,443.6,58.1,444.8,58,444.8z"/>
					</g>
				</g>
			</g>
			<g class="st16">
				<polygon points="57.8,433.3 57.2,436.3 71.7,440.5 72.9,436.4 58.4,431.1 				"/>
			</g>
		</g>
		<g>
			<g>
				<g>
					<path class="st12" d="M124.6,438.7l-1.2,16.4c0,0,16.2,6.7,16.3,9.8l-31.8-1.2l0.9-25.6L124.6,438.7z"/>
				</g>
				<g class="st15">
					<g>
						<path class="st4" d="M113.6,453.3c-0.6,0.1-1.1,0.8-1,1.4c0.1,0.6,0.8,1.1,1.4,1c0.6-0.1,1.2-0.9,1-1.5
							c-0.2-0.6-1-1.1-1.6-0.8"/>
					</g>
				</g>
				<g class="st15">
					<path class="st4" d="M107.9,463.6l0.2-2.6l30.4,2.1c0,0,1.4,0.7,1.2,1.7L107.9,463.6z"/>
				</g>
				<g>
					<g>
						<path class="st7" d="M123.9,454.9c0,0.2-0.8,0.2-1.6,0.7c-0.8,0.4-1.2,1.1-1.4,1c-0.1,0,0.1-1,1.1-1.5
							C123.1,454.6,124,454.8,123.9,454.9z"/>
					</g>
				</g>
				<g>
					<g>
						<path class="st7" d="M127.2,456.4c0,0.2-0.7,0.4-1.2,1c-0.6,0.6-0.7,1.3-0.9,1.3c-0.1,0-0.2-0.9,0.5-1.7
							C126.3,456.3,127.2,456.3,127.2,456.4z"/>
					</g>
				</g>
				<g>
					<g>
						<path class="st7" d="M129,460.5c-0.1,0-0.3-0.8,0.1-1.6c0.4-0.8,1.2-1.1,1.2-1c0.1,0.1-0.4,0.6-0.8,1.3
							C129.2,459.8,129.1,460.5,129,460.5z"/>
					</g>
				</g>
				<g>
					<g>
						<path class="st7" d="M123.8,451.2c-0.1,0.1-0.8-0.1-1.7-0.1c-0.9,0-1.6,0.3-1.7,0.1c-0.1-0.1,0.6-0.7,1.6-0.7
							C123.2,450.5,123.9,451,123.8,451.2z"/>
					</g>
				</g>
			</g>
			<g class="st16">
				<polygon points="124.4,441.9 124.2,444.9 108.5,444.1 108.7,440.7 				"/>
			</g>
			<g>
				<g>
					<path class="st7" d="M124,447.9c0,0.1-0.6,0.1-1.6-0.1c-0.5-0.1-1.1-0.3-1.6-0.6c-0.3-0.1-0.6-0.3-0.9-0.5
						c-0.1-0.1-0.3-0.2-0.5-0.4c-0.2-0.2-0.2-0.6,0-0.8c0.2-0.2,0.5-0.3,0.7-0.3c0.2,0,0.4,0.1,0.6,0.1c0.4,0.1,0.7,0.2,1,0.4
						c0.6,0.3,1.1,0.7,1.4,1c0.7,0.7,0.9,1.3,0.9,1.3c-0.1,0-0.4-0.5-1.1-1c-0.4-0.3-0.8-0.6-1.4-0.9c-0.3-0.1-0.6-0.2-0.9-0.3
						c-0.3-0.1-0.6-0.1-0.7,0c0,0.1,0,0.1,0,0.2c0.1,0.1,0.2,0.2,0.3,0.3c0.3,0.2,0.6,0.4,0.8,0.5c0.5,0.3,1.1,0.5,1.5,0.7
						C123.4,447.7,124,447.8,124,447.9z"/>
				</g>
			</g>
			<g>
				<g>
					<path class="st7" d="M123.8,448.1c-0.1,0-0.3-0.5-0.4-1.6c0-0.5,0.1-1.1,0.3-1.7c0.1-0.3,0.3-0.6,0.4-1c0.2-0.3,0.4-0.7,1-0.8
						c0.3,0,0.6,0.3,0.6,0.5c0.1,0.2,0.1,0.4,0.1,0.6c0,0.4,0,0.7,0,1.1c-0.1,0.7-0.4,1.2-0.7,1.6c-0.7,0.8-1.3,1-1.3,0.9
						c0-0.1,0.5-0.4,1-1.1c0.2-0.4,0.5-0.9,0.6-1.5c0-0.3,0.1-0.6,0-0.9c0-0.3-0.2-0.6-0.3-0.6c-0.2,0-0.4,0.2-0.6,0.5
						c-0.2,0.3-0.3,0.6-0.4,0.8c-0.2,0.6-0.3,1.1-0.4,1.6C123.7,447.5,123.9,448.1,123.8,448.1z"/>
				</g>
			</g>
		</g>
		<g>
			<g>
				<g>
					<g>
						<path class="st8" d="M84.3,229l8.2,0.5c0.5,2.7,2.3,6.8,2.3,6.8c6.6-11.5,11.8-26.9,13-33.1c-0.2-0.6-0.4-1.3-0.7-2.1
							c-0.3-0.9,0-2.6,0.1-3.5c0.2-1.4,0.6-3.2,0.7-4.1c0.4-2.6,0.8-3,1.7-2.7c1.2,0.4-0.5,7.4,0.5,7.5c0.5,0.1,1.2-2.3,1.4-4.3
							c0.2-2,1.1-8,1.7-8.4c0.9-0.6,1.8,0.3,1.5,2.3c-0.2,2-0.5,7.8,0.5,7.9c1,0.1,1.9-9.9,1.9-9.9s-0.2-2.2,1-2.1
							c2.2,0.1,0.5,10.6,0.3,11.6c-0.1,0.7,1,0.8,1.1,0.1c0.1-0.8,0.6-10,2.8-9.9c1.7,0.1-1.3,8.7-0.4,10.7c0.9,2,1.6-6.8,3.2-6.7
							c0.6,0,1,0.2-0.1,5.1c-0.6,2.7-2.3,7.6-3.8,11.6c-2.5,13.8-13.7,57.7-31.3,49.7c-9.8-4.5-14.4-26.8-14.4-26.8L84.3,229z"/>
					</g>
				</g>
				<g>
					<g>
						<g>
							<path class="st9" d="M121.5,206.3c0,0,0-0.1,0.1-0.3c0.1-0.2,0.2-0.5,0.3-0.9c0.3-0.8,0.7-1.9,1.1-3.3
								c0.5-1.4,1.1-3.2,1.7-5.3c0.3-1,0.6-2.2,0.8-3.4c0.1-0.6,0.2-1.2,0.3-1.9c0-0.3,0.1-0.6,0-1c0-0.3-0.1-0.6-0.3-0.6
								c-0.3-0.1-0.4,0.1-0.6,0.4c-0.2,0.3-0.3,0.6-0.4,0.9c-0.2,0.7-0.4,1.4-0.6,2.1c-0.2,0.7-0.4,1.5-0.6,2.2
								c-0.1,0.4-0.2,0.7-0.5,1.2c-0.1,0-0.1,0.1-0.2,0.1c-0.1,0-0.2,0-0.3-0.1c-0.1-0.1-0.2-0.2-0.2-0.3c-0.1-0.2-0.2-0.4-0.2-0.6
								c-0.1-1.7,0.2-3.3,0.5-5c0.1-0.8,0.3-1.7,0.4-2.6c0.1-0.4,0.1-0.9,0.1-1.3c0-0.4-0.1-0.9-0.2-1c-0.2-0.1-0.6,0.2-0.8,0.5
								c-0.2,0.4-0.4,0.8-0.5,1.2c-0.3,0.9-0.5,1.8-0.6,2.7c-0.2,0.9-0.3,1.9-0.4,2.8c0,0.5-0.1,1-0.1,1.4l-0.1,0.7
								c0,0.2,0,0.6-0.3,0.8c-0.3,0.2-0.7,0.2-1,0c-0.2-0.1-0.3-0.3-0.3-0.5c0-0.1,0-0.2,0-0.3l0-0.2c0.1-0.5,0.1-1,0.2-1.5
								c0.1-1,0.3-2,0.4-3c0.1-1,0.2-2,0.2-3c0-1,0-2.1-0.3-3c-0.1-0.3-0.2-0.5-0.4-0.6c-0.2-0.1-0.4,0-0.6,0.2
								c-0.3,0.4-0.3,1.1-0.3,1.6l0,0l0,0c-0.2,2-0.4,3.9-0.7,5.8c-0.1,1-0.3,1.9-0.5,2.8c-0.1,0.2-0.1,0.5-0.2,0.7
								c-0.1,0.2-0.1,0.5-0.5,0.7c-0.3,0.1-0.5,0-0.6-0.1c-0.1-0.1-0.2-0.3-0.2-0.4c-0.1-0.2-0.1-0.5-0.2-0.7
								c-0.3-1.9-0.2-3.7,0-5.5c0-0.9,0.3-1.8,0.1-2.6c-0.1-0.4-0.2-0.8-0.5-1c-0.1-0.1-0.3-0.1-0.4-0.1c-0.1,0-0.2,0.1-0.2,0.1
								c-0.1,0.1-0.1,0-0.1,0.1c-0.3,0.7-0.5,1.6-0.7,2.3c-0.2,0.8-0.3,1.6-0.4,2.4c-0.1,0.8-0.2,1.6-0.3,2.3
								c-0.1,0.8-0.2,1.5-0.3,2.3c-0.1,0.7-0.3,1.5-0.6,2.2c-0.1,0.2-0.1,0.3-0.2,0.5c-0.1,0.2-0.2,0.4-0.5,0.5
								c-0.2,0.1-0.3-0.1-0.4-0.2c-0.1-0.1-0.1-0.2-0.1-0.3c0-0.2-0.1-0.4-0.1-0.6c0-1.4,0.2-2.7,0.3-4c0-0.6,0.1-1.2,0-1.8
								c0-0.3-0.1-0.6-0.3-0.6c-0.2-0.1-0.5-0.1-0.7,0c-0.4,0.3-0.5,0.9-0.6,1.4c-0.1,0.5-0.2,1-0.3,1.5c-0.3,2-0.7,3.7-0.9,5.1
								c-0.1,0.7-0.1,1.3,0,1.8c0.1,0.5,0.3,1,0.4,1.3c0.1,0.3,0.2,0.6,0.2,0.8c0.1,0.2,0.1,0.3,0.1,0.3c0,0,0-0.1-0.1-0.3
								c-0.1-0.2-0.2-0.5-0.3-0.8c-0.1-0.4-0.3-0.8-0.4-1.3c-0.1-0.5-0.1-1.2,0-1.9c0.2-1.4,0.5-3.1,0.8-5.1c0.1-0.5,0.1-1,0.3-1.6
								c0.1-0.3,0.1-0.5,0.2-0.8c0.1-0.3,0.2-0.6,0.5-0.8c0.3-0.2,0.7-0.1,1,0c0.4,0.2,0.4,0.6,0.5,0.9c0.1,0.6,0.1,1.3,0,1.9
								c-0.1,1.3-0.3,2.6-0.2,4c0,0.2,0,0.3,0.1,0.5c0,0.2,0.1,0.2,0.1,0.2c0,0,0.2-0.1,0.2-0.3c0.1-0.1,0.2-0.3,0.2-0.5
								c0.3-0.7,0.4-1.4,0.6-2.1c0.1-0.7,0.2-1.5,0.3-2.3c0.1-0.8,0.2-1.6,0.3-2.3c0.1-0.8,0.3-1.6,0.4-2.4c0.2-0.8,0.3-1.6,0.7-2.5
								c0-0.1,0.2-0.3,0.3-0.3c0.1-0.1,0.2-0.1,0.4-0.1c0.3-0.1,0.6,0,0.8,0.1c0.5,0.3,0.6,0.8,0.7,1.3c0.1,0.5,0,0.9,0,1.4
								c0,0.4-0.1,0.9-0.1,1.3c-0.1,1.8-0.2,3.6,0.1,5.4c0,0.2,0.1,0.4,0.2,0.6c0,0.1,0.1,0.2,0.1,0.2c0,0,0,0,0,0l0,0l0,0
								c0,0.2,0,0,0,0.1c0,0,0,0,0-0.1c0,0,0.2-0.3,0.2-0.5c0.1-0.2,0.1-0.4,0.2-0.7c0.2-0.9,0.4-1.8,0.5-2.8
								c0.3-1.9,0.5-3.8,0.7-5.8l0,0c0-0.6,0-1.3,0.4-2c0.3-0.3,0.7-0.5,1.2-0.3c0.4,0.2,0.6,0.6,0.7,0.9c0.3,1.1,0.3,2.1,0.3,3.2
								c0,1-0.1,2.1-0.2,3.1c-0.1,1-0.2,2-0.4,3c-0.1,0.5-0.2,1-0.2,1.5c-0.1,0.3,0,0.3,0,0.4c0.1,0.1,0.3,0.1,0.4,0
								c0.1-0.1,0.1-0.2,0.1-0.5l0.1-0.7c0-0.5,0.1-1,0.1-1.4c0.1-1,0.2-1.9,0.4-2.8c0.2-0.9,0.4-1.9,0.7-2.8
								c0.2-0.4,0.3-0.9,0.6-1.3c0.1-0.2,0.3-0.4,0.5-0.6c0.2-0.1,0.5-0.3,0.9-0.1c0.3,0.2,0.4,0.5,0.5,0.7c0,0.2,0.1,0.5,0,0.7
								c0,0.5-0.1,0.9-0.1,1.3c-0.1,0.9-0.3,1.7-0.4,2.6c-0.3,1.7-0.7,3.3-0.5,4.9c0,0.2,0.1,0.4,0.1,0.5c0,0.1,0.1,0.1,0.1,0.2
								c0,0,0,0,0,0c0,0.1,0,0,0,0c0-0.1,0,0,0-0.1c0.2-0.2,0.3-0.6,0.4-1c0.2-0.7,0.4-1.5,0.6-2.2c0.2-0.7,0.4-1.4,0.6-2.1
								c0.1-0.3,0.3-0.7,0.5-1c0.1-0.2,0.2-0.3,0.4-0.4c0.1-0.1,0.2-0.1,0.3-0.1c0.1,0,0.2,0,0.3,0c0.2,0,0.5,0.2,0.5,0.4
								c0.1,0.2,0.1,0.4,0.1,0.6c0,0.4,0,0.7-0.1,1c-0.1,0.7-0.2,1.3-0.3,1.9c-0.2,1.2-0.5,2.3-0.8,3.4c-0.6,2.1-1.3,3.8-1.8,5.3
								c-0.5,1.4-0.9,2.5-1.2,3.3c-0.1,0.4-0.3,0.6-0.3,0.8C121.5,206.2,121.5,206.3,121.5,206.3z"/>
						</g>
					</g>
				</g>
			</g>
			<g>
				<path class="st12" d="M75.7,229.9c1.6,5.6,4.7,14.3,8.1,23.5c0.5,1.3,2.3,1.4,2.9,0.1l8.2-17.3c0,0-2-14.3-1.8-13.7
					c0.2,0.5-16.9,1.8-16.9,1.8L75.7,229.9z"/>
			</g>
			<g>
				<g>
					<path class="st7" d="M97.9,231.3c0,0-0.2-0.2-0.6-0.3c-0.4-0.1-1.1-0.1-1.6,0.4l-0.2,0.2l-0.1-0.3c-0.4-1.1-1-2.6-1.6-4.2
						c-1.3-3.7-2.3-6.7-2.2-6.8c0.1,0,1.3,2.9,2.6,6.6c0.6,1.6,1.1,3.1,1.4,4.2l-0.3-0.1c0.3-0.3,0.7-0.5,1.1-0.5
						c0.4,0,0.7,0,0.9,0.1C97.8,231,97.9,231.3,97.9,231.3z"/>
				</g>
			</g>
			<g>
				<g>
					<path class="st7" d="M86.2,247.8c-0.1,0,0.4-1,1.2-2.5c0.8-1.5,1.9-3.5,3.2-5.8c1.3-2.2,2.4-4.2,3.3-5.7
						c0.9-1.4,1.4-2.3,1.5-2.3c0.1,0-0.4,1-1.2,2.5c-0.8,1.5-1.9,3.5-3.2,5.8c-1.3,2.2-2.4,4.2-3.3,5.7
						C86.9,247,86.3,247.9,86.2,247.8z"/>
				</g>
			</g>
			<g>
				<g>
					<path class="st13" d="M80.8,245.2c0,0,0.5-0.4,1.4-1c0.9-0.6,2.3-1.4,3.9-2.4l-0.1,0.3c-0.9-2.1-2-4.6-3.1-7.3
						c-1.4-3.4-2.7-6.5-3.6-8.8l0.3,0.1c-1.3,0.7-2.4,1.3-3.1,1.6c-0.7,0.4-1.2,0.6-1.2,0.5c0,0,0.4-0.3,1.1-0.7
						c0.7-0.4,1.7-1,3-1.8l0.2-0.1l0.1,0.2c1,2.3,2.3,5.4,3.7,8.7c1.1,2.7,2.1,5.2,3,7.3l0.1,0.2l-0.2,0.1c-1.7,1-3,1.7-4,2.3
						C81.4,245,80.8,245.3,80.8,245.2z"/>
				</g>
			</g>
		</g>
		<g>
			<g>
				<g>
					<path class="st7" d="M125.3,442.8c3-0.1,5.5-2.5,5.7-5.5c1.7-27.7,9.4-153.6,7.9-157.5c-1.7-4.4-6.3-19.9-6.3-19.9L91.7,258
						c0,0-10.2,16.1-11.6,22.2c-1.3,5.5-38.3,122.1-42.9,146.8c-0.5,2.5,1,5,3.5,5.8L125.3,442.8z"/>
				</g>
			</g>
			<g>
				<g>
					<path class="st11" d="M99.8,258.9c0,0-0.1,0.2-0.2,0.4c-0.1,0.3-0.3,0.7-0.6,1.3c-0.5,1.1-1.3,2.7-2.3,4.8
						c-0.4,1.1-0.9,2.3-1.5,3.6c-0.6,1.3-1.2,2.7-1.7,4.3c-0.6,1.5-1.2,3.2-1.8,4.9c-0.6,1.8-1.2,3.6-1.8,5.6
						c-0.6,2-1.2,4.1-1.8,6.2c-0.6,2.2-1.2,4.5-1.8,6.8c-0.5,2.4-1.1,4.8-1.7,7.3c-0.5,2.5-1.1,5.1-1.6,7.8
						c-1.1,5.4-2.2,11-3.3,16.9c-1.2,5.8-2.4,11.9-3.8,18.1c-0.7,3.1-1.5,6.1-2.2,9.1c-0.8,3-1.6,5.9-2.5,8.8
						c-1.7,5.7-3.6,11.1-5.6,16.3c-3.9,10.2-8,19.3-11.5,26.7c-3.5,7.5-6.6,13.5-8.7,17.6c-1.1,2-1.9,3.6-2.4,4.7
						c-0.3,0.5-0.5,0.9-0.6,1.2c-0.1,0.3-0.2,0.4-0.2,0.4s0.1-0.2,0.2-0.4c0.1-0.3,0.3-0.7,0.6-1.2c0.5-1.1,1.3-2.7,2.4-4.8
						c2-4.2,5-10.2,8.5-17.7c3.5-7.5,7.5-16.5,11.4-26.8c1.9-5.1,3.8-10.6,5.5-16.2c0.9-2.8,1.7-5.8,2.5-8.7c0.7-3,1.5-6,2.2-9.1
						c1.4-6.2,2.6-12.2,3.8-18c1.2-5.8,2.2-11.5,3.3-16.9c0.5-2.7,1.1-5.3,1.7-7.8c0.6-2.5,1.2-5,1.7-7.4c0.6-2.4,1.2-4.6,1.8-6.8
						c0.6-2.2,1.3-4.3,1.8-6.2c0.7-2,1.3-3.8,1.9-5.6c0.6-1.8,1.3-3.4,1.8-4.9c0.6-1.6,1.2-3,1.7-4.2c0.6-1.3,1.1-2.5,1.5-3.5
						c1-2.1,1.8-3.7,2.4-4.8c0.3-0.5,0.5-0.9,0.6-1.2C99.7,259,99.8,258.9,99.8,258.9z"/>
				</g>
			</g>
			<g>
				<g>
					<path class="st11" d="M63.7,435.2c0,0,0-0.2,0.1-0.5c0.1-0.3,0.2-0.8,0.4-1.3c0.3-1.2,0.8-2.9,1.4-5.1c1.2-4.5,3-10.9,5.2-18.8
						c2.2-7.9,4.7-17.4,7.5-27.9c1.4-5.3,2.8-10.8,4.3-16.5c1.4-5.7,2.9-11.7,4.4-17.8c1.5-6.1,2.9-12,4.3-17.8
						c1.3-5.8,2.6-11.3,3.9-16.6c2.4-10.6,4.5-20.1,6.3-28.2c1.7-8,3.1-14.5,4.1-19c0.5-2.2,0.8-4,1.1-5.2c0.1-0.6,0.2-1,0.3-1.3
						c0.1-0.3,0.1-0.5,0.1-0.5s0,0.2-0.1,0.5c-0.1,0.3-0.1,0.8-0.2,1.4c-0.2,1.2-0.6,3-1,5.2c-0.5,2.3-1,5-1.6,8.2
						c-0.7,3.2-1.4,6.8-2.3,10.9c-1.7,8-3.8,17.6-6.2,28.2c-1.2,5.3-2.5,10.9-3.8,16.6c-1.4,5.8-2.8,11.7-4.3,17.8
						c-1.5,6.1-3,12-4.4,17.8c-1.4,5.7-2.9,11.2-4.3,16.5c-2.8,10.5-5.4,19.9-7.6,27.9c-1.1,4-2.1,7.5-3,10.7
						c-0.9,3.1-1.7,5.8-2.3,8c-0.7,2.2-1.2,3.9-1.5,5.1c-0.2,0.6-0.3,1-0.4,1.3C63.8,435.1,63.7,435.2,63.7,435.2z"/>
				</g>
			</g>
			<g>
				<g>
					<path class="st11" d="M112.4,258.9c0,0,0,0.2,0.1,0.5c0,0.3,0.1,0.8,0.2,1.4c0.1,0.6,0.2,1.4,0.3,2.2c0.1,0.9,0.1,1.9,0.2,3.1
						c0,0.6,0.1,1.2,0.1,1.8c0,0.6,0,1.3,0,2c0,0.7,0,1.4,0,2.2c0,0.8-0.1,1.6-0.1,2.4c0,0.8-0.1,1.7-0.1,2.5
						c-0.1,0.9-0.2,1.8-0.2,2.7c-0.1,1.9-0.5,3.8-0.7,5.9c-0.6,4.1-1.4,8.5-2.5,13.3c-1.1,4.7-2.3,9.8-3.6,15.1
						c-1.3,5.3-2.6,10.9-3.7,16.7c-1.1,5.8-2,11.9-2.8,18.2c-0.8,6.3-1.5,12.4-2.1,18.3c-0.6,5.9-1.3,11.6-2,17
						c-0.4,2.7-0.7,5.3-1.1,7.9c-0.4,2.6-0.8,5-1.2,7.4c-0.5,2.4-0.9,4.7-1.3,6.9c-0.5,2.2-0.9,4.3-1.4,6.3c-0.5,2-1,3.9-1.5,5.7
						c-0.5,1.8-1.1,3.5-1.5,5c-0.3,0.8-0.5,1.5-0.7,2.3c-0.3,0.7-0.5,1.4-0.8,2.1c-0.5,1.3-0.9,2.5-1.3,3.6
						c-0.9,2.1-1.6,3.8-2.1,4.9c-0.2,0.5-0.4,1-0.6,1.3c-0.1,0.3-0.2,0.4-0.2,0.4s0-0.2,0.2-0.4c0.1-0.3,0.3-0.7,0.5-1.3
						c0.5-1.1,1.2-2.8,2-4.9c0.4-1.1,0.8-2.3,1.3-3.6c0.2-0.7,0.5-1.3,0.7-2.1c0.2-0.7,0.5-1.5,0.7-2.3c0.5-1.6,1-3.2,1.5-5
						c0.5-1.8,0.9-3.7,1.5-5.7c0.4-2,0.9-4.1,1.4-6.3c0.5-2.2,0.8-4.5,1.3-6.9c0.4-2.4,0.8-4.9,1.2-7.4c0.3-2.6,0.7-5.2,1.1-7.9
						c0.7-5.4,1.3-11.1,1.9-17c0.6-5.9,1.3-12,2.1-18.3c0.8-6.3,1.7-12.3,2.8-18.2c1.1-5.8,2.5-11.4,3.7-16.7
						c1.3-5.3,2.5-10.3,3.6-15.1c1.1-4.7,1.9-9.2,2.5-13.3c0.3-2,0.6-4,0.7-5.8c0.1-0.9,0.2-1.8,0.3-2.7c0.1-0.9,0.1-1.7,0.1-2.5
						c0-0.8,0.1-1.6,0.1-2.4c0-0.8,0-1.5,0-2.2c0-0.7,0-1.4,0-2c0-0.6-0.1-1.2-0.1-1.8c-0.1-1.2-0.1-2.2-0.1-3.1
						c-0.1-0.9-0.2-1.6-0.2-2.2c-0.1-0.6-0.1-1-0.1-1.4C112.4,259.1,112.4,258.9,112.4,258.9z"/>
				</g>
			</g>
			<g>
				<g>
					<path class="st11" d="M107.9,441.6c0,0,0-0.2-0.1-0.5c-0.1-0.3-0.1-0.8-0.3-1.4c-0.1-0.6-0.2-1.3-0.4-2.2
						c-0.2-0.9-0.4-1.9-0.5-3c-0.1-1.2-0.3-2.4-0.4-3.8c-0.2-1.4-0.2-2.9-0.3-4.6c0-0.8-0.1-1.7-0.1-2.6c0-0.9,0-1.8,0-2.7
						c0-0.9,0-1.9,0-2.9c0-1,0.1-2,0.1-3c0-1,0.1-2.1,0.1-3.2c0.1-1.1,0.2-2.2,0.3-3.3c0.1-2.3,0.4-4.6,0.7-7c0.3-2.4,0.7-4.9,1-7.5
						c0.4-2.6,0.8-5.2,1.4-7.9c2-10.8,4.7-22.5,7.2-34.9c2.5-12.4,4.2-24.3,5.3-35.2c1.1-10.9,1.5-20.8,1.6-29c0-4.1,0-7.9,0-11.2
						c-0.1-3.3-0.1-6.1-0.2-8.4c-0.1-2.3-0.2-4.1-0.2-5.3c0-0.6,0-1.1-0.1-1.4c0-0.3,0-0.5,0-0.5s0,0.2,0.1,0.5
						c0,0.3,0.1,0.8,0.1,1.4c0.1,1.2,0.2,3,0.3,5.3c0.1,2.3,0.2,5.1,0.3,8.4c0.1,3.3,0.1,7,0.1,11.2c-0.1,8.3-0.5,18.2-1.5,29.1
						c-1,10.9-2.7,22.9-5.2,35.3c-2.5,12.4-5.2,24.1-7.2,34.9c-0.5,2.7-0.9,5.3-1.4,7.9c-0.4,2.6-0.8,5-1.1,7.5
						c-0.3,2.4-0.6,4.7-0.7,7c-0.1,1.1-0.2,2.2-0.3,3.3c0,1.1-0.1,2.1-0.1,3.2c0,1-0.1,2-0.1,3c0,1,0,1.9,0,2.9c0,0.9,0,1.8,0,2.7
						c0,0.9,0.1,1.7,0.1,2.5c0.1,1.6,0.1,3.2,0.3,4.6c0.1,1.4,0.3,2.7,0.4,3.8c0.1,1.2,0.3,2.2,0.4,3c0.1,0.9,0.3,1.6,0.4,2.2
						c0.1,0.6,0.2,1,0.2,1.4C107.9,441.5,107.9,441.6,107.9,441.6z"/>
				</g>
			</g>
			<g>
				<g>
					<path class="st11" d="M130.3,259.8c0,0,0.1,0.1,0.1,0.4c0.1,0.3,0.2,0.8,0.4,1.3c0.2,0.6,0.4,1.3,0.6,2.2
						c0.3,0.9,0.5,1.9,0.7,3c0.2,1.1,0.5,2.4,0.7,3.8c0.2,1.4,0.4,2.9,0.6,4.5c0.1,1.6,0.3,3.4,0.4,5.2c0,1.9,0.2,3.8,0.1,5.9
						c0,4.1-0.3,8.6-0.9,13.5c-0.6,4.8-1.4,9.9-2.3,15.3c-1,5.4-2.1,11-3.1,16.8c-1.1,5.8-2.1,11.9-2.9,18.1
						c-0.9,6.2-1.6,12.3-2.2,18.2c-0.6,5.9-1,11.6-1.3,17c-0.3,5.4-0.5,10.6-0.6,15.5c-0.1,4.8-0.2,9.4-0.1,13.5
						c0,4.1,0.1,7.8,0.2,11.1c0.1,3.3,0.2,6.1,0.3,8.4c0.1,2.3,0.2,4.1,0.3,5.3c0,0.6,0,1,0.1,1.4c0,0.3,0,0.5,0,0.5s0-0.2-0.1-0.5
						c0-0.3-0.1-0.8-0.1-1.4c-0.1-1.2-0.2-3-0.4-5.3c-0.1-2.3-0.3-5.1-0.4-8.4c-0.1-3.3-0.2-7-0.3-11.1c0-4.1,0-8.6,0.1-13.5
						c0.1-4.9,0.3-10,0.6-15.5c0.3-5.4,0.7-11.2,1.3-17.1c0.6-5.9,1.3-12,2.2-18.3c0.9-6.2,1.8-12.3,2.9-18.1
						c1.1-5.8,2.2-11.5,3.2-16.8c1-5.4,1.8-10.5,2.4-15.3c0.6-4.8,0.9-9.3,0.9-13.4c0.1-2.1-0.1-4-0.1-5.9c-0.1-1.8-0.3-3.6-0.4-5.2
						c-0.2-1.6-0.4-3.1-0.6-4.5c-0.2-1.4-0.5-2.6-0.7-3.8c-0.2-1.1-0.4-2.1-0.7-3c-0.2-0.9-0.4-1.6-0.6-2.2c-0.1-0.6-0.3-1-0.3-1.3
						C130.3,259.9,130.3,259.8,130.3,259.8z"/>
				</g>
			</g>
		</g>
	</g>
</g>
<g id="Icons">
	<g>
		<g>
			<g>
				<path class="st17" d="M436.4,213l-100,14.1c-3.7,0.5-7.1-2.1-7.7-5.8l-13.3-94.2c-0.5-3.7,2.1-7.1,5.8-7.7l100-14.1
					c3.7-0.5,7.1,2.1,7.7,5.8l13.3,94.2C442.7,209,440.1,212.4,436.4,213z"/>
			</g>
		</g>
		<g>
			<g>
				<g>
					<g>
						<path class="st2" d="M400.1,179.7c0,0-0.3,0.1-0.8,0.2c-0.5,0.1-1.3,0.2-2.2,0.4c-2,0.3-4.7,0.7-8.1,1.2
							c-6.9,1-16.5,2.4-27.3,4l-0.2,0l-0.1-0.2c-0.4-1.4-0.8-2.9-1.3-4.4c-3.7-13-7-24.6-9.2-32.1l0.2,0.1c-3.1,0.4-5.5,0.7-7.3,1
							c-0.8,0.1-1.5,0.2-1.9,0.2c-0.4,0-0.7,0.1-0.7,0.1c0,0,0.2-0.1,0.7-0.1c0.5-0.1,1.1-0.2,1.9-0.3c1.7-0.3,4.2-0.6,7.3-1.1
							l0.1,0l0,0.1c2.2,7.6,5.6,19.1,9.4,32.1c0.4,1.5,0.9,3,1.3,4.4l-0.3-0.2c10.8-1.5,20.4-2.9,27.3-3.8c3.4-0.5,6.2-0.8,8.1-1.1
							c0.9-0.1,1.7-0.2,2.2-0.3C399.8,179.7,400.1,179.7,400.1,179.7z"/>
					</g>
				</g>
				<g>
					<g>
						<path class="st2" d="M359.5,177.4c0,0,0.1,0,0.2,0c0.2,0,0.3-0.1,0.6-0.1c0.5-0.1,1.3-0.2,2.2-0.4c2-0.3,4.7-0.7,8.2-1.3
							c7-1,16.9-2.5,28.3-4.2l-0.2,0.2c0.2-4.9,0.3-10.2,0.5-15.6c0.1-2.8,0.2-5.6,0.3-8.2l0.3,0.3c-13.3,1.9-25,3.5-33.4,4.7
							c-4.2,0.6-7.5,1-9.9,1.3c-1.1,0.1-2,0.3-2.7,0.3c-0.3,0-0.5,0.1-0.7,0.1c-0.2,0-0.2,0-0.2,0c0,0,0.1,0,0.2-0.1
							c0.2,0,0.4-0.1,0.7-0.1c0.6-0.1,1.5-0.2,2.7-0.4c2.4-0.4,5.7-0.9,9.9-1.5c8.4-1.2,20.1-2.9,33.4-4.9l0.3,0l0,0.3
							c-0.1,2.6-0.2,5.4-0.3,8.2c-0.2,5.5-0.4,10.8-0.5,15.6l0,0.2l-0.2,0c-11.4,1.6-21.3,3-28.3,4c-3.5,0.5-6.3,0.8-8.2,1.1
							c-0.9,0.1-1.7,0.2-2.2,0.3c-0.2,0-0.4,0-0.6,0.1C359.5,177.4,359.5,177.4,359.5,177.4z"/>
					</g>
				</g>
				<g>
					<g>
						<path class="st2" d="M372.8,194.3c0,0-0.1-0.3-0.3-0.9c-0.2-0.5-0.8-1.3-1.7-1.8c-0.9-0.5-2.3-0.7-3.5,0
							c-1.2,0.6-2.1,2.1-1.9,3.7c0.2,1.6,1.5,2.8,2.8,3c1.4,0.3,2.6-0.2,3.4-1c0.8-0.7,1-1.6,1.1-2.2
							C372.8,194.6,372.8,194.3,372.8,194.3c0,0,0.1,0.3,0.1,1c0,0.6-0.3,1.6-1.1,2.4c-0.8,0.8-2.2,1.5-3.7,1.2
							c-1.5-0.3-3-1.6-3.3-3.4c-0.3-1.8,0.8-3.5,2.2-4.2c1.4-0.7,2.9-0.5,3.9,0.1c1,0.6,1.5,1.4,1.7,2
							C372.9,193.9,372.8,194.3,372.8,194.3z"/>
					</g>
				</g>
				<g>
					<g>
						<path class="st2" d="M397.5,190.7c0,0-0.1-0.3-0.3-0.9c-0.2-0.5-0.8-1.3-1.7-1.8c-0.9-0.5-2.3-0.7-3.5,0
							c-1.2,0.6-2.1,2.1-1.9,3.7c0.2,1.6,1.5,2.8,2.8,3c1.4,0.3,2.6-0.2,3.4-1c0.8-0.7,1-1.6,1.1-2.2
							C397.5,191.1,397.5,190.7,397.5,190.7c0,0,0.1,0.3,0.1,1c0,0.6-0.3,1.6-1.1,2.4c-0.8,0.8-2.2,1.5-3.7,1.2
							c-1.5-0.3-3-1.6-3.3-3.4c-0.3-1.8,0.8-3.5,2.2-4.2c1.4-0.7,2.9-0.5,3.9,0.1c1,0.6,1.5,1.4,1.7,2
							C397.6,190.4,397.5,190.7,397.5,190.7z"/>
					</g>
				</g>
				<g>
					
						<ellipse transform="matrix(0.5516 -0.8341 0.8341 0.5516 57.6658 395.8945)" class="st13" cx="397.1" cy="144.3" rx="11.1" ry="11.1"/>
				</g>
			</g>
			<g>
				<g>
					<g>
						<path class="st18" d="M402.4,139.4c0.1,0-0.4,0.8-1.2,2c-0.8,1.2-1.9,2.8-3.1,4.5c-0.5,0.7-0.9,1.3-1.3,1.9l-0.1,0.2l-0.2-0.1
							c-2.7-1.8-4.6-3.1-4.5-3.2c0.1-0.1,2.1,1.1,4.8,2.8l-0.3,0.1c0.4-0.6,0.9-1.2,1.3-1.9c1.2-1.8,2.4-3.3,3.2-4.5
							C401.8,140,402.4,139.3,402.4,139.4z"/>
					</g>
				</g>
			</g>
		</g>
	</g>
	<g>
		<g>
			<path class="st11" d="M408.7,336.7l-76.9-19.4c-3.6-0.9-5.8-4.6-4.9-8.2l18.2-72.2c0.9-3.6,4.6-5.8,8.2-4.9l76.9,19.4
				c3.6,0.9,5.8,4.6,4.9,8.2L417,331.7C416,335.4,412.3,337.6,408.7,336.7z"/>
		</g>
		<g>
			<path class="st13" d="M360.4,272.1l0.7,19.1l35,8.8l9.8-15.7c0,0-3.4-2.1-5.9-2.2l4.1-19.1c0.4-1.9-1.2-3.5-3.1-3.2l-3.8,0.6
				l-19.8-5l-2-1.7c-1.5-1.3-3.8-0.5-4.3,1.4l-4.6,18.8C366.7,273.9,363.9,272.3,360.4,272.1z"/>
		</g>
		<g>
			<path class="st3" d="M370.1,284.4c1.4,2.6,3.7,4.7,6.3,6c2.7,1.3,5.6,1.9,8.6,2c1.6,0.1,3.4-0.1,4.5-1.2c1.2-1.2,1.3-3,1.3-4.7
				c0-2.1,0.1-4.3-0.5-6.4c-0.6-2.1-1.8-4-3.7-5c-2.6-1.3-5.7-0.4-8.3,1c-3.3,1.9-6.1,4.6-8,7.9"/>
		</g>
		<g>
			
				<rect x="359" y="291.2" transform="matrix(0.9697 0.2445 -0.2445 0.9697 84.1559 -78.912)" class="st7" width="1.9" height="16.7"/>
		</g>
		<g>
			
				<rect x="366.5" y="292.9" transform="matrix(0.9697 0.2444 -0.2444 0.9697 83.7913 -80.7979)" class="st7" width="1.9" height="8.5"/>
		</g>
		<g>
			
				<rect x="385.1" y="297.6" transform="matrix(0.9697 0.2444 -0.2444 0.9697 85.4977 -85.1931)" class="st7" width="1.9" height="8.5"/>
		</g>
		<g>
			
				<rect x="392.2" y="299.6" transform="matrix(0.9697 0.2444 -0.2444 0.9697 87.1884 -86.7667)" class="st7" width="1.9" height="16.7"/>
		</g>
		<g>
			<g>
				<path class="st7" d="M371.1,282.8c-0.1,0,1.3-6.1,3.2-13.6c1.9-7.5,3.5-13.5,3.7-13.5c0.1,0-1.3,6.1-3.2,13.6
					C372.9,276.8,371.2,282.8,371.1,282.8z"/>
			</g>
		</g>
		<g>
			<g>
				<path class="st7" d="M390.9,287.8c-0.1,0,1.3-6.1,3.2-13.6c1.9-7.5,3.5-13.5,3.7-13.5c0.1,0-1.3,6.1-3.2,13.6
					C392.6,281.8,391,287.8,390.9,287.8z"/>
			</g>
		</g>
		<g>
			<g>
				<path class="st7" d="M400.1,282.2c0,0-0.3,0-1,0c-0.2,0-0.3,0-0.5,0c-0.2,0-0.4,0-0.6,0.1c-0.2,0-0.5,0.1-0.7,0.1
					c-0.3,0.1-0.5,0.1-0.8,0.2c-1.1,0.3-2.4,0.9-3.5,2.1c-1.1,1.1-1.9,2.8-2.2,4.7l0,0.3l-0.2-0.1c-2.8-0.7-6-1.5-9.4-2.3
					c-3.8-1-7.4-1.9-10.5-2.7l-0.2-0.1l0.1-0.2c0.4-1.7,0.3-3.4-0.1-4.8c-0.4-1.4-1-2.5-1.6-3.4c-1.2-1.7-2.4-2.3-2.3-2.4
					c0,0,0.3,0.1,0.8,0.5c0.5,0.3,1.1,0.9,1.8,1.8c0.7,0.9,1.3,2,1.7,3.5c0.4,1.4,0.6,3.2,0.2,5l-0.2-0.3c3.1,0.8,6.7,1.7,10.5,2.6
					c3.3,0.9,6.5,1.7,9.4,2.4l-0.3,0.2c0.3-2,1.2-3.7,2.4-4.9c1.2-1.2,2.5-1.8,3.7-2.1c0.3-0.1,0.6-0.1,0.8-0.2c0.3,0,0.5,0,0.7-0.1
					c0.2,0,0.4,0,0.6,0c0.2,0,0.4,0,0.5,0C399.8,282.1,400.1,282.2,400.1,282.2z"/>
			</g>
		</g>
		<g>
			<g>
				<path class="st7" d="M370.3,284.4c0,0.1-0.7,0-1.8,0.2c-1.1,0.2-2.5,0.7-3.8,1.7c-1.3,1-2.1,2.4-2.5,3.4c-0.4,1-0.5,1.7-0.6,1.7
					c-0.1,0-0.1-0.7,0.3-1.8c0.3-1.1,1.1-2.5,2.5-3.7c1.4-1.1,3-1.6,4.1-1.7C369.6,284.2,370.3,284.3,370.3,284.4z"/>
			</g>
		</g>
		<g>
			<g>
				<path class="st7" d="M395.7,300.3c-0.1,0,0.1-0.8,0.1-2c0-1.2-0.2-2.9-1.1-4.6c-0.8-1.7-2.1-2.9-3-3.6c-1-0.7-1.7-1-1.7-1.1
					c0-0.1,0.8,0.1,1.9,0.8c1.1,0.7,2.4,1.9,3.3,3.7c0.9,1.7,1.1,3.6,1,4.8C396.1,299.6,395.7,300.3,395.7,300.3z"/>
			</g>
		</g>
	</g>
</g>
<g id="Device">
	<g>
		<g>
			<g>
				<g>
					<g>
						<g>
							<g>
								<path class="st7" d="M320.7,465.1l-125.8-0.6c-15.1-0.1-27.3-12.4-27.3-27.5l1.3-315.5c0.1-15.1,12.4-27.4,27.5-27.3
									l125.8,0.6c15.1,0.1,27.3,12.4,27.3,27.5l-1.3,315.5C348.1,452.9,335.8,465.2,320.7,465.1z"/>
							</g>
						</g>
						<g>
							<g>
								<path class="st13" d="M321,103.7l-24.4-0.1c-3.3,0-5.9,2.7-5.9,6.2l0,4.4c0,3.4-2.7,6.2-5.9,6.2l-47.6-0.2
									c-3.3,0-5.9-2.8-5.9-6.2l0-4.4c0-3.4-2.6-6.2-5.9-6.2l-8.6,0l-21.4-0.1c-10.6,0-19.2,8.5-19.3,19.1l-1.3,307.9
									c0,10.6,8.5,19.2,19.1,19.3l125.6,0.6c10.6,0,19.2-8.5,19.3-19.1l1.3-307.9C340.2,112.4,331.6,103.7,321,103.7z"/>
							</g>
						</g>
					</g>
				</g>
			</g>
		</g>
		<g>
			<path class="st7" d="M192.4,136.4c-0.1,0-0.3-0.1-0.4-0.2l-1.9-2c-0.1-0.1-0.1-0.2-0.1-0.4c0-0.1,0.1-0.3,0.2-0.4l1.9-1.8
				c0.2-0.2,0.5-0.2,0.7,0c0.2,0.2,0.2,0.5,0,0.7l-1.6,1.5l1.6,1.6c0.2,0.2,0.2,0.5,0,0.7C192.7,136.4,192.6,136.4,192.4,136.4z"/>
		</g>
		<g>
			<g>
				<g>
					<g>
						<path class="st19" d="M311,431.8H207.2c-8.9,0-16.1-7.2-16.1-16.1v-2.9c0-8.9,7.2-16.1,16.1-16.1H311
							c8.9,0,16.1,7.2,16.1,16.1v2.9C327.1,424.5,319.9,431.8,311,431.8z"/>
					</g>
				</g>
			</g>
			<g>
				<path class="st13" d="M242.9,410.1h3.2c2.5,0,4.2,1.6,4.2,3.9c0,2.3-1.7,3.9-4.2,3.9h-3.2V410.1z M246,417.2
					c2.1,0,3.4-1.3,3.4-3.2c0-1.9-1.3-3.2-3.4-3.2h-2.3v6.3H246z"/>
				<path class="st13" d="M251.4,414c0-2.3,1.7-3.9,4.1-3.9c2.3,0,4.1,1.7,4.1,3.9c0,2.3-1.7,3.9-4.1,3.9
					C253.1,417.9,251.4,416.3,251.4,414z M258.7,414c0-1.9-1.4-3.2-3.2-3.2c-1.9,0-3.3,1.4-3.3,3.2c0,1.9,1.4,3.2,3.3,3.2
					C257.3,417.2,258.7,415.8,258.7,414z"/>
				<path class="st13" d="M267.9,410.1v7.8h-0.7l-5-6.3v6.3h-0.8v-7.8h0.7l5,6.3v-6.3H267.9z"/>
				<path class="st13" d="M275.9,417.2v0.7h-5.5v-7.8h5.3v0.7h-4.5v2.8h4v0.7h-4v2.9H275.9z"/>
			</g>
		</g>
		<g>
			<path class="st7" d="M200.4,291c0,1.4-1,2.3-2.7,2.3h-1.8v2.1h-0.7v-6.7h2.5C199.4,288.7,200.4,289.6,200.4,291z M199.7,291
				c0-1.1-0.7-1.7-2-1.7h-1.8v3.3h1.8C199,292.6,199.7,292,199.7,291z"/>
			<path class="st7" d="M206.4,290.4v5h-0.6v-0.9c-0.4,0.6-1,1-1.8,1c-1.3,0-2.1-0.7-2.1-2.1v-2.9h0.7v2.8c0,1.1,0.6,1.6,1.5,1.6
				c1,0,1.7-0.7,1.7-1.8v-2.6H206.4z"/>
			<path class="st7" d="M210.8,290.3v0.7c-0.1,0-0.1,0-0.2,0c-1,0-1.7,0.7-1.7,1.8v2.5h-0.7v-5h0.6v1
				C209.2,290.7,209.9,290.3,210.8,290.3z"/>
			<path class="st7" d="M211.5,292.9c0-1.5,1.1-2.5,2.6-2.5c0.8,0,1.6,0.3,2,1l-0.5,0.3c-0.3-0.5-0.9-0.7-1.5-0.7
				c-1.1,0-1.9,0.8-1.9,1.9c0,1.2,0.8,1.9,1.9,1.9c0.6,0,1.1-0.2,1.5-0.7l0.5,0.3c-0.4,0.6-1.1,1-2,1
				C212.6,295.4,211.5,294.4,211.5,292.9z"/>
			<path class="st7" d="M221.9,292.5v2.9h-0.7v-2.8c0-1.1-0.6-1.6-1.5-1.6c-1.1,0-1.7,0.7-1.7,1.8v2.6h-0.7v-7.1h0.7v2.9
				c0.4-0.6,1-0.9,1.9-0.9C221,290.3,221.9,291,221.9,292.5z"/>
			<path class="st7" d="M227.5,292.3v3.1h-0.6v-0.8c-0.3,0.5-0.9,0.8-1.7,0.8c-1.1,0-1.8-0.6-1.8-1.5c0-0.8,0.5-1.4,1.9-1.4h1.6
				v-0.3c0-0.9-0.5-1.3-1.4-1.3c-0.6,0-1.3,0.2-1.7,0.6l-0.3-0.5c0.5-0.4,1.2-0.7,2-0.7C226.7,290.3,227.5,291,227.5,292.3z
				 M226.8,293.9V293h-1.6c-1,0-1.3,0.4-1.3,0.9c0,0.6,0.5,0.9,1.3,0.9C226,294.9,226.5,294.5,226.8,293.9z"/>
			<path class="st7" d="M228.6,294.8l0.3-0.5c0.4,0.3,1.1,0.6,1.8,0.6c1,0,1.3-0.3,1.3-0.8c0-1.3-3.2-0.3-3.2-2.3
				c0-0.8,0.7-1.4,2-1.4c0.6,0,1.3,0.2,1.8,0.5l-0.3,0.5c-0.4-0.3-1-0.4-1.5-0.4c-0.9,0-1.3,0.4-1.3,0.8c0,1.4,3.2,0.3,3.2,2.3
				c0,0.9-0.8,1.4-2.1,1.4C229.8,295.4,229,295.1,228.6,294.8z"/>
			<path class="st7" d="M238.3,293.1h-4.2c0.1,1,0.9,1.7,2,1.7c0.6,0,1.2-0.2,1.5-0.7l0.4,0.4c-0.4,0.5-1.1,0.8-1.9,0.8
				c-1.6,0-2.6-1.1-2.6-2.5c0-1.5,1-2.5,2.4-2.5c1.4,0,2.4,1,2.4,2.5C238.3,292.9,238.3,293,238.3,293.1z M234.1,292.6h3.5
				c-0.1-1-0.8-1.7-1.8-1.7C234.9,290.9,234.2,291.6,234.1,292.6z"/>
			<path class="st7" d="M251.5,290.4l-1.9,5H249l-1.6-4.1l-1.6,4.1h-0.6l-1.9-5h0.6l1.6,4.2l1.6-4.2h0.6l1.6,4.2l1.6-4.2H251.5z"/>
			<path class="st7" d="M256.9,292.3v3.1h-0.6v-0.8c-0.3,0.5-0.9,0.8-1.7,0.8c-1.1,0-1.8-0.6-1.8-1.5c0-0.8,0.5-1.4,1.9-1.4h1.6
				v-0.3c0-0.9-0.5-1.3-1.4-1.3c-0.6,0-1.3,0.2-1.7,0.6l-0.3-0.5c0.5-0.4,1.2-0.7,2-0.7C256.2,290.3,256.9,291,256.9,292.3z
				 M256.2,293.9V293h-1.6c-1,0-1.3,0.4-1.3,0.9c0,0.6,0.5,0.9,1.3,0.9C255.4,294.9,256,294.5,256.2,293.9z"/>
			<path class="st7" d="M258.3,294.8l0.3-0.5c0.4,0.3,1.1,0.6,1.8,0.6c1,0,1.3-0.3,1.3-0.8c0-1.3-3.2-0.3-3.2-2.3
				c0-0.8,0.7-1.4,2-1.4c0.6,0,1.3,0.2,1.8,0.5l-0.3,0.5c-0.4-0.3-1-0.4-1.5-0.4c-0.9,0-1.3,0.4-1.3,0.8c0,1.4,3.2,0.3,3.2,2.3
				c0,0.9-0.8,1.4-2.1,1.4C259.5,295.4,258.7,295.1,258.3,294.8z"/>
			<path class="st7" d="M269.4,294.8l0.3-0.5c0.4,0.3,1.1,0.6,1.8,0.6c1,0,1.3-0.3,1.3-0.8c0-1.3-3.2-0.3-3.2-2.3
				c0-0.8,0.7-1.4,2-1.4c0.6,0,1.3,0.2,1.8,0.5l-0.3,0.5c-0.4-0.3-1-0.4-1.5-0.4c-0.9,0-1.3,0.4-1.3,0.8c0,1.4,3.2,0.3,3.2,2.3
				c0,0.9-0.8,1.4-2.1,1.4C270.7,295.4,269.9,295.1,269.4,294.8z"/>
			<path class="st7" d="M279.3,290.4v5h-0.6v-0.9c-0.4,0.6-1,1-1.8,1c-1.3,0-2.1-0.7-2.1-2.1v-2.9h0.7v2.8c0,1.1,0.6,1.6,1.5,1.6
				c1,0,1.7-0.7,1.7-1.8v-2.6H279.3z"/>
			<path class="st7" d="M280.7,292.9c0-1.5,1.1-2.5,2.6-2.5c0.8,0,1.6,0.3,2,1l-0.5,0.3c-0.3-0.5-0.9-0.7-1.5-0.7
				c-1.1,0-1.9,0.8-1.9,1.9c0,1.2,0.8,1.9,1.9,1.9c0.6,0,1.1-0.2,1.5-0.7l0.5,0.3c-0.4,0.6-1.1,1-2,1
				C281.8,295.4,280.7,294.4,280.7,292.9z"/>
			<path class="st7" d="M286,292.9c0-1.5,1.1-2.5,2.6-2.5c0.8,0,1.6,0.3,2,1l-0.5,0.3c-0.3-0.5-0.9-0.7-1.5-0.7
				c-1.1,0-1.9,0.8-1.9,1.9c0,1.2,0.8,1.9,1.9,1.9c0.6,0,1.1-0.2,1.5-0.7l0.5,0.3c-0.4,0.6-1.1,1-2,1C287,295.4,286,294.4,286,292.9
				z"/>
			<path class="st7" d="M296.1,293.1h-4.2c0.1,1,0.9,1.7,2,1.7c0.6,0,1.2-0.2,1.5-0.7l0.4,0.4c-0.4,0.5-1.1,0.8-1.9,0.8
				c-1.6,0-2.6-1.1-2.6-2.5c0-1.5,1-2.5,2.4-2.5c1.4,0,2.4,1,2.4,2.5C296.1,292.9,296.1,293,296.1,293.1z M291.9,292.6h3.5
				c-0.1-1-0.8-1.7-1.8-1.7C292.7,290.9,292,291.6,291.9,292.6z"/>
			<path class="st7" d="M296.8,294.8l0.3-0.5c0.4,0.3,1.1,0.6,1.8,0.6c1,0,1.3-0.3,1.3-0.8c0-1.3-3.2-0.3-3.2-2.3
				c0-0.8,0.7-1.4,2-1.4c0.6,0,1.3,0.2,1.8,0.5l-0.3,0.5c-0.4-0.3-1-0.4-1.5-0.4c-0.9,0-1.3,0.4-1.3,0.8c0,1.4,3.2,0.3,3.2,2.3
				c0,0.9-0.8,1.4-2.1,1.4C298,295.4,297.2,295.1,296.8,294.8z"/>
			<path class="st7" d="M301.4,294.8l0.3-0.5c0.4,0.3,1.1,0.6,1.8,0.6c1,0,1.3-0.3,1.3-0.8c0-1.3-3.2-0.3-3.2-2.3
				c0-0.8,0.7-1.4,2-1.4c0.6,0,1.3,0.2,1.8,0.5l-0.3,0.5c-0.4-0.3-1-0.4-1.5-0.4c-0.9,0-1.3,0.4-1.3,0.8c0,1.4,3.2,0.3,3.2,2.3
				c0,0.9-0.8,1.4-2.1,1.4C302.6,295.4,301.8,295.1,301.4,294.8z"/>
			<path class="st7" d="M307.5,289.8v0.6h1.5v0.6h-1.5v4.4h-0.7v-4.4H306v-0.6h0.9v-0.6c0-0.9,0.5-1.5,1.5-1.5c0.4,0,0.8,0.1,1,0.3
				l-0.2,0.5c-0.2-0.2-0.5-0.2-0.7-0.2C307.8,288.8,307.5,289.2,307.5,289.8z"/>
			<path class="st7" d="M314.5,290.4v5h-0.6v-0.9c-0.4,0.6-1,1-1.8,1c-1.3,0-2.1-0.7-2.1-2.1v-2.9h0.7v2.8c0,1.1,0.6,1.6,1.5,1.6
				c1,0,1.7-0.7,1.7-1.8v-2.6H314.5z"/>
			<path class="st7" d="M315.4,288.3h0.7v7.1h-0.7V288.3z"/>
		</g>
		<g>
			<path class="st20" d="M211.5,263.8h-4.2v-2h10.8v2h-4.2v10.7h-2.4V263.8z"/>
			<path class="st21" d="M229.2,269v5.6h-2.3v-5.3c0-1.7-0.9-2.6-2.3-2.6c-1.6,0-2.7,1-2.7,2.9v4.9h-2.3V261h2.3v4.9
				c0.7-0.8,1.9-1.2,3.2-1.2C227.5,264.7,229.2,266.1,229.2,269z"/>
			<path class="st20" d="M240.2,268.9v5.7h-2.1v-1.2c-0.5,0.8-1.6,1.3-3.1,1.3c-2.2,0-3.6-1.2-3.6-2.9c0-1.6,1.1-2.9,4-2.9h2.5v-0.1
				c0-1.3-0.8-2.1-2.4-2.1c-1.1,0-2.2,0.4-2.9,1l-0.9-1.7c1-0.8,2.5-1.2,4.1-1.2C238.6,264.7,240.2,266.1,240.2,268.9z M238,271.5
				v-1.1h-2.3c-1.5,0-2,0.6-2,1.3c0,0.8,0.7,1.3,1.9,1.3C236.6,273,237.6,272.5,238,271.5z"/>
			<path class="st17" d="M252.7,269v5.6h-2.3v-5.3c0-1.7-0.9-2.6-2.3-2.6c-1.6,0-2.7,1-2.7,2.9v4.9h-2.3v-9.7h2.2v1.3
				c0.7-0.9,1.9-1.4,3.3-1.4C251,264.7,252.7,266.1,252.7,269z"/>
			<path class="st18" d="M259.6,270.4l-1.7,1.6v2.6h-2.3V261h2.3v8.2l4.7-4.4h2.7l-4.1,4.1l4.4,5.6H263L259.6,270.4z"/>
			<path class="st17" d="M281.3,264.8l-4.6,10.5c-0.9,2.2-2.1,2.9-3.8,2.9c-1,0-2-0.3-2.6-0.9l0.9-1.7c0.4,0.4,1.1,0.7,1.7,0.7
				c0.8,0,1.3-0.4,1.7-1.3l0.2-0.4l-4.2-9.8h2.4l3.1,7.2l3.1-7.2H281.3z"/>
			<path class="st22" d="M281.7,269.7c0-2.9,2.2-5,5.2-5c3,0,5.2,2.1,5.2,5c0,2.9-2.2,5-5.2,5C283.8,274.7,281.7,272.6,281.7,269.7z
				 M289.7,269.7c0-1.9-1.2-3-2.9-3c-1.6,0-2.9,1.2-2.9,3c0,1.9,1.2,3,2.9,3C288.5,272.7,289.7,271.6,289.7,269.7z"/>
			<path class="st23" d="M303.6,264.8v9.7h-2.2v-1.2c-0.7,0.9-1.9,1.4-3.1,1.4c-2.5,0-4.2-1.4-4.2-4.3v-5.6h2.3v5.2
				c0,1.8,0.8,2.6,2.3,2.6c1.6,0,2.7-1,2.7-2.9v-4.9H303.6z"/>
			<path class="st24" d="M306.2,273.3c0-0.8,0.6-1.4,1.5-1.4c0.8,0,1.4,0.6,1.4,1.4c0,0.8-0.6,1.4-1.4,1.4
				C306.8,274.7,306.2,274,306.2,273.3z M306.3,261.8h2.7l-0.5,8.5h-1.8L306.3,261.8z"/>
		</g>
		<g>
			<g>
				<g>
					<g>
						<circle class="st18" cx="260" cy="216.6" r="26.2"/>
					</g>
					<g>
						<g>
							<path class="st18" d="M272.9,205.5c0.3,0.3-4.6,6.8-10.9,14.7c-1.4,1.6-2.7,3.2-3.9,4.7l-0.5,0.6l-0.6-0.6
								c-5-5.1-8.4-8.9-8.1-9.2c0.2-0.2,4,3.2,9.2,8.1l-1.1,0.1c1.2-1.5,2.5-3.1,3.8-4.7C267.1,211.4,272.6,205.2,272.9,205.5z"/>
						</g>
					</g>
				</g>
			</g>
			<g>
				<g>
					<path class="st25" d="M297.2,206c-0.8-2.8-4.4-2.5-4.4-2.5l0.1,1.9c2.1-0.4,3.4,2.1,3.4,2.1L297.2,206z"/>
				</g>
			</g>
			<g>
				<g>
					<path class="st18" d="M221.4,211.8c-0.8-2.8-4.4-2.5-4.4-2.5l0.1,1.9c2.1-0.4,3.4,2.1,3.4,2.1L221.4,211.8z"/>
				</g>
			</g>
			<g>
				<g>
					<path class="st26" d="M263.1,173.7c4.1,1.3,6.7-3.5,6.7-3.5l-2.5-1.4c-1.2,2.9-5.4,2.6-5.4,2.6L263.1,173.7z"/>
				</g>
			</g>
			<g>
				<g>
					<path class="st27" d="M240.1,178.9c-1.9,0.2-2.2,2.6-2.2,2.6l1.3,0.2c0-1.4,1.8-2,1.8-2L240.1,178.9z"/>
				</g>
			</g>
			<g>
				<g>
					<path class="st27" d="M319.7,196.6c0.3-1.9-2-2.7-2-2.7l-0.5,1.2c1.4,0.4,1.5,2.2,1.5,2.2L319.7,196.6z"/>
				</g>
			</g>
			<g>
				<g>
					<path class="st17" d="M251.4,153.6c0.3-1.9-2-2.7-2-2.7l-0.5,1.2c1.4,0.4,1.5,2.2,1.5,2.2L251.4,153.6z"/>
				</g>
			</g>
			<g>
				<g>
					<path class="st17" d="M203.7,184.6c-0.3,3,3.6,3.7,3.6,3.7l0.7-2c-2.4-0.2-2.7-3-2.7-3L203.7,184.6z"/>
				</g>
			</g>
			<g>
				<g>
					<path class="st26" d="M292.5,173.7c1.9,0.1,2.6-2.2,2.6-2.2l-1.2-0.4c-0.2,1.4-2.1,1.7-2.1,1.7L292.5,173.7z"/>
				</g>
			</g>
			<g>
				<g>
					<g>
						<g>
							<g>
								<path class="st22" d="M303.1,181.6c0,0.1-0.7,0.2-1.6,0.2c-0.9,0-1.6-0.1-1.6-0.2c0-0.1,0.7-0.2,1.6-0.2
									C302.3,181.4,303.1,181.5,303.1,181.6z"/>
							</g>
						</g>
						<g>
							<g>
								<path class="st22" d="M304.8,177.2c0.1,0,0.2,0.7,0.2,1.6c0,0.9-0.1,1.6-0.2,1.6s-0.2-0.7-0.2-1.6
									C304.6,177.9,304.7,177.2,304.8,177.2z"/>
							</g>
						</g>
					</g>
					<g>
						<g>
							<g>
								<path class="st22" d="M306.6,181.5c0-0.1,0.7-0.2,1.6-0.2c0.9,0,1.6,0.1,1.6,0.2c0,0.1-0.7,0.2-1.6,0.2
									C307.3,181.6,306.6,181.6,306.6,181.5z"/>
							</g>
						</g>
						<g>
							<g>
								<path class="st22" d="M304.9,185.8c-0.1,0-0.2-0.7-0.2-1.6c0-0.9,0.1-1.6,0.2-1.6c0.1,0,0.2,0.7,0.2,1.6
									C305,185.1,305,185.8,304.9,185.8z"/>
							</g>
						</g>
					</g>
					<g>
						<g>
							<path class="st22" d="M307.5,183.9c-0.1,0.1-0.4-0.2-0.7-0.6c-0.3-0.4-0.5-0.7-0.4-0.8c0.1-0.1,0.4,0.2,0.7,0.6
								C307.3,183.5,307.5,183.9,307.5,183.9z"/>
						</g>
					</g>
					<g>
						<g>
							<path class="st22" d="M307.3,179c0.1,0.1-0.2,0.4-0.5,0.7c-0.3,0.3-0.6,0.5-0.7,0.5c-0.1-0.1,0.2-0.4,0.5-0.7
								C306.9,179.2,307.2,179,307.3,179z"/>
						</g>
					</g>
					<g>
						<g>
							<path class="st22" d="M303.6,180.3c-0.1,0.1-0.4-0.1-0.7-0.3c-0.3-0.3-0.5-0.5-0.5-0.6s0.4,0.1,0.7,0.3
								C303.5,179.9,303.7,180.2,303.6,180.3z"/>
						</g>
					</g>
					<g>
						<g>
							<path class="st22" d="M303.5,182.4c0.1,0.1-0.1,0.4-0.4,0.7c-0.3,0.3-0.6,0.5-0.7,0.5c-0.1-0.1,0.1-0.4,0.4-0.7
								C303.1,182.6,303.4,182.4,303.5,182.4z"/>
						</g>
					</g>
				</g>
			</g>
			<g>
				<g>
					<g>
						<g>
							<g>
								<path class="st25" d="M215.9,172.7c0,0.1-0.7,0.2-1.6,0.2c-0.9,0-1.6-0.1-1.6-0.2c0-0.1,0.7-0.2,1.6-0.2
									C215.2,172.5,215.9,172.6,215.9,172.7z"/>
							</g>
						</g>
						<g>
							<g>
								<path class="st25" d="M217.6,168.3c0.1,0,0.2,0.7,0.2,1.6c0,0.9-0.1,1.6-0.2,1.6c-0.1,0-0.2-0.7-0.2-1.6
									C217.5,169,217.6,168.3,217.6,168.3z"/>
							</g>
						</g>
					</g>
					<g>
						<g>
							<g>
								<path class="st25" d="M219.4,172.6c0-0.1,0.7-0.2,1.6-0.2c0.9,0,1.6,0.1,1.6,0.2c0,0.1-0.7,0.2-1.6,0.2
									C220.2,172.7,219.4,172.6,219.4,172.6z"/>
							</g>
						</g>
						<g>
							<g>
								<path class="st25" d="M217.8,176.9c-0.1,0-0.2-0.7-0.2-1.6c0-0.9,0.1-1.6,0.2-1.6c0.1,0,0.2,0.7,0.2,1.6
									C217.9,176.2,217.8,176.9,217.8,176.9z"/>
							</g>
						</g>
					</g>
					<g>
						<g>
							<path class="st25" d="M220.3,175c-0.1,0.1-0.4-0.2-0.7-0.6c-0.3-0.4-0.5-0.7-0.4-0.8c0.1-0.1,0.4,0.2,0.7,0.6
								C220.2,174.6,220.4,175,220.3,175z"/>
						</g>
					</g>
					<g>
						<g>
							<path class="st25" d="M220.2,170.1c0.1,0.1-0.2,0.4-0.5,0.7c-0.3,0.3-0.6,0.5-0.7,0.5c-0.1-0.1,0.2-0.4,0.5-0.7
								C219.8,170.3,220.1,170,220.2,170.1z"/>
						</g>
					</g>
					<g>
						<g>
							<path class="st25" d="M216.5,171.4c-0.1,0.1-0.4-0.1-0.7-0.3c-0.3-0.3-0.5-0.5-0.5-0.6c0.1-0.1,0.4,0.1,0.7,0.3
								C216.4,171,216.6,171.3,216.5,171.4z"/>
						</g>
					</g>
					<g>
						<g>
							<path class="st25" d="M216.4,173.5c0.1,0.1-0.1,0.4-0.4,0.7c-0.3,0.3-0.6,0.5-0.7,0.5c-0.1-0.1,0.1-0.4,0.4-0.7
								C216,173.7,216.3,173.5,216.4,173.5z"/>
						</g>
					</g>
				</g>
			</g>
		</g>
		<g>
			<g>
				<g>
					<path class="st7" d="M326.6,131c0,0.1-3.2,0.3-7.1,0.3c-3.9,0-7.1-0.1-7.1-0.3s3.2-0.3,7.1-0.3
						C323.5,130.8,326.6,130.9,326.6,131z"/>
				</g>
			</g>
			<g>
				<g>
					<path class="st7" d="M326.6,134c0,0.1-3.2,0.3-7.1,0.3c-3.9,0-7.1-0.1-7.1-0.3c0-0.1,3.2-0.3,7.1-0.3
						C323.5,133.7,326.6,133.8,326.6,134z"/>
				</g>
			</g>
			<g>
				<g>
					<path class="st7" d="M326.6,136.9c0,0.1-3.2,0.3-7.1,0.3c-3.9,0-7.1-0.1-7.1-0.3s3.2-0.3,7.1-0.3
						C323.5,136.7,326.6,136.8,326.6,136.9z"/>
				</g>
			</g>
		</g>
		<g class="st0">
			<g class="st1">
				<g>
					
						<rect x="244.1" y="337.3" transform="matrix(-1 -7.807327e-03 7.807327e-03 -1 518.3706 718.1111)" class="st2" width="32.9" height="41.6"/>
				</g>
				<g>
					<polygon class="st13" points="264.3,338.6 263.8,378.9 258.6,378.8 259.7,338.6 					"/>
				</g>
				<g>
					<polygon class="st3" points="225.4,338.3 244.3,338.4 277.2,338.7 244.2,343 244,378.7 225.1,378.6 					"/>
				</g>
				<g>
					<polygon class="st28" points="235.7,338.4 234.9,378.6 229.3,378.6 230.2,338.3 					"/>
				</g>
				<g>
					<g>
						<g>
							<path class="st3" d="M250.6,326.1c0,0.3-0.5,0.5-1.6,0.8c-1,0.2-2.5,0.5-4.4,0.6c-0.9,0-2,0-3.1,0c-0.6,0-1.1-0.1-1.7-0.2
								c-0.6-0.1-1.2-0.2-1.9-0.4c-0.4-0.1-0.8-0.3-1.2-0.5c-0.4-0.2-0.9-0.6-1.2-1.2c-0.4-0.6-0.5-1.3-0.5-1.8c0-0.6,0.1-1,0.2-1.4
								c0.3-1.3,0.6-2.7,1.3-4.2c0.3-0.7,0.7-1.5,1.2-2.1c0.3-0.3,0.5-0.6,0.8-1c0.3-0.3,0.7-0.6,1.1-0.9c0.4-0.3,0.9-0.5,1.5-0.6
								c0.6-0.1,1.2-0.1,1.7,0c1.1,0.3,1.7,0.8,2.3,1.2c2,1.7,3.4,3.6,4.3,5.3c0.9,1.7,1.3,3.3,1.5,4.3c0.1,1.1,0,1.7-0.2,1.7
								c-0.5,0.1-1.3-2-3.4-4.7c-1.1-1.3-2.5-2.8-4.2-4c-0.4-0.3-0.8-0.5-1-0.5c-0.1,0-0.1,0-0.2,0c-0.1,0-0.2,0.1-0.3,0.2
								c-0.1,0.1-0.3,0.2-0.4,0.4c-0.1,0.2-0.3,0.4-0.5,0.6c-0.3,0.4-0.6,0.9-0.8,1.4c-0.5,1.1-0.8,2.3-1.1,3.5
								c-0.1,0.3-0.1,0.4-0.1,0.5l0,0l0,0c0,0-0.1,0-0.1,0c-0.1,0-0.1,0.1-0.1,0c0,0,0.1-0.1,0.1-0.1c0,0,0,0,0,0c0,0,0,0,0.1,0.1
								c0.1,0.1,0.3,0.2,0.5,0.2c0.4,0.2,1,0.3,1.5,0.4c0.5,0.1,1,0.2,1.5,0.3c1,0.2,1.9,0.3,2.8,0.5c1.7,0.2,3.2,0.4,4.2,0.6
								C250,325.7,250.6,325.9,250.6,326.1z"/>
						</g>
					</g>
					<g>
						<g>
							<path class="st2" d="M249.9,326.4c-0.1-0.5,2.4-1.3,6.2-2.4c1.9-0.6,4.2-1.3,6.5-2.3c0.6-0.2,1.1-0.5,1.4-0.8
								c0.2-0.1,0.2-0.2,0.2-0.2c0,0,0,0.1,0,0.1c0-0.1-0.1-0.3-0.2-0.6c-0.2-0.3-0.3-0.7-0.5-1c-0.3-0.6-0.6-1.2-1-1.8
								c-0.4-0.5-0.7-1-1.2-1.4c-0.2-0.2-0.4-0.4-0.7-0.5c-0.2-0.1-0.4-0.3-0.6-0.3c-0.4-0.1-0.7-0.2-1-0.1
								c-0.3,0.1-0.7,0.3-1.2,0.7c-1.9,1.6-3.4,3.3-4.5,4.9c-2.2,3.1-2.8,5.6-3.3,5.5c-0.2,0-0.4-0.7-0.3-1.9
								c0.1-1.2,0.5-2.9,1.4-4.9c0.9-2,2.4-4.1,4.5-6.1c0.6-0.5,1.3-1.1,2.3-1.5c1-0.4,2.3-0.3,3.3,0c0.5,0.2,1,0.4,1.4,0.7
								c0.4,0.3,0.8,0.5,1.1,0.8c0.7,0.6,1.3,1.3,1.8,2.1c0.5,0.8,0.9,1.5,1.2,2.2c0.2,0.4,0.3,0.7,0.5,1.1c0.2,0.4,0.4,0.8,0.5,1.5
								c0.1,0.6,0,1.5-0.4,2.2c-0.4,0.6-0.8,1-1.2,1.3c-0.8,0.6-1.6,0.9-2.3,1.1c-2.7,1-5.2,1.5-7.2,1.7
								C252.6,327.1,250,326.9,249.9,326.4z"/>
						</g>
					</g>
				</g>
				<g>
					
						<rect x="219.4" y="324.7" transform="matrix(-1 -7.807130e-03 7.807130e-03 -1 484.6886 665.0217)" class="st3" width="48.4" height="13.8"/>
				</g>
				<g>
					
						<rect x="237.2" y="324.8" transform="matrix(-1 -7.807405e-03 7.807405e-03 -1 515.6331 665.3842)" class="st2" width="43.8" height="13.8"/>
				</g>
				<g>
					<polygon class="st13" points="267.6,324.9 267.3,338.7 262.2,338.6 262.6,324.8 					"/>
				</g>
				<g>
					<polygon class="st13" points="231.4,324.7 230.9,338.4 225.3,338.3 225.6,324.5 					"/>
				</g>
			</g>
			<g class="st1">
				<g>
					
						<rect x="279.7" y="354.5" transform="matrix(-1 -7.808075e-03 7.808075e-03 -1 575.238 734.7205)" class="st2" width="18.7" height="23.6"/>
				</g>
				<g>
					<polygon class="st13" points="291.2,355.2 290.8,378 287.9,378 288.5,355.2 					"/>
				</g>
				<g>
					<polygon class="st3" points="269.1,355.1 279.8,355.1 298.5,355.3 279.8,357.7 279.6,377.9 268.9,377.9 					"/>
				</g>
				<g>
					<polygon class="st13" points="274.9,355.1 274.5,377.9 271.3,377.9 271.8,355.1 					"/>
				</g>
				<g>
					<g>
						<g>
							<path class="st3" d="M283.4,348.2c0,0.3-1.2,0.8-3.4,0.9c-1.1,0.1-2.3,0.1-3.9-0.3c-0.4-0.1-1-0.3-1.5-1
								c-0.2-0.4-0.3-0.8-0.3-1.2c0-0.4,0-0.6,0.1-0.9c0.2-0.8,0.4-1.5,0.7-2.4c0.2-0.4,0.4-0.9,0.7-1.3c0.3-0.4,0.6-0.8,1.2-1.1
								c0.5-0.3,1.3-0.5,2-0.3c0.7,0.2,1.1,0.5,1.4,0.8c1.1,1,2,2.1,2.5,3.1c1,2,0.9,3.5,0.5,3.5c-0.4,0.1-0.9-1.1-2.1-2.5
								c-0.6-0.7-1.4-1.5-2.4-2.2c-0.2-0.2-0.4-0.2-0.5-0.2l0,0l0-0.1l0,0.1c0,0,0,0-0.1,0.1c-0.1,0.1-0.3,0.2-0.4,0.5
								c-0.2,0.2-0.3,0.5-0.4,0.8c-0.3,0.6-0.4,1.3-0.6,2l-0.1,0.2c0,0-0.1,0-0.2,0c-0.1,0-0.1,0-0.1,0c-0.1,0-0.1,0,0,0
								c0,0,0.1-0.1,0.2-0.2l0.1-0.1l0,0c0,0,0,0,0,0c0,0,0.1,0.1,0.2,0.1c1,0.4,2.3,0.6,3.2,0.8
								C282.1,347.6,283.4,347.8,283.4,348.2z"/>
						</g>
					</g>
					<g>
						<g>
							<path class="st3" d="M283,348.3c-0.1-0.4,1.3-0.9,3.5-1.6c1.1-0.4,2.3-0.8,3.6-1.4c0.3-0.1,0.6-0.3,0.7-0.4
								c0.1-0.1,0.1-0.1,0,0c-0.1,0.1-0.1,0.3-0.1,0.3c-0.1-0.3-0.2-0.5-0.4-0.8c-0.2-0.4-0.4-0.7-0.5-1c-0.2-0.3-0.4-0.5-0.6-0.7
								c-0.2-0.2-0.5-0.4-0.6-0.4c-0.2-0.1-0.2-0.1-0.3-0.1c-0.1,0-0.3,0.1-0.5,0.3c-1,0.9-1.9,1.8-2.5,2.6c-1.3,1.7-1.7,3-2.1,3
								c-0.4,0-0.7-1.7,0.4-4c0.5-1.2,1.3-2.4,2.6-3.6c0.3-0.3,0.8-0.7,1.4-0.9c0.7-0.2,1.5-0.2,2.1,0c0.3,0.1,0.6,0.3,0.9,0.4
								c0.2,0.2,0.5,0.3,0.7,0.5c0.4,0.4,0.8,0.8,1.1,1.3c0.3,0.4,0.5,0.9,0.7,1.3l0.3,0.6c0.1,0.2,0.2,0.5,0.3,1
								c0.1,0.4,0,1-0.3,1.5c-0.2,0.4-0.5,0.7-0.8,0.9c-0.5,0.4-1,0.5-1.4,0.7c-1.6,0.5-3,0.8-4.2,0.9
								C284.5,348.9,283.1,348.7,283,348.3z"/>
						</g>
					</g>
				</g>
				<g>
					
						<rect x="265.7" y="347.3" transform="matrix(-1 -7.805711e-03 7.805711e-03 -1 556.1528 704.6364)" class="st3" width="27.4" height="7.8"/>
				</g>
				<g>
					
						<rect x="275.8" y="347.4" transform="matrix(-1 -7.808635e-03 7.808635e-03 -1 573.6866 704.8426)" class="st2" width="24.8" height="7.8"/>
				</g>
				<g>
					<polygon class="st13" points="293,347.4 292.9,355.3 290,355.2 290.2,347.4 					"/>
				</g>
				<g>
					<polygon class="st13" points="272.5,347.3 272.2,355.1 269,355.1 269.2,347.3 					"/>
				</g>
			</g>
		</g>
	</g>
	<g>
		<g>
			<g>
				<g>
					<defs>
						<circle id="SVGID_1_" cx="260" cy="216.3" r="29.2"/>
					</defs>
					<clipPath id="SVGID_2_">
						<use xlink:href="#SVGID_1_"  style="overflow:visible;"/>
					</clipPath>
					<g style="clip-path:url(#SVGID_2_);">
						
							<image style="overflow:visible;" width="369" height="370" xlink:href="82AFCAFE.png"  transform="matrix(0.24 0 0 0.24 214.44 170.575)">
						</image>
					</g>
				</g>
			</g>
			<g>
				<path class="st29" d="M260,246.5c-16.7,0-30.2-13.6-30.2-30.2S243.3,186,260,186c16.7,0,30.2,13.6,30.2,30.2
					S276.7,246.5,260,246.5z M260,188c-15.6,0-28.2,12.7-28.2,28.2s12.7,28.2,28.2,28.2s28.2-12.7,28.2-28.2S275.6,188,260,188z"/>
			</g>
		</g>
		<g>
			<g class="st30">
				<g>
					<defs>
						<path id="SVGID_3_" d="M276.2,202.6c-1.7-1.8-5.4-2.1-7.1,0c-2.9,3.6-5.8,7.3-8.8,10.9c-1.4,1.7-2.8,3.5-4.2,5.2
							c-0.5,0.6-1.1,1.5-1.7,2.4c-0.1-0.1-0.3-0.3-0.4-0.4c-0.9-1-1.9-1.9-2.8-2.9c-4.5-4.6-11.6,2.5-7.1,7.1c2.3,2.4,4.7,5.7,7.9,7
							c3.5,1.4,6.5-0.3,8.8-3c5.2-6.3,10.3-12.8,15.4-19.2C277.9,207.6,278.2,204.7,276.2,202.6z"/>
					</defs>
					<clipPath id="SVGID_4_">
						<use xlink:href="#SVGID_3_"  style="overflow:visible;"/>
					</clipPath>
					<g style="clip-path:url(#SVGID_4_);">
						
							<image style="overflow:visible;" width="147" height="131" xlink:href="82AFCB02.png"  transform="matrix(0.24 0 0 0.24 242.52 201.055)">
						</image>
					</g>
				</g>
			</g>
			<g>
				<path class="st4" d="M275.9,201.6c-1.7-1.8-5.4-2.1-7.1,0c-2.9,3.6-5.8,7.3-8.8,10.9c-1.4,1.7-2.8,3.5-4.2,5.2
					c-0.5,0.6-1.1,1.5-1.7,2.4c-0.1-0.1-0.3-0.3-0.4-0.4c-0.9-1-1.9-1.9-2.8-2.9c-4.5-4.6-11.6,2.5-7.1,7.1c2.3,2.4,4.7,5.7,7.9,7
					c3.5,1.4,6.5-0.3,8.8-3c5.2-6.3,10.3-12.8,15.4-19.2C277.7,206.6,278,203.7,275.9,201.6z"/>
			</g>
		</g>
		<g>
			<path class="st31" d="M268.6,189.6c-6.6-2.8-24.8-3.5-34,14.5C243.3,193.7,252.7,188.5,268.6,189.6z"/>
		</g>
		<g>
			<path class="st32" d="M254,243.7c15.4-1.1,26-10.1,33.3-20.9c-1.2,6.8-5.8,13-11.3,16.8C270.5,243.4,261.9,245.7,254,243.7"/>
		</g>
	</g>
	<g class="st0">
		<g class="st1">
			<g>
				<g>
					<defs>
						<circle id="SVGID_5_" cx="260.1" cy="216.1" r="29.3"/>
					</defs>
					<clipPath id="SVGID_6_">
						<use xlink:href="#SVGID_5_"  style="overflow:visible;"/>
					</clipPath>
					<g style="clip-path:url(#SVGID_6_);">
						
							<image style="overflow:visible;" width="370" height="370" xlink:href="82AFCB05.png"  transform="matrix(0.24 0 0 0.24 214.44 170.335)">
						</image>
					</g>
				</g>
			</g>
			<g>
				<path class="st33" d="M260.1,246.4c-16.7,0-30.3-13.6-30.3-30.3s13.6-30.3,30.3-30.3c16.7,0,30.3,13.6,30.3,30.3
					S276.8,246.4,260.1,246.4z M260.1,187.8c-15.6,0-28.3,12.7-28.3,28.3s12.7,28.3,28.3,28.3c15.6,0,28.3-12.7,28.3-28.3
					S275.7,187.8,260.1,187.8z"/>
			</g>
		</g>
		<g class="st1">
			<path class="st34" d="M268.7,189.4c-6.6-2.8-24.8-3.5-34.1,14.5C243.3,193.5,252.7,188.2,268.7,189.4z"/>
		</g>
		<g class="st1">
			<path class="st35" d="M254.1,243.7c15.4-1.1,26-10.1,33.4-21c-1.2,6.8-5.8,13-11.3,16.8S262,245.7,254.1,243.7"/>
		</g>
		<g class="st1">
			<g>
				<g>
					<defs>
						<path id="SVGID_7_" d="M267.6,200.6c-2.6,3-5.3,6-7.9,9.1c-2.9-2.5-5.8-5.1-8.7-7.6c-4.9-4.3-12,3-7.1,7.3
							c3,2.6,6,5.3,9.1,7.9c-2.5,2.9-5.1,5.8-7.6,8.7c-4.3,4.9,3,12,7.3,7.1c2.6-3,5.3-6,7.9-9.1c2.9,2.5,5.8,5.1,8.7,7.6
							c4.9,4.3,12-3,7.1-7.3c-3-2.6-6-5.3-9.1-7.9c2.5-2.9,5.1-5.8,7.6-8.7C279.3,202.8,271.9,195.7,267.6,200.6z"/>
					</defs>
					<clipPath id="SVGID_8_">
						<use xlink:href="#SVGID_7_"  style="overflow:visible;"/>
					</clipPath>
					<g style="clip-path:url(#SVGID_8_);">
						
							<image style="overflow:visible;" width="262" height="262" xlink:href="82AFCB06.png"  transform="matrix(0.24 0 0 0.24 228.12 184.975)">
						</image>
					</g>
				</g>
			</g>
			<g>
				<path class="st4" d="M267.6,199.1c-2.6,3-5.3,6-7.9,9.1c-2.9-2.5-5.8-5.1-8.7-7.6c-4.9-4.3-12,3-7.1,7.3c3,2.6,6,5.3,9.1,7.9
					c-2.5,2.9-5.1,5.8-7.6,8.7c-4.3,4.9,3,12,7.3,7.1c2.6-3,5.3-6,7.9-9.1c2.9,2.5,5.8,5.1,8.7,7.6c4.9,4.3,12-3,7.1-7.3
					c-3-2.6-6-5.3-9.1-7.9c2.5-2.9,5.1-5.8,7.6-8.7C279.3,201.2,271.9,194.1,267.6,199.1z"/>
			</g>
		</g>
	</g>
	<path class="st36" d="M267.5,290.3v5h-0.6v-0.9c-0.4,0.6-1,1-1.8,1c-1.3,0-2.1-0.7-2.1-2.1v-2.9h0.7v2.8c0,1.1,0.6,1.6,1.5,1.6
		c1,0,1.7-0.7,1.7-1.8v-2.6H267.5z"/>
	<path class="st36" d="M268.8,294.9v-4.5h0.6v0.8c0.4-0.6,1-0.9,1.8-0.9c1.3,0,2.1,0.6,2.1,1.9v2.6h-0.7v-2.6c0-1-0.6-1.5-1.5-1.5
		c-1,0-1.7,0.6-1.7,1.6v2.4H268.8z"/>
	<g class="st0">
		
			<image style="display:inline;overflow:visible;opacity:0.75;" width="382" height="182" xlink:href="82AFCB04.png"  transform="matrix(0.24 0 0 0.24 216.5076 255.6826)">
		</image>
		<g class="st1">
			<text transform="matrix(1 0 0 1 224.6327 278.7153)" class="st37 st38 st39 st40">SORRY</text>
		</g>
	</g>
	<text transform="matrix(1 0 0 1 245.422 417.9437)" class="st41 st42 st43">Faild</text>
</g>
<g id="Plant">
	<g>
		<g>
			<g>
				<path class="st12" d="M422.5,397.8c3.1,1.3,5.3,4.1,6.4,7.3c1.1,3.1,1.2,6.6,0.9,9.9c-0.7,6.4-4.4,12.9-8.3,18
					c-5.4-4.7-6.6-12.9-7-17.1C413.9,409.2,416.9,396.8,422.5,397.8"/>
			</g>
		</g>
		<g>
			<g>
				<path class="st12" d="M427.7,443.5c-0.9-3.6,0.6-7.6,3.4-10.1c2.8-2.5,6.7-3.5,10.4-3.2c1.7,0.1,3.6,0.6,4.5,2
					c0.9,1.3,0.8,3.2,0.1,4.6c-0.7,1.4-2,2.5-3.4,3.3C438.1,443.1,433,445.1,427.7,443.5"/>
			</g>
		</g>
		<g>
			<g>
				<g>
					<path class="st7" d="M420.8,463.1c0,0,0-0.5,0.2-1.3c0.2-0.9,0.4-2.1,0.7-3.6c0.6-3,1.4-7.2,3.7-11.4c2.3-4.1,5.5-7.2,8.1-8.7
						c1.3-0.8,2.5-1.2,3.3-1.5c0.4-0.1,0.7-0.2,1-0.2c0.2,0,0.3-0.1,0.3,0c0,0.1-1.9,0.4-4.5,2c-2.6,1.6-5.7,4.6-7.9,8.6
						c-2.3,4-3.1,8.2-3.8,11.2c-0.3,1.5-0.6,2.7-0.8,3.5C421,462.7,420.8,463.1,420.8,463.1z"/>
				</g>
			</g>
		</g>
		<g>
			<g>
				<g>
					<path class="st7" d="M421,407.4c0,0,0,0.2,0.1,0.6c0,0.4,0.1,1,0.1,1.6c0.1,1.4,0.2,3.5,0.2,6.1c0.2,5.1,0.3,12.2,0.3,20
						c0,7.8-0.2,14.9-0.4,20c-0.1,2.6-0.2,4.6-0.3,6.1c0,0.7-0.1,1.2-0.1,1.6c0,0.4,0,0,0,0c0.1-0.6-0.1,0.4-0.1,0c0-0.4,0-1,0-1.7
						c0-1.5,0.1-3.6,0.1-6.1c0.1-5.1,0.3-12.2,0.3-20c0-7.8,0-14.9-0.1-20c0-2.5-0.1-4.6-0.1-6.1c0-0.7,0-1.2,0-1.7
						C421,407.6,421,407.4,421,407.4z"/>
				</g>
			</g>
		</g>
		<g>
			<g>
				<path class="st12" d="M418.4,447.4c-1.2-7.7-6.4-14.7-13.5-18.1c-1.8-0.9-4.2-1.4-5.6-0.1c-1.5,1.3-1.2,3.8-0.4,5.6
					c3,7.8,11.1,13.2,19.4,13.1"/>
			</g>
		</g>
		<g>
			<g>
				<g>
					<path class="st7" d="M405.8,435.3c0,0,0.4,0.1,1.1,0.5c0.4,0.2,0.8,0.4,1.3,0.7c0.5,0.3,1.1,0.6,1.6,1c0.6,0.4,1.2,0.9,1.9,1.4
						c0.7,0.5,1.3,1.2,2,1.8c1.3,1.4,2.7,3,3.8,4.9c1.1,1.9,1.9,3.8,2.5,5.7c0.3,0.9,0.5,1.8,0.6,2.6c0.2,0.8,0.2,1.6,0.3,2.3
						c0.1,0.7,0.1,1.4,0.1,1.9c0,0.6,0,1.1,0,1.5c-0.1,0.8-0.1,1.2-0.1,1.2c-0.1,0,0.1-1.8-0.2-4.6c-0.1-0.7-0.2-1.5-0.4-2.3
						c-0.1-0.8-0.4-1.7-0.7-2.6c-0.6-1.8-1.4-3.7-2.5-5.6c-1.1-1.9-2.4-3.5-3.7-4.8c-0.7-0.7-1.3-1.3-1.9-1.8
						c-0.6-0.6-1.3-1-1.8-1.4C407.3,436.2,405.7,435.4,405.8,435.3z"/>
				</g>
			</g>
		</g>
	</g>
</g>
</svg>
