<?xml version="1.0" encoding="utf-8"?>
<!-- Generator: Adobe Illustrator 25.3.1, SVG Export Plug-In . SVG Version: 6.00 Build 0)  -->
<svg version="1.1" id="Layer_1" xmlns="http://www.w3.org/2000/svg" xmlns:xlink="http://www.w3.org/1999/xlink" x="0px" y="0px"
	 viewBox="0 0 2500 3000" style="enable-background:new 0 0 2500 3000;" xml:space="preserve">
<style type="text/css">
	.st0{fill:#192D50;}
	.st1{fill:#FFFFFF;}
</style>
<g>
	<g>
		<path class="st0" d="M2444.1,2691c14.2,99.1-52.9,180.1-155.6,180.1H210.6c-99.1,0-169.8-81.3-155.6-180.1L267.1,902.5
			c14.2-99.1,109.4-180.1,208.5-180.1h1548c99.1,0,194.3,81.3,208.5,180.1L2444.1,2691z"/>
	</g>
	<path class="st1" d="M1249.6,2234.9c-311.2,0-625.5-208.5-625.5-607.8c0-49.4,38.7-92,92-92c49.4,0,92,38.7,92,92
		c0,293.4,229.8,427.7,441.9,427.7s441.9-134.3,441.9-427.7c0-49.4,38.7-92,92-92c49.4,0,92,38.7,92,92
		C1875.1,2026.4,1560.7,2234.9,1249.6,2234.9z"/>
	<path class="st0" d="M1783.4,828.3c-49.4,0-92-38.7-92-92c0-293.4-229.8-427.7-441.9-427.7S807.7,442.9,807.7,736.3
		c0,49.4-38.7,92-92,92c-49.4,0-92-38.7-92-92c0-399.2,314.7-607.8,625.5-607.8s625.5,208.5,625.5,607.8
		C1875.1,789.6,1836.4,828.3,1783.4,828.3z"/>
	<path class="st1" d="M864.5,1280.8c0,81.3-67.1,148.5-148.5,148.5s-148.5-67.1-148.5-148.5s67.1-148.5,148.5-148.5
		C797.4,1128.8,864.5,1195.9,864.5,1280.8z"/>
	<path class="st1" d="M1620.7,1415.1c-32,0-60-14.2-77.8-42.3c-28.4-42.3-14.2-99.1,28.4-123.6c7.1-7.1,215.6-134.3,409.9,3.6
		c38.7,28.4,49.4,84.9,21.3,127.2c-28.4,38.7-84.9,49.4-127.2,21.3c-92-67.1-205,3.6-205,3.6
		C1652.7,1411.5,1635,1415.1,1620.7,1415.1z"/>
</g>
</svg>
